STARTFONT 2.3
FONT -FontForge-Courgette-Book-R-Normal--36-360-72-72-P-187-ISO10646-1
SIZE 36 72 72  4
FONTBOUNDINGBOX 47 45 -7 -10
COMMENT "Generated by fontforge, http://fontforge.sourceforge.net"
COMMENT "Copyright (c) 2012, Sorkin Type Co (www.sorkintype.com) with Reserved Font Name "Courgette"."
STARTPROPERTIES 41
FOUNDRY "FontForge"
FAMILY_NAME "Courgette"
WEIGHT_NAME "Book"
SLANT "R"
SETWIDTH_NAME "Normal"
ADD_STYLE_NAME ""
PIXEL_SIZE 36
POINT_SIZE 360
RESOLUTION_X 72
RESOLUTION_Y 72
SPACING "P"
AVERAGE_WIDTH 187
CHARSET_REGISTRY "ISO10646"
CHARSET_ENCODING "1"
FONTNAME_REGISTRY ""
CHARSET_COLLECTIONS "ISO8859-2 ISO8859-9 ISO8859-4 ISO10646-1"
BITS_PER_PIXEL 4
FONT_NAME "Courgette-Regular"
FACE_NAME "Courgette Regular"
COPYRIGHT "Copyright (c) 2012, Sorkin Type Co (www.sorkintype.com) with Reserved Font Name "Courgette"."
FONT_VERSION "1.002"
FONT_ASCENT 29
FONT_DESCENT 7
UNDERLINE_POSITION -4
UNDERLINE_THICKNESS 2
X_HEIGHT 17
CAP_HEIGHT 26
DEFAULT_CHAR 1
RAW_ASCENT 799
RAW_DESCENT 200
NORM_SPACE 11
RELATIVE_WEIGHT 40
RELATIVE_SETWIDTH 50
SUPERSCRIPT_X 0
SUPERSCRIPT_Y 17
SUPERSCRIPT_SIZE 23
SUBSCRIPT_X 0
SUBSCRIPT_Y 5
SUBSCRIPT_SIZE 23
AVG_LOWERCASE_WIDTH 180
AVG_UPPERCASE_WIDTH 211
ENDPROPERTIES
CHARS 407
STARTCHAR .null.dup1
ENCODING 0
SWIDTH 0 0
DWIDTH 0 0
BBX 1 1 0 0
BITMAP
00
ENDCHAR
STARTCHAR uni0001
ENCODING 1
SWIDTH 0 0
DWIDTH 0 0
BBX 1 1 0 0
BITMAP
00
ENDCHAR
STARTCHAR uni0002
ENCODING 2
SWIDTH 0 0
DWIDTH 0 0
BBX 1 1 0 0
BITMAP
00
ENDCHAR
STARTCHAR uni0003
ENCODING 3
SWIDTH 0 0
DWIDTH 0 0
BBX 1 1 0 0
BITMAP
00
ENDCHAR
STARTCHAR uni0004
ENCODING 4
SWIDTH 0 0
DWIDTH 0 0
BBX 1 1 0 0
BITMAP
00
ENDCHAR
STARTCHAR uni0005
ENCODING 5
SWIDTH 0 0
DWIDTH 0 0
BBX 1 1 0 0
BITMAP
00
ENDCHAR
STARTCHAR uni0006
ENCODING 6
SWIDTH 0 0
DWIDTH 0 0
BBX 1 1 0 0
BITMAP
00
ENDCHAR
STARTCHAR uni0007
ENCODING 7
SWIDTH 0 0
DWIDTH 0 0
BBX 1 1 0 0
BITMAP
00
ENDCHAR
STARTCHAR uni0008
ENCODING 8
SWIDTH 0 0
DWIDTH 0 0
BBX 1 1 0 0
BITMAP
00
ENDCHAR
STARTCHAR uni0009
ENCODING 9
SWIDTH 0 0
DWIDTH 0 0
BBX 1 1 0 0
BITMAP
00
ENDCHAR
STARTCHAR nonmarkingreturn
ENCODING 13
SWIDTH 0 0
DWIDTH 0 0
BBX 1 1 0 0
BITMAP
00
ENDCHAR
STARTCHAR uni0015
ENCODING 21
SWIDTH 0 0
DWIDTH 0 0
BBX 1 1 0 0
BITMAP
00
ENDCHAR
STARTCHAR uni0016
ENCODING 22
SWIDTH 0 0
DWIDTH 0 0
BBX 1 1 0 0
BITMAP
00
ENDCHAR
STARTCHAR uni0017
ENCODING 23
SWIDTH 0 0
DWIDTH 0 0
BBX 1 1 0 0
BITMAP
00
ENDCHAR
STARTCHAR uni0018
ENCODING 24
SWIDTH 0 0
DWIDTH 0 0
BBX 1 1 0 0
BITMAP
00
ENDCHAR
STARTCHAR uni0019
ENCODING 25
SWIDTH 0 0
DWIDTH 0 0
BBX 1 1 0 0
BITMAP
00
ENDCHAR
STARTCHAR space
ENCODING 32
SWIDTH 307 0
DWIDTH 11 0
BBX 1 1 0 0
BITMAP
00
ENDCHAR
STARTCHAR exclam
ENCODING 33
SWIDTH 417 0
DWIDTH 15 0
BBX 15 28 2 -1
BITMAP
00000000007DFC30
0000000008FFFF40
000000004FFFFB00
00000000DFFFE200
00000006FFFF6000
0000000DFFFD0000
0000005FFFF40000
000000CFFFC00000
000002FFFF400000
000007FFFB000000
00000CFFF4000000
00002FFFC0000000
00006FFF60000000
00009FFE10000000
0000DFF800000000
0000FFF200000000
0002FFB000000000
0003FF5000000000
0003FE1000000000
0001F90000000000
0000510000000000
0000000000000000
03CFD80000000000
0DFFFF7000000000
2FFFFF8000000000
0EFFFF4000000000
05FFF80000000000
0025300000000000
ENDCHAR
STARTCHAR quotedbl
ENCODING 34
SWIDTH 437 0
DWIDTH 16 0
BBX 14 9 5 20
BITMAP
019EEA0005DFC3
0AFFFE104FFFF6
3FFFF400CFFFA0
8FFF8002FFFD10
CFFD0006FFF400
EFF40008FF9000
FFB00009FF2000
EF300008F80000
A8000004C10000
ENDCHAR
STARTCHAR numbersign
ENCODING 35
SWIDTH 725 0
DWIDTH 26 0
BBX 25 27 1 0
BITMAP
00000000000008ED00008ED000
0000000000007FFC0007FFD000
000000000000EFF7000DFF7000
000000000004FFF1004FFF2000
000000000009FFA0009FFB0000
00000000000EFF4000EFF50000
00000000005FFD0004FFE00000
0000000000AFF7000AFF800000
0000000001FFF2001EFF200000
00009FFFFFFFFFFFFFFFFFFF80
0008FFFFFFFFFFFFFFFFFFFF60
000AFFFFFFFFFFFFFFFFFFE700
000000005FFA0005FFA0000000
00000000AFF40009FF50000000
00000000EFE0000EFE00000000
00000004FF90004FF900000000
02BFFFFFFFFFFFFFFFFFFF4000
0DFFFFFFFFFFFFFFFFFFFF2000
1EFFFFFFFFFFFFFFFFFFD40000
0000009FF20008FF3000000000
000000DFC0000DFD0000000000
000003FF70002FF80000000000
000007FF20007FF30000000000
00000CFC0000BFD00000000000
00002FF70001FF800000000000
00007FE10006FF200000000000
00009D400008D5000000000000
ENDCHAR
STARTCHAR dollar
ENCODING 36
SWIDTH 545 0
DWIDTH 20 0
BBX 19 37 2 -5
BITMAP
0000000000000001AEA0
000000000000000BFF70
000000000000005FFD00
00000000000000BFF400
00000000000001FFB000
0000000004ADFFFF4000
00000002CFFFFFFFE300
0000004EFFB4116FFD10
000003EFF8000009FF70
00001DFFB0000005FFB0
00008FFF20000006FFD0
0001EFFB0000000AFFE0
0005FFF70000003FFFD0
0009FFF5000001CFFF90
000BFFF600000BFFFF30
000CFFF90000AFFFFA00
000BFFFE0002FFFFC100
0007FFFF70007EE91000
0003FFFFE20000000000
0000BFFFFB0000000000
00002EFFFF6000000000
000006FFFFE100000000
0000009FFFF800000000
0000000CFFFE00000000
01730002EFFF30000000
1DF900007FFF40000000
9FF800002FFF30000000
DFF800001FFE10000000
DFFC00006FF900000000
9FFF9116EFD100000000
1DFFFFFFFC1000000000
019FFFEB500000000000
006FF500000000000000
00BFD000000000000000
01FF7000000000000000
03FF1000000000000000
01650000000000000000
ENDCHAR
STARTCHAR percent
ENCODING 37
SWIDTH 876 0
DWIDTH 32 0
BBX 27 27 2 0
BITMAP
000004ADFD8100000000002AE900
0001AFFFFFFC1000000002EFF600
001BFFE51CFF700000001DFFB000
009FFF4008FFC0000000BFFE2000
04FFF90008FFE0000009FFF30000
0BFFE1000BFFD000006FFF600000
1FFFA0001FFFA00004FFF9000000
3FFF50006FFF50002EFFB0000000
4FFF3001EFFD0001DFFD10000000
3FFF2009FFF4000BFFE200000000
0DFF618FFF70008FFF4000000000
04FFFFFFE60006FFF60000000000
003AEFD810004FFF800000000000
000000000002EFFB000000000000
00000000001CFFC10003ADFD9100
0000000000AFFE20008FFFFFFD10
0000000008FFF3000AFFF61BFF80
000000005FFF50008FFF5007FFD0
00000003EFF80003FFFA0007FFE0
0000001DFFA00009FFF2000AFFE0
000000CFFC10000EFFB0001FFFB0
00000AFFD100003FFF60005FFF60
00007FFE2000003FFF4001DFFE10
0004FFF40000002FFF2008FFF500
002EFF500000000CFF717FFF8000
00BFF70000000003EFFFFFF60000
00ED6000000000003AEFD9200000
ENDCHAR
STARTCHAR ampersand
ENCODING 38
SWIDTH 563 0
DWIDTH 20 0
BBX 20 27 1 0
BITMAP
00000000038BEFEC7100
00000002BFFFFFFFFC10
0000006EFFFB5203CFB0
000008FFFF6000005FF3
00006FFFF40000005FF6
0002EFFF60000001CFF7
0009FFFB0000001BFFF4
000EFFF3000003CFFFD0
003FFFC000008FFFFF50
004FFF800000EFFFF800
002FFF8000006FFF8000
000EFFB0000003620000
0007FFF8699200000000
00009FFFFFFE00000000
00005EFFFFFC00000000
0009FFFFE61000000000
008FFFF9100000000000
05FFFF60004752002582
0DFFF70006FFFFFFFFF4
5FFFC000029FFFFFFF90
9FFF5000000BFFFDB500
BFFF20000009FF800000
BFFF2000000DFF500000
8FFF800001AFFC000000
2EFFF8326DFFC1000000
04EFFFFFFFF910000000
0018CEFEC82000000000
ENDCHAR
STARTCHAR quotesingle
ENCODING 39
SWIDTH 231 0
DWIDTH 8 0
BBX 7 9 5 20
BITMAP
019EEA00
0AFFFE10
3FFFF400
8FFF8000
CFFD0000
EFF40000
FFB00000
EF300000
A8000000
ENDCHAR
STARTCHAR parenleft
ENCODING 40
SWIDTH 478 0
DWIDTH 17 0
BBX 19 41 3 -9
BITMAP
00000000000000002640
000000000000002BFF70
00000000000006EFE500
0000000000009FFD3000
00000000001BFFC10000
0000000000BFFC100000
000000000AFFD1000000
000000008FFE30000000
00000005FFF500000000
0000002EFFA000000000
000000BFFE1000000000
000006FFF50000000000
00001EFFC00000000000
00007FFF400000000000
0001EFFB000000000000
0007FFF5000000000000
000DFFE0000000000000
004FFF80000000000000
009FFF30000000000000
00EFFE00000000000000
02FFFA00000000000000
06FFF700000000000000
09FFF400000000000000
0BFFF200000000000000
0DFFF000000000000000
0EFFE000000000000000
0FFFD000000000000000
1FFFC000000000000000
0FFFC000000000000000
0FFFD000000000000000
0DFFE000000000000000
0AFFF100000000000000
06FFF400000000000000
02FFF700000000000000
00CFFC00000000000000
005FFF20000000000000
000EFF80000000000000
0006FFF2000000000000
0000BFFC100000000000
00001CFFC10000000000
0000019EB00000000000
ENDCHAR
STARTCHAR parenright
ENCODING 41
SWIDTH 478 0
DWIDTH 17 0
BBX 19 41 -4 -9
BITMAP
00000000003730000000
0000000000DFF7000000
00000000004EFF700000
000000000004FFF40000
000000000000AFFC0000
0000000000003FFF4000
0000000000000CFFB000
00000000000007FFF200
00000000000003FFF700
00000000000000FFFB00
00000000000000DFFE00
00000000000000BFFF10
00000000000000BFFF20
00000000000000AFFF30
00000000000000BFFF30
00000000000000CFFF20
00000000000000CFFF10
00000000000000EFFE00
00000000000001FFFC00
00000000000004FFFA00
00000000000006FFF600
0000000000000AFFF300
0000000000000EFFD000
0000000000004FFF9000
0000000000009FFF3000
000000000001EFFC0000
000000000006FFF60000
00000000000DFFD00000
00000000005FFF600000
0000000001DFFC000000
0000000007FFF3000000
000000003FFF90000000
00000000CFFC00000000
00000008FFE200000000
0000006FFF5000000000
000004FFF60000000000
00004EFF700000000000
0004EFF6000000000000
008FFE40000000000000
1BFFB200000000000000
6EB40000000000000000
ENDCHAR
STARTCHAR asterisk
ENCODING 42
SWIDTH 518 0
DWIDTH 19 0
BBX 14 14 4 13
BITMAP
00000009EEA000
0000005FFFE000
000000AFFF4000
02E400EFF90000
08FD11FFD10240
05FFA3FF54CFF9
00BFFCFDAFFFFD
001CFFFFFFC974
0001DFFFB20000
001BFFEFE30000
01CFE63FFE2000
0AFD3008FFC000
1FC20001DFF200
051000005E8000
ENDCHAR
STARTCHAR plus
ENCODING 43
SWIDTH 617 0
DWIDTH 22 0
BBX 19 18 2 4
BITMAP
000000005E6000000000
00000000EF9000000000
00000000FF9000000000
00000000FF9000000000
00000000FF9000000000
00000000FF9000000000
00000000FF9000000000
00000000FF9000000000
2BFFFFFFFFFFFFFFFE30
5FFFFFFFFFFFFFFFFA10
00000000FF9000000000
00000000FF9000000000
00000000FF9000000000
00000000FF9000000000
00000000FF9000000000
00000000FF9000000000
00000000FF8000000000
00000000CB1000000000
ENDCHAR
STARTCHAR comma
ENCODING 44
SWIDTH 312 0
DWIDTH 11 0
BBX 7 10 0 -5
BITMAP
007EEA10
05FFFF80
03FFFFB0
00AFFFA0
005FFF70
004FFE10
00AFF600
06FF9000
5FF80000
EB400000
ENDCHAR
STARTCHAR hyphen
ENCODING 45
SWIDTH 452 0
DWIDTH 16 0
BBX 11 3 3 9
BITMAP
2CFFFFFFFFA0
BFFFFFFFFF90
DFFFFFFFFA10
ENDCHAR
STARTCHAR period
ENCODING 46
SWIDTH 270 0
DWIDTH 10 0
BBX 7 6 0 -1
BITMAP
03CFD800
0DFFFF70
1FFFFF80
0EFFFF40
05FFF800
00253000
ENDCHAR
STARTCHAR slash
ENCODING 47
SWIDTH 405 0
DWIDTH 15 0
BBX 24 38 -3 -6
BITMAP
0000000000000000000019E9
00000000000000000000BFF9
00000000000000000005FFE2
0000000000000000001EFF70
0000000000000000008FFD00
000000000000000002FFF400
00000000000000000AFFB000
00000000000000004FFF2000
0000000000000000CFF90000
0000000000000006FFE10000
000000000000001DFF700000
000000000000007FFD000000
00000000000001EFF5000000
00000000000009FFB0000000
0000000000003FFF30000000
000000000000BFF900000000
000000000004FFE200000000
00000000000DFF8000000000
00000000006FFD1000000000
0000000001EFF60000000000
0000000008FFC00000000000
000000002FFF400000000000
00000000AFFA000000000000
00000003FFF2000000000000
0000000CFF80000000000000
0000005FFE10000000000000
000000DFF600000000000000
000007FFD000000000000000
00001EFF4000000000000000
00009FFB0000000000000000
0002FFF20000000000000000
000AFF900000000000000000
004FFE100000000000000000
00CFF7000000000000000000
06FFD0000000000000000000
1EFF50000000000000000000
8FFA00000000000000000000
AEA100000000000000000000
ENDCHAR
STARTCHAR zero
ENCODING 48
SWIDTH 621 0
DWIDTH 22 0
BBX 21 27 2 0
BITMAP
0000000000038CEEC71000
0000000002BFFFFFFFC100
000000005EFFC512CFF800
00000007FFFA10004FFE10
0000007FFFB000001FFF40
000004FFFD1000000FFF70
00001EFFF30000001FFF70
0000AFFF800000004FFF60
0004FFFE100000006FFF50
000CFFF600000000AFFF40
004FFFD000000000EFFF10
00AFFF7000000003FFFD00
01FFFF1000000008FFF900
06FFFA000000000EFFF400
0AFFF5000000004FFFE000
0EFFE000000000BFFF9000
3FFFB000000003FFFF2000
6FFF700000000AFFFA0000
8FFF400000003FFFF20000
9FFF10000000CFFF800000
9FFE00000006FFFD100000
9FFC0000002EFFF3000000
7FFD000001DFFF60000000
3FFF20002CFFF600000000
0CFFB116EFFE5000000000
02EFFFFFFFA20000000000
0018DFEC83000000000000
ENDCHAR
STARTCHAR one
ENCODING 49
SWIDTH 405 0
DWIDTH 15 0
BBX 13 27 2 0
BITMAP
000000003CE800
00000006FFFF70
0000008FFFFFA0
00002BFFFFFF80
0019FFFFFFFF50
007FFFF9AFFF20
002AA820DFFD00
00000003FFF800
00000008FFF300
0000000DFFD000
0000003FFF8000
0000008FFF2000
000000EFFB0000
000004FFF50000
00000AFFE00000
00001EFF800000
00006FFF100000
0000CFF9000000
0003FFF2000000
0009FFA0000000
001EFF30000000
007FFA00000000
00DFF200000000
05FF8000000000
0CFC0000000000
3FE20000000000
6D300000000000
ENDCHAR
STARTCHAR two
ENCODING 50
SWIDTH 524 0
DWIDTH 19 0
BBX 20 27 0 0
BITMAP
00000000029DFED93000
000000008FFFFFFFF700
0000001CFFE6116FFF40
000000BFFE300008FFB0
000006FFF6000004FFF1
00000DFFF1000004FFF2
00002FFFE0000007FFF1
00004FFFF200000CFFE0
00002FFFFD00005FFF90
00000AFFFA0001EFFF40
0000018B60000BFFFA00
0000000000009FFFE200
000000000008FFFF4000
00000000008FFFF60000
0000000008FFFF600000
000000008FFFF5000000
00000008FFFE40000000
0000008FFFC200000000
000008FFF91000000000
00008FFF600000000000
0006FFD3000000000000
003FFC10000000000000
01EFC100000015AE0000
0AFFBEFFFFFFFFFF1000
4FFFFFFFFFFFFFFD0000
8FFA3138EFFFFFF50000
3D80000016BEEC400000
ENDCHAR
STARTCHAR three
ENCODING 51
SWIDTH 537 0
DWIDTH 19 0
BBX 19 27 1 0
BITMAP
0000000005BEFEC81000
00000003DFFFFFFFE300
0000006FFFB412BFFD10
000005FFF800001EFF60
00002FFFA000000CFFA0
00009FFF3000000CFFC0
0000EFFF0000000EFFB0
0002FFFF2000003FFF90
0001FFFFD10000AFFF50
0000CFFFD10004FFFE00
00002BEA10003EFFF600
000000000005EFFFB000
0000000002AFFFFC1000
00000003AFFFFFC10000
0000002EFFFFF9000000
0000007FFFFFB1000000
0000002779FFFB000000
00000000007FFF400000
00000000004FFF700000
00598100005FFF800000
09FFF500008FFF500000
3FFFB00000DFFE100000
7FFF300007FFF8000000
7FFF20005FFFD1000000
2FFF9239FFFD20000000
07FFFFFFFF9100000000
004AEFEC830000000000
ENDCHAR
STARTCHAR four
ENCODING 52
SWIDTH 529 0
DWIDTH 19 0
BBX 17 27 2 0
BITMAP
000000DE8000000000
000002FFF700000000
000005FFFB00000000
000009FFFA00000000
00000DFFF600000000
00003FFFF100000000
00009FFFA000000000
0001EFFF40003EA200
0008FFFB00007FFD10
001EFFF30000BFFF30
009FFFA00001FFFF10
03FFFE200005FFFB00
0BFFF600000AFFF600
4FFFB000001FFFE100
BFFE2000007FFF8000
DFF8100122DFFF5200
6FFFFFFFFFFFFFFE40
07DFFFFFFFFFFFFFB0
000000003FFF800110
000000009FFE100000
00000001FFF6000000
00000007FFC0000000
0000001EFF40000000
0000007FFA00000000
000001EFE100000000
000006FF4000000000
000007D40000000000
ENDCHAR
STARTCHAR five
ENCODING 53
SWIDTH 540 0
DWIDTH 19 0
BBX 21 27 1 0
BITMAP
000000008EC96422348CA0
00000002FFFFFFFFFFFFB0
00000008FFEFFFFFFFFF50
0000000CFF727BFFFFF900
0000003FFF200003452000
0000009FFC000000000000
000001EFF5000000000000
000007FFD0000000000000
00000EFF60000000000000
00006FFD6BEED920000000
0000DFFFFFFFFFE3000000
0005FFFFFDEFFFFD100000
000BFFFC4005FFFF500000
000BFFB100009FFF900000
0002D90000006FFFA00000
0000000000006FFFA00000
0000000000008FFF800000
000000000000BFFF500000
001200000001FFFF100000
06EFC0000006FFFA000000
3FFF8000001EFFF3000000
AFFE1000008FFF90000000
BFFB000004FFFD10000000
9FFB00004EFFD200000000
3FFF6238FFFC2000000000
06FFFFFFFF810000000000
003ADFEC82000000000000
ENDCHAR
STARTCHAR six
ENCODING 54
SWIDTH 554 0
DWIDTH 20 0
BBX 19 27 2 0
BITMAP
000000000028CEFC7000
0000000019FFFFFFFB00
00000003DFFE7218FF50
0000003EFFD20003FF90
000002EFFD100008FF90
00001DFFE200008FFF60
0000AFFF60000CFFFE10
0004FFFB00000EFFF700
000CFFF3000004CD7000
005FFFB0000000000000
00CFFF30000000000000
02FFFD028CEEC6000000
07FFF87FFFFFFF900000
0CFFFCFE7218FFF50000
1FFFFFE30000CFFC0000
3FFFFF4000009FFF0000
6FFFFA0000009FFF2000
7FFFF3000000BFFF1000
8FFFC0000000DFFF0000
8FFF80000003FFFB0000
7FFF60000009FFF60000
5FFF5000002FFFD10000
2FFF500000CFFF400000
0BFF90000AFFF7000000
04FFE404CFFF70000000
006FFFFFFFD300000000
0003ADFEB50000000000
ENDCHAR
STARTCHAR seven
ENCODING 55
SWIDTH 473 0
DWIDTH 17 0
BBX 16 28 4 -1
BITMAP
5EA62101247ADE80
6FFFFFFFFFFFFFF8
4FFFFFFFFFFEDFFB
0CFFFFFFFC53FFF3
019DFDA6101DFF90
0000000000BFFD10
0000000007FFF300
000000004FFF7000
00000002EFFB0000
0000000BFFE20000
0000008FFF500000
000004FFF9000000
00001DFFE1000000
00008FFF50000000
0003FFFB00000000
000CFFF200000000
006FFF9000000000
00DFFF2000000000
06FFF80000000000
0CFFF20000000000
3FFFB00000000000
8FFF600000000000
CFFF200000000000
FFFE000000000000
FFFC000000000000
CFFB000000000000
2CF9000000000000
0020000000000000
ENDCHAR
STARTCHAR eight
ENCODING 56
SWIDTH 524 0
DWIDTH 19 0
BBX 19 27 1 0
BITMAP
0000000006BEFEB60000
00000003DFFFFFFFC100
0000004EFD5129FFFB00
000001EFE20000BFFF50
000008FF6000005FFFA0
00000EFF1000002FFFC0
00003FFF0000001FFFC0
00005FFF2000002FFFA0
00006FFF5000006FFF70
00004FFFA00000BFFF10
00002FFFF20005FFF800
00000CFFFA004EFFB000
000006FFFF57FFFB1000
000001DFFFFFFF700000
0000005FFFFFA2000000
0000029FFFFF30000000
00019FFFFFFFB0000000
002DFFC43EFFF3000000
01DFF90006FFF8000000
09FFD00000CFFB000000
1FFF7000005FFD000000
3FFF5000003FFC000000
4FFF7000004FF8000000
1FFFC00000AFF2000000
08FFFA202AFF60000000
00AFFFFFFFE500000000
0005BEFEC71000000000
ENDCHAR
STARTCHAR nine
ENCODING 57
SWIDTH 554 0
DWIDTH 20 0
BBX 19 27 1 0
BITMAP
00000000028CEFD91000
000000019FFFFFFFE300
0000002DFFD512AFFD10
000002EFFD10001EFF70
00000CFFE200000DFFB0
00007FFF7000000DFFD0
0001EFFE0000000EFFD0
0006FFF80000001FFFC0
000AFFF40000005FFFA0
000EFFF00000009FFF80
000FFFD0000001EFFF70
001FFFC0000008FFFF40
000FFFD000003FFFFF00
000CFFF10002EFFFFC00
0006FFFA117EFFFFF800
0000BFFFFFFFCAFFF200
000007CEFD940DFFC000
0000000000003FFF6000
000000000000AFFD0000
000000000002FFF50000
006A9000000AFFB00000
08FFF200005FFE200000
1FFF900002EFF5000000
2FFF50002DFF70000000
0EFF9027EFF600000000
07FFFFFFFC3000000000
005CEFDA400000000000
ENDCHAR
STARTCHAR colon
ENCODING 58
SWIDTH 312 0
DWIDTH 11 0
BBX 9 18 1 -1
BITMAP
0000476100
0008FFFF40
000EFFFFA0
000FFFFF80
000AFFFE10
00019DB300
0000000000
0000000000
0000000000
0000000000
0000000000
0000000000
1BFEA20000
9FFFFB0000
CFFFFC0000
AFFFF80000
2EFFC10000
0154000000
ENDCHAR
STARTCHAR semicolon
ENCODING 59
SWIDTH 312 0
DWIDTH 11 0
BBX 10 22 0 -5
BITMAP
0000047620
00006FFFF5
0000DFFFFB
0000EFFFF9
00008FFFF2
000008DB30
0000000000
0000000000
0000000000
0000000000
0000000000
0000000000
007EEA1000
05FFFF8000
03FFFFB000
00AFFFA000
005FFF7000
004FFE1000
00AFF60000
06FF900000
5FF8000000
EB40000000
ENDCHAR
STARTCHAR less
ENCODING 60
SWIDTH 637 0
DWIDTH 23 0
BBX 19 19 2 2
BITMAP
00000000000000018E40
000000000000007EFF50
0000000000005DFFF900
00000000004CFFFC4000
000000003BFFFE600000
00000029FFFF81000000
000018EFFFB200000000
0006EFFFD40000000000
05DFFFE7000000000000
7FFFFA10000000000000
2CFFFF81000000000000
006EFFFD600000000000
00017EFFFC3000000000
0000019FFFFA20000000
00000002AFFFE8100000
0000000003BFFFD50000
000000000005DFFFC300
00000000000006EFFF40
0000000000000017DD20
ENDCHAR
STARTCHAR equal
ENCODING 61
SWIDTH 617 0
DWIDTH 22 0
BBX 19 9 2 9
BITMAP
07EFFFFFFFFFFFFFFF90
0DFFFFFFFFFFFFFFFD40
00000000000000000000
00000000000000000000
00000000000000000000
00000000000000000000
00000000000000000000
1BFFFFFFFFFFFFFFFF40
4EFFFFFFFFFFFFFFFB10
ENDCHAR
STARTCHAR greater
ENCODING 62
SWIDTH 606 0
DWIDTH 22 0
BBX 19 19 2 2
BITMAP
1DD81000000000000000
4FFFE600000000000000
03CFFFD5000000000000
0006EFFFC40000000000
000019FFFFA200000000
0000003BFFFF91000000
000000005DFFFE810000
00000000007EFFFE6000
000000000002AFFFFC20
0000000000000AFFFF80
000000000004CFFFD500
0000000002BFFFE70000
000000018FFFF8100000
0000006EFFFA20000000
00004DFFFB3000000000
003BFFFC400000000000
08FFFD60000000000000
4FFE7100000000000000
3E810000000000000000
ENDCHAR
STARTCHAR question
ENCODING 63
SWIDTH 516 0
DWIDTH 19 0
BBX 18 27 2 0
BITMAP
0000000039DEEC7100
00000008FFFFFFFD10
0000009FFF8117FFB0
000004FFF70000BFF3
00000AFFF000009FF6
00000EFFE00000BFF7
00000FFFF20003FFF5
00000CFFF4001CFFF2
000003CD6001BFFFB0
00000000002CFFFF30
0000000004EFFFF600
000000006FFFFF6000
00000009FFFFE40000
000000AFFFFB100000
000009FFFF80000000
00004FFFF500000000
0000BFFF4000000000
0000FFF50000000000
0001FF900000000000
0000ED100000000000
000032000000000000
000000000000000000
04DFD8100000000000
0EFFFF700000000000
2FFFFF700000000000
0DFFFE200000000000
02BEC3000000000000
ENDCHAR
STARTCHAR at
ENCODING 64
SWIDTH 905 0
DWIDTH 33 0
BBX 31 29 1 -5
BITMAP
0000000000000159CDEFEDA730000000
000000000003AFFFFFFFFFFFFC400000
0000000002BFFFFFFEDDEFFFFFF90000
000000007FFFFC731000015AFFFFA000
0000001BFFFA2000000000003DFFF600
000001CFFE4000000000000001DFFE10
00001CFFC100000000000000002FFF50
00009FFD1000004AEEB30AEA1009FFA0
0005FFE200001BFFFFFE8FFF4005FFC0
001DFF700002DFFB21BFFFFD0002FFD0
007FFD00001DFFB0002FFFF60000FFE0
00EFF600009FFE10000DFFE00000FFD0
04FFF20003FFF700003FFF700002FFA0
09FFC0000AFFF100009FFF100006FF60
0CFF80001FFFB00001EFFA00000CFF10
0FFF60004FFF700008FFF400003FF900
2FFF40007FFF50002EFFE00000CFE200
3FFF40008FFF3000AFFFA00008FF6000
3FFF40007FFF4006FAFF70008FF90000
1FFF50003FFF917F86FF914CFF900000
0FFF80000AFFFFF703FFFFFFE5000000
0BFFD000007EEB40005CFEB600000000
06FFF400000000000000000000000000
01DFFD10000000000000000000000000
005FFFA0000000000000000000000000
0007FFFC300000000001100000000000
00007FFFFA62101247BF300000000000
000003AFFFFFFFFFFFD6000000000000
000000027ADEFEDB8400000000000000
ENDCHAR
STARTCHAR A
ENCODING 65
SWIDTH 615 0
DWIDTH 22 0
BBX 27 27 -3 0
BITMAP
0000000000000000000005ADFD20
00000000000000000005DFFFFF50
000000000000000001AFFFDFFF10
00000000000000002CFFA2BFFB00
0000000000000002DFF503FFF600
000000000000001DFE400AFFE100
00000000000000BFF5002FFFA000
00000000000009FF70008FFF4000
0000000000006FFB0000EFFE0000
000000000002EFE20005FFF80000
00000000000BFF60000BFFF30000
00000000006FFC00001FFFD00000
0000000001EFF300006FFF700000
0000000009FFD9BDEEFFFFFFE400
00000017CFFFFFFFFFFFFFFFF200
000002DFFFFFFFFFFFFFFFEB5000
000005ACFFB000000AFFF3000000
0000001EFF3000000EFFE0000000
0000008FFA0000003FFFA0000000
000002FFF20000006FFF60000000
00000BFF900000009FFF20000000
00005FFE20000000CFFF00000000
0002EFF700000000DFFF00000000
002DFFD000000000DFFF31630000
04DFFE3000000000BFFFFFF60000
BFFFF400000000005FFFFFC10000
7EEA30000000000006DFD8100000
ENDCHAR
STARTCHAR B
ENCODING 66
SWIDTH 551 0
DWIDTH 20 0
BBX 21 27 1 0
BITMAP
00000037ACEFFEDA500000
00018DFFFFFFFFFFFE5000
005EFFFFD842114AFFF600
00DFFFD500000000AFFE10
005EF807710000004FFF60
0000107FFE3000003FFF80
000002FFFF8000004FFF90
00000BFFFE2000007FFF70
00005FFFF7000000DFFF30
0000DFFFD0000007FFFC00
0005FFFF5000004FFFF300
000CFFFC000006FFFF7000
003FFFF40002AFFFF80000
008FFFC136BFFFFF600000
00DFFFFFFFFFFFB3000000
03FFFFFFFFFFFE50000000
07FFFD952139FFF7000000
0BFFE10000009FFF200000
0EFFA00000004FFF600000
1FFF500000004FFF700000
3FFF200000007FFF500000
5FFE00000001EFFE100000
4FFD0000001BFFF7000000
3FFF100003CFFFA0000000
0DFFB435AFFFF800000000
04EFFFFFFFFA3000000000
003ADFECA6200000000000
ENDCHAR
STARTCHAR C
ENCODING 67
SWIDTH 533 0
DWIDTH 19 0
BBX 21 27 1 0
BITMAP
0000000000005ADFEB4000
00000000005DFFFFFFF700
000000001BFFFC6219FF30
00000002DFFF800003FF90
0000002EFFF6000004FFC0
000002DFFF60000009FFC0
00000BFFF90000003FFFA0
00007FFFD1000002DFFF60
0002FFFF4000002DFFFE10
000AFFFA000004EFFFF600
002FFFF300000AFFFFA000
009FFFB0000004FFF90000
00EFFF5000000037300000
05FFFE0000000000000000
09FFFA0000000000000000
0CFFF60000000000000000
0FFFF20000000000000000
2FFFF00000000000000000
3FFFE00000000000000000
4FFFE00000000000000000
3FFFF00000000000000000
1FFFF10000000010000000
0DFFF500000007E3000000
06FFFB000002AFF5000000
00CFFF91138EFFE2000000
001CFFFFFFFFFB30000000
00005ADEFDB73000000000
ENDCHAR
STARTCHAR D
ENCODING 68
SWIDTH 630 0
DWIDTH 23 0
BBX 23 27 1 0
BITMAP
00000269CDEFEDA720000000
0004CFFFFFFFFFFFFB400000
004FFFFFFFFDDEFFFFF80000
003FFFFE84000029FFFF8000
0007FF91000000003EFFF300
000012003310000005FFFB00
0000001DFFF4000000EFFF10
0000008FFFE2000000AFFF30
000002FFFF700000008FFF40
000009FFFD000000008FFF40
00002FFFF500000000AFFF30
00009FFFC000000000CFFF10
0001EFFF5000000002FFFC00
0007FFFD0000000006FFF800
000DFFF6000000000DFFF200
004FFFE1000000006FFFA000
009FFF9000000001EFFF3000
00EFFF300000000AFFF80000
04FFFD000000006FFFD10000
08FFF800000004FFFE200000
0CFFF30000004EFFF4000000
1FFFD0000005FFFF50000000
3FFFA000008FFFE400000000
4FFF70003CFFFC2000000000
1FFF714AFFFF810000000000
06FFFFFFFFA2000000000000
004AEFEB7200000000000000
ENDCHAR
STARTCHAR E
ENCODING 69
SWIDTH 509 0
DWIDTH 18 0
BBX 20 27 1 0
BITMAP
000000000049CEFEC710
000000004CFFFFFFFFD2
00000009FFFFB5203EFB
000000BFFFE600000BFF
000009FFFE3000001EFF
00005FFFF4000000AFFD
0000DFFF8000001BFFF8
0005FFFD000003DFFFE1
000AFFF700004FFFFF50
000CFFF200007FFFF700
000DFFE0000009EC4000
000BFFE0000000000000
0007FFF3000000000000
0000CFFE7AC910000000
00001AFFFFFF80000000
00005DFFFFFB50000000
0009FFFFE71000000000
009FFFFC200000000000
06FFFFA0000000000000
0DFFFB00000000000000
5FFFF200000002000000
8FFFB00000005F700000
8FFF80000004FF900000
5FFFA000006FFF500000
0CFFF6115CFFF8000000
02CFFFFFFFFD50000000
0006BDFFDA5000000000
ENDCHAR
STARTCHAR F
ENCODING 70
SWIDTH 518 0
DWIDTH 19 0
BBX 22 27 1 0
BITMAP
0004ADFEDCB975321016D3
00AFFFFFFFFFFFFFFFFFF2
07FFFFFFFFFFFFFFFFFFA0
0DFFFA3101BFFCBDDEC700
0FFF900003FFF300000000
0AFF10000BFFC000000000
019700003FFF8000000000
000000009FFF3000000000
00000001EFFE0000000000
00000005FFFA0000000000
0000000BFFF50000000000
0000001FFFF10000000000
0000006FFFFCEFD8100000
00003AEFFFFFFFFFA00000
0006FFFFFFFFFFFF900000
0007FEFFFC210000000000
00000CFFF6000000000000
00002FFFE1000000000000
00008FFF90000000000000
0001EFFF20000000000000
0006FFFA00000000000000
000DFFF200000000000000
007FFF9000000000000000
02EFFD1000000000000000
1CFFE30000000000000000
CFFE400000000000000000
8EA2000000000000000000
ENDCHAR
STARTCHAR G
ENCODING 71
SWIDTH 598 0
DWIDTH 22 0
BBX 21 27 1 0
BITMAP
00000000000059DEEB5000
00000000004DFFFFFFF900
0000000019FFFD6217FF50
00000002CFFF910001FFB0
0000001DFFF8000002FFE0
000001CFFF90000009FFE0
00000AFFFB0000003FFFB0
00006FFFE2000003EFFF70
0001EFFF6000004EFFFE10
0009FFFC000005FFFFF400
001FFFF5000007FFFF6000
008FFFD00000009FD40000
00DFFF7000000000000000
03FFFF1000000000000000
08FFFB0000006752014820
0BFFF700001CFFFFFFFF30
0EFFF300007FFFFFFFFE00
0FFFF1000028EFFFFFF400
2FFFE00000004FFFEB4000
3FFFD00000000FFE000000
2FFFD00000001FFC000000
0FFFE00000005FF6000000
0CFFF3000000CFC0000000
06FFFA00000AFE30000000
00CFFF9214CFE400000000
001CFFFFFFFC3000000000
00006BEFEA500000000000
ENDCHAR
STARTCHAR H
ENCODING 72
SWIDTH 668 0
DWIDTH 24 0
BBX 28 27 -2 0
BITMAP
0000016ADFFD910000000001DE70
00000AFFFFFFFA0000000006FFF3
000003DF82DFFE0000000009FFF4
0000001100FFFE000000000DFFF1
0000000002FFFC000000001FFFD0
0000000005FFFA000000005FFF90
0000000009FFF700000000AFFF40
000000000DFFF300000000EFFE00
000000002FFFF000000004FFF900
000000006FFFB000000009FFF300
00000000AFFF700000000DFFD000
00000001EFFF300000003FFF8000
00000039FFFFABCDEEFFFFFFD900
000008FFFFFFFFFFFFFFFFFFFB00
000005DFFFF421001139FFFEA100
0000006FFFA00000000BFFE00000
000000CFFF400000002FFF800000
000003FFFD000000007FFF200000
000009FFF600000000DFFB000000
00001FFFE100000003FFF5000000
00008FFF6000000009FFE0000000
0002FFFD000000000DFF90000000
000AFFF4000000003FFF60000000
005FFF90000000006FFF71540000
04EFFC00000000007FFFFFF60000
2FFFB100000000003FFFFFB00000
1CE700000000000006DEC6000000
ENDCHAR
STARTCHAR I
ENCODING 73
SWIDTH 327 0
DWIDTH 12 0
BBX 14 27 -1 0
BITMAP
0000039CEED820
00002FFFFFFFE1
000008FC56FFF6
0000002007FFF7
000000000AFFF6
000000000CFFF3
000000001FFFF1
000000004FFFC0
000000007FFF90
00000000BFFF50
00000001FFFF10
00000005FFFB00
0000000AFFF700
0000000EFFF200
0000004FFFC000
000000AFFF7000
000001EFFF1000
000006FFFA0000
00000CFFF40000
00004FFFC00000
0000BFFF400000
0004FFFB000000
000CFFF2000000
007FFF70000000
05FFFA00000000
4FFFA000000000
2DD70000000000
ENDCHAR
STARTCHAR J
ENCODING 74
SWIDTH 393 0
DWIDTH 14 0
BBX 23 37 -7 -10
BITMAP
000000000000048CEFDA5000
000000000006DFFFFFFFFB00
0000000002DFFFFC51DFFF30
000000000DFFFF7000EFFF30
000000001EFFE40001FFFF20
0000000003CD300004FFFE00
000000000000000007FFFC00
00000000000000000BFFF800
00000000000000001FFFF500
00000000000000004FFFF100
00000000000000009FFFC000
0000000000000000DFFF8000
0000000000000003FFFF3000
0000000000000008FFFD0000
000000000000000DFFF80000
000000000000003FFFF30000
000000000000009FFFD00000
00000000000001EFFF700000
00000000000006FFFF100000
0000000000000CFFFA000000
0000000000004FFFF3000000
000000000000BFFFB0000000
000000000003FFFF40000000
00000000000AFFFC00000000
00000000003FFFF400000000
0000000000AFFFB000000000
0000000004FFFF3000000000
000000000CFFF80000000000
000000007FFFD10000000000
00000002FFFF400000000000
0000001CFFF8000000000000
000000AFFFB0000000000000
000008FFFC10000000000000
00009FFFC100000000000000
002BFFFB1000000000000000
09FFFF700000000000000000
1CFD82000000000000000000
ENDCHAR
STARTCHAR K
ENCODING 75
SWIDTH 616 0
DWIDTH 22 0
BBX 26 27 -2 0
BITMAP
0000049CEEC6000000003DFB20
00005FFFFFFFB00000002FFFD0
00002DFB39FFF30000000CFFF4
000001300AFFF40000000DFFF5
000000000DFFF20000001FFFF3
000000001FFFF00000005FFFE0
000000003FFFD0000000CFFF70
000000007FFF90000008FFFC00
00000000AFFF6000005FFFD200
00000000EFFF200004FFFD2000
00000004FFFD00006FFFB10000
00000008FFF90008FFF8000000
0000000DFFF401BFFD40000000
0000002FFFE04EFF9100000000
0000007FFFA7FFE50000000000
000000DFFFEFFF400000000000
000003FFFE8FFFD20000000000
000009FFF808FFFD1000000000
00001EFFF200DFFFA000000000
00007FFFA0004FFFF600000000
0000DFFF30000BFFFE20000000
0007FFFB000003FFFFC0000000
001EFFF20000009FFFF9000000
00AFFF700000001EFFFF910000
08FFFB0000000004FFFFFEDB00
7FFFB100000000006FFFFFF800
5ED700000000000003AEEC5000
ENDCHAR
STARTCHAR L
ENCODING 76
SWIDTH 517 0
DWIDTH 19 0
BBX 22 27 -1 0
BITMAP
000000000000029DFD8100
0000000000008FFFFFFC10
00000000000AFFF713EF90
00000000008FFF60009FF1
0000000004FFFA00009FF3
000000000DFFF20000DFF3
000000007FFF900005FFF2
00000001EFFF20002EFFD0
00000007FFFB0001DFFF70
0000000DFFF5002DFFFE10
0000005FFFE005EFFFF500
000000BFFF800FFFFF8000
000001FFFF2009FFF70000
000007FFFB000057300000
00000CFFF5000000000000
00002FFFE0000000000000
00008FFF80000000000000
0000DFFF20000000000000
0004FFFA00000000000000
0009FFF200000000000000
001FFF9000000000000000
008FFE1000000000000000
02FFF50001356752000000
2CFF937BDFFFFFFF800000
AFFFEFFFFFFFFFFFF50000
8FFFFFFFEDCBCEFFFA0000
1CFDA74200000037D80000
ENDCHAR
STARTCHAR M
ENCODING 77
SWIDTH 931 0
DWIDTH 34 0
BBX 38 27 -4 0
BITMAP
000000000000000000028DFC3000000005BED3
0000000000000000007FFFFF80000001BFFFFA
00000000000000000AFFEFFF4000002DFFFFF6
0000000000000000AFF5DFFE000001DFF9FFF1
0000000000000008FF54FFF800000BFF5BFFB0
000000000000006FF80AFFF200008FF92FFF60
00000000000002EFD01FFFC00003FFD18FFF10
0000000000000CFF306FFF70000CFF40DFFB00
0000000000007FF900BFFF20006FFA04FFF600
000000000002FFE101FFFC0001EFE20AFFF100
00000000000AFF7006FFF70008FF701FFFB000
00000000004FFD000AFFF3002FFD106FFF6000
0000000000CFF5000DFFE0009FF600BFFF1000
0000000006FFC0002FFFA002FFD001FFFC0000
000000001DFF40005FFF7009FF5005FFF70000
000000007FFB00009FFF402FFC000AFFF30000
00000001EFF30000CFFF10AFF4000EFFE00000
00000009FFA00000EFFD02FFB0003FFFA00000
0000003FFF200001FFFB0AFF30006FFF700000
000000CFF8000002FFF92FFA00009FFF400000
000007FFE1000002FFF8AFF30000BFFF100000
00002EFF60000003FFFAFF900000DFFE000000
0000CFFC00000003FFFFFE200000DFFE000000
000AFFF200000002FFFFF7000000CFFF603800
01BFFF6000000001FFFFC00000009FFFFFFE00
8FFFF80000000000CFFE200000002EFFFFF600
5DEB5000000000003DD40000000003BEEC4000
ENDCHAR
STARTCHAR N
ENCODING 78
SWIDTH 708 0
DWIDTH 25 0
BBX 28 27 0 0
BITMAP
000000000003BED30000004DEB30
00000000006FFFF5000000DFFFE2
0000000006FFFFF30000005FFFF9
000000003FFFFFF10000000BFFFC
00000001DFEDFFD000000008FFFD
00000008FF6DFFC000000007FFFB
0000003FFC0EFFC000000008FFF8
000000AFF40FFFC00000000AFFF3
000003FFB00FFFC00000000DFFD0
00000AFF500FFFD00000003FFF70
00003FFD000FFFF00000008FFE10
00009FF7000EFFF1000000DFF700
0001EFF1000DFFF3000005FFE100
0006FFB0000BFFF500000BFF7000
000CFF600009FFF800003FFD0000
002FFF100007FFFA0000AFF50000
007FFB000004FFFE0002FFC00000
00CFF7000001FFFF2009FF400000
02FFF3000000CFFF601EFA000000
06FFE00000007FFFA07FF2000000
0AFFA00000003FFFF1DFA0000000
0DFF700000000DFFFBFF20000000
1FFF3000000007FFFFFA00000000
3FFF1000000001EFFFF400000000
4FFD00000000007FFFE000000000
3FFB00000000000BFFD000000000
08E70000000000019E8000000000
ENDCHAR
STARTCHAR O
ENCODING 79
SWIDTH 655 0
DWIDTH 24 0
BBX 23 27 2 0
BITMAP
0000000000038CEFEB600000
0000000003BFFFFFFFFC1000
000000007FFFF8213CFFC000
00000009FFFD300002FFF600
000000AFFFD2000000CFFB00
000008FFFE20000000AFFE00
00005FFFF3000000009FFF10
0001EFFF8000000000AFFF20
000AFFFD0000000000BFFF20
003FFFF40000000000EFFF00
00AFFFB00000000003FFFD00
02FFFF400000000007FFFA00
08FFFC00000000000CFFF700
0CFFF600000000002FFFF200
2FFFF100000000008FFFC000
5FFFB00000000001EFFF6000
8FFF700000000007FFFE0000
AFFF30000000001EFFF60000
CFFF10000000008FFFD00000
CFFE0000000003FFFF300000
BFFD000000001DFFF8000000
9FFE00000000AFFFA0000000
5FFF10000009FFFC10000000
1EFF700001AFFFB100000000
05FFF6126DFFF80000000000
006FFFFFFFFC400000000000
00029DEED940000000000000
ENDCHAR
STARTCHAR P
ENCODING 80
SWIDTH 553 0
DWIDTH 20 0
BBX 25 27 -2 0
BITMAP
000000000159BDEFEC95100000
00000004BFFFFFFFFFFFE60000
0000008FFFFFE941027EFFA000
000002FFFFE600000003FFF700
000001EFFA1000000000AFFE00
0000003B703DD40000008FFF30
0000000000DFFD0000008FFF40
0000000006FFFA000000BFFF30
000000000DFFF3000002FFFE10
000000005FFFC000000BFFFA00
00000000BFFF7000007FFFF300
00000002FFFF200006FFFF8000
00000007FFFB00019FFFFA0000
0000000CFFF5005DFFFF900000
0000003FFFF59EFFFFD5000000
0000008FFFFFFFFFC600000000
000000EFFFFFDB730000000000
000005FFFC0000000000000000
00000BFFF60000000000000000
00003FFFD00000000000000000
0000AFFF600000000000000000
0002FFFD000000000000000000
000BFFF4000000000000000000
005FFF80000000000000000000
03EFFB00000000000000000000
2EFFC100000000000000000000
1CE91000000000000000000000
ENDCHAR
STARTCHAR Q
ENCODING 81
SWIDTH 655 0
DWIDTH 24 0
BBX 24 33 2 -6
BITMAP
0000000000059DEFDA300000
0000000006DFFFFFFFF80000
00000002CFFFC5115EFF6000
0000003EFFF7000005FFE100
000003EFFF40000000FFF500
00002EFFF400000000DFF900
0000BFFF7000000000DFFB00
0006FFFB0000000000EFFC00
001EFFF20000000002FFFC00
007FFF900000000005FFFB00
00DFFF200000000009FFF800
04FFFA00000000000EFFF400
09FFF500000000005FFFE000
0CFFF10000000000BFFF8000
0FFFD00000000004FFFF2000
2FFFB0000000000CFFF90000
3FFFB0000000006FFFE10000
3FFFD000000002EFFF500000
2FFFF20000000CFFF9000000
0DFFFB000000AFFFB0000000
06FFFF600008FFFC10000000
00BFFF50009FFFC100000000
000694001AFFFB1000000000
00000005DFFF800000000000
000027DFFFD3000000000000
001BFFFFFFFD700000000000
002DFFFFFFFFFD5000000000
000000126CFFFFFA20000000
00000000004DFFFFE7000000
0000000000019FFFFFE7303A
00000000000005EFFFFFFFFD
0000000000000019FFFFFFF6
000000000000000017BDDB40
ENDCHAR
STARTCHAR R
ENCODING 82
SWIDTH 623 0
DWIDTH 22 0
BBX 24 28 -1 -1
BITMAP
00000000259BDEFFDA610000
0000004BFFFFFFFFFFFF8000
000008FFFFFB631025CFFB10
00000EFFFA200000000CFF90
000006FE507930000005FFF2
0000001106FFE1000003FFF6
000000001EFFF1000004FFF8
000000007FFFA0000007FFF6
00000000DFFF4000000DFFF4
00000004FFFD0000007FFFD0
0000000AFFF8000004FFFF50
0000001EFFF300005FFFFA00
0000006FFFD00019FFFFA000
000000BFFF7027EFFFF80000
000001FFFFBCFFFFFC400000
000007FFFFFFFFFB50000000
00000CFFF69FFF4000000000
00003FFFE00CFFD100000000
00009FFF7004FFFA00000000
0001EFFE1000BFFF40000000
0008FFF800004FFFC0000000
001EFFE100000CFFF6000000
008FFF60000005FFFE100000
03FFFC00000000CFFFA00000
1DFFE2000000003FFFFA2220
DFFE300000000006FFFFFF60
AEA10000000000005EFFF900
000000000000000000342000
ENDCHAR
STARTCHAR S
ENCODING 83
SWIDTH 474 0
DWIDTH 17 0
BBX 20 27 0 0
BITMAP
00000000017CEEDA5000
000000006EFFFFFFFB10
00000009FFF93129FFA0
0000008FFF500000CFF3
000004FFF70000009FF8
00000DFFD00000009FFA
00005FFF70000000DFFB
0000AFFF40000005FFF9
0000DFFF2000002EFFF5
0000FFFF200003DFFFD0
0000FFFF50002FFFFF50
0000DFFFA0001EFFF800
0000AFFFF30004AA4000
00005FFFFC0000000000
00000DFFFF7000000000
000004FFFFF300000000
0000008FFFFC00000000
0000000BFFFF50000000
00000001DFFFB0000000
002710004FFFF0000000
03EF60000AFFF1000000
0CFF500005FFF0000000
1FFF500005FFB0000000
2FFF900009FF40000000
0CFFF7128FF700000000
02EFFFFFFF6000000000
0018DFEC820000000000
ENDCHAR
STARTCHAR T
ENCODING 84
SWIDTH 471 0
DWIDTH 17 0
BBX 21 27 2 0
BITMAP
0028DFEEDB986421014B90
05EFFFFFFFFFFFFFFFFF80
2FFFFFFFFFFFFFFFFFFE20
8FFFD51015FFFDCDED9200
9FFD100009FFF300000000
5FF600001EFFD000000000
07B100006FFF9000000000
00000000BFFF4000000000
00000001FFFE0000000000
00000006FFFA0000000000
0000000BFFF60000000000
0000001FFFF20000000000
0000005FFFC00000000000
0000009FFF700000000000
000000EFFF300000000000
000003FFFD000000000000
000008FFF7000000000000
00000CFFF2000000000000
00002FFFB0000000000000
00008FFF50000000000000
0000EFFD00000000000000
0005FFF600000000000000
000DFFC000000000000000
007FFF3000000000000000
05FFF80000000000000000
6FFF900000000000000000
6ED6000000000000000000
ENDCHAR
STARTCHAR U
ENCODING 85
SWIDTH 624 0
DWIDTH 22 0
BBX 25 27 0 0
BITMAP
00000008DFD50000000004EC40
0000005FFFFF100000000DFFD0
00000008FFFF100000006FFF90
00000002FFFE00000000DFFF20
00000005FFFA00000007FFFA00
0000000AFFF40000001EFFF400
0000002FFFE00000007FFFD000
0000008FFF80000001EFFF7000
000001EFFF20000008FFFF1000
000006FFFA0000001EFFFB0000
00000DFFF30000009FFFF50000
00004FFFB0000002FFFFE10000
0000BFFF4000000AFFFFA00000
0002FFFC0000003FFFFF500000
0009FFF5000000CFFFFE000000
001EFFD0000006FFFFFA000000
006FFF7000001EFDFFF5000000
00CFFE1000009FE9FFF1000000
03FFF9000004FF6CFFC0000000
08FFF400001DFA1FFF80000000
0DFFE000009FD15FFF50000000
1FFFB00006FE307FFF30000000
3FFFA0006FF5009FFF20000000
4FFFE229FF60008FFF70370000
2FFFFFFFF600006FFFFFFB0000
09FFFFFD4000001EFFFFE30000
008DFD7100000003BEE9200000
ENDCHAR
STARTCHAR V
ENCODING 86
SWIDTH 587 0
DWIDTH 21 0
BBX 24 28 2 0
BITMAP
00000000000000000008EE60
00048CEEC4000000004FFFF5
02CFFFFFFF700000001DFFFC
09FFFFFFFFF200000006FFFE
03DFD832DFF800000003FFFE
00140007FFF800000003FFFC
0000002EFFF300000007FFF8
0000009FFFC00000001DFFF2
000002FFFF500000007FFFB0
00000AFFFD00000002FFFF30
00002FFFF50000000CFFF900
00009FFFC00000008FFFD100
0001FFFF50000005FFFE3000
0008FFFC0000003EFFF50000
000DFFF5000002DFFF600000
004FFFC000001CFFF7000000
00AFFF600001CFFF70000000
00EFFE00000BFFF700000000
04FFF80000AFFF6000000000
08FFF20009FFF50000000000
0CFFD0008FFE400000000000
0EFFA007FFE3000000000000
1FFF705FFE30000000000000
0FFF73FFE300000000000000
0DFF9DFE3000000000000000
08FFFFF40000000000000000
02EFFF500000000000000000
004DE7000000000000000000
ENDCHAR
STARTCHAR W
ENCODING 87
SWIDTH 941 0
DWIDTH 34 0
BBX 34 27 2 0
BITMAP
0015ADFE9100000000000000000006DE70
06EFFFFFFD2000000000000000008FFFF3
1FFFFFFFFFA000000000000000009FFFF8
08FFC625FFF100000000000000002FFFFB
0033000DFFF200000000000000000CFFFD
0000007FFFD0000000029930000009FFFD
000001EFFF700000007FFFE0000007FFFD
000008FFFE1000001BFFFF60000007FFFC
00002EFFF8000001CFFFF900000007FFFA
00008FFFE100001DFFFFC000000009FFF7
0001EFFF800001CFFFFF300000000BFFF3
0007FFFE10000CFFFFFA000000000EFFE0
000EFFF80000AFFFFFF3000000003FFFA0
005FFFE10007FFFFFFC0000000008FFF40
00BFFF80004FFFAFFF7000000000DFFD00
01FFFF2001EFF89FFF2000000005FFF600
06FFFA000BFFA0DFFE000000000CFFD000
0AFFF4006FFC02FFFA000000004FFF4000
0EFFD002EFE205FFF700000000DFF90000
3FFF800BFF4007FFF500000007FFD10000
5FFF405FF70008FFF30000003FFF400000
7FFF21EFA00008FFF2000001DFF6000000
7FFF18FD100006FFF200001CFF70000000
5FFF4FF3000004FFF40002CFF600000000
1EFFDF80000000DFFC227EFD4000000000
07FFFC000000005FFFFFFF910000000000
009ED20000000004CEEC82000000000000
ENDCHAR
STARTCHAR X
ENCODING 88
SWIDTH 552 0
DWIDTH 20 0
BBX 28 27 -2 0
BITMAP
000000000004CE2000000017CFD5
00000000005FFF10000003DFFFE6
0000000001FFFE0000004EFFFB20
0000000005FFFD000004FFFF7000
0000000006FFFB00002EFFE40000
0000000006FFFA0001DFFE300000
0000000005FFFA000AFFE3000000
0000000005FFFA006FFF50000000
0000000004FFFB03FFF600000000
0000000002FFFC1DFF9000000000
0000000000FFFC9FFC0000000000
0000000000EFFFFFE20000000000
0000000000BFFFFF400000000000
00000000008FFFF8000000000000
00000000006FFFC0000000000000
0000000000CFFFC0000000000000
0000000007FFFFF1000000000000
000000004FFFFFF5000000000000
00000002DFFAFFFA000000000000
0000001CFF92FFFE100000000000
000000BFFC00DFFF600000000000
00001BFFE2008FFFD00000000000
0001CFFE30002FFFF80000000000
002CFFF4000009FFFF7128100000
04EFFE40000001EFFFFFFE000000
9FFFD3000000003EFFFFF6000000
7EE9100000000002AEEB40000000
ENDCHAR
STARTCHAR Y
ENCODING 89
SWIDTH 580 0
DWIDTH 21 0
BBX 25 37 0 -10
BITMAP
00000019EFC40000000005EC30
0000007FFFFE000000001EFFC0
00000009FFFF000000007FFF80
00000003FFFC00000001EFFE10
00000006FFF800000008FFF800
0000000CFFF30000002FFFF200
0000003FFFC00000009FFFB000
000000AFFF60000002FFFF5000
000002FFFE1000000AFFFE1000
000008FFF80000003FFFF90000
00000EFFF2000000AFFFF40000
00006FFF90000004FFFFD00000
0000CFFF3000000CFFFF800000
0004FFFB0000005FFFFF300000
000BFFF4000000DFFFFC000000
002FFFC0000007FFFFF7000000
008FFF5000002EFEFFF2000000
00EFFE000000BFDDFFB0000000
04FFF8000005FF6FFF60000000
0AFFF200001EF88FFE10000000
0EFFD00000BFC1EFF900000000
3FFF900008FE26FFF300000000
5FFF90007FE30DFFC000000000
6FFFC12AFF405FFF6000000000
3FFFFFFFE400CFFD0000000000
0AFFFFFD3004FFF60000000000
018DFC70000DFFD00000000000
00000000007FFF400000000000
0000000002EFFA000000000000
000000000BFFE1000000000000
000000008FFF40000000000000
00000005FFF700000000000000
0000005FFFA000000000000000
000006FFFB0000000000000000
0002AFFFA00000000000000000
019FFFE7000000000000000000
01CEC810000000000000000000
ENDCHAR
STARTCHAR Z
ENCODING 90
SWIDTH 501 0
DWIDTH 18 0
BBX 23 27 -1 0
BITMAP
000005E9520012468BDFA100
000006FFFFFFFFFFFFFFFC10
000004FFFFFFFFFFFCCFFF60
000000DFFFFFFFE835FFFF50
00000029DFFC94004FFFFB00
0000000000000004FFFFE200
000000000000003EFFFE3000
00000000000002EFFFF40000
0000000000002DFFFF500000
000000000001DFFFF5000000
00000000001CFFFF50000000
0000000000BFFFF500000000
000000000AFFFF4000000000
000000008FFFF40000000000
00000007FFFF400000000000
0000005FFFF4000000000000
000003EFFF40000000000000
00001DFFF400000000000000
0000CFFF5000000000000000
0009FFF60000000000000000
005FFF800000000000000000
02EFFA000000000000000000
0AFFD10258ACEFEB20000000
3FFF79DFFFFFFFFFE1000000
6FFFFFFFFFFFFFFFF8000000
3FFFFFEA6321126DFC000000
08FD940000000001BB000000
ENDCHAR
STARTCHAR bracketleft
ENCODING 91
SWIDTH 396 0
DWIDTH 14 0
BBX 19 38 0 -6
BITMAP
0000000000005DFFED80
000000000000EFFFEA40
000000000005FFFC1000
00000000000AFFF20000
00000000001FFFB00000
00000000006FFF500000
0000000000BFFE000000
0000000001FFF9000000
0000000006FFF4000000
000000000CFFE0000000
000000002FFF80000000
000000007FFF30000000
00000000CFFD00000000
00000002FFF800000000
00000008FFF300000000
0000000DFFD000000000
0000003FFF7000000000
0000008FFF2000000000
000000DFFC0000000000
000004FFF70000000000
000009FFF20000000000
00000EFFC00000000000
00004FFF700000000000
00009FFF200000000000
0000EFFC000000000000
0005FFF7000000000000
000AFFF2000000000000
001EFFC0000000000000
005FFF60000000000000
00BFFF10000000000000
01FFFB00000000000000
06FFF600000000000000
0BFFF100000000000000
1FFFB000000000000000
7FFF6000000000000000
CFFF5000000000000000
FFFFFFC3000000000000
9EFFEDA2000000000000
ENDCHAR
STARTCHAR backslash
ENCODING 92
SWIDTH 464 0
DWIDTH 17 0
BBX 13 38 1 -6
BITMAP
4EA20000000000
3FFB0000000000
0EFF1000000000
0BFF5000000000
07FF8000000000
03FFC000000000
00EFF100000000
00AFF500000000
006FF900000000
003FFC00000000
000EFF10000000
000AFF50000000
0006FF90000000
0002FFC0000000
0000EFF1000000
0000AFF5000000
00006FF9000000
00002FFD000000
00000DFF100000
000009FF500000
000006FF900000
000002FFD00000
000000DFF20000
0000009FF50000
0000005FF90000
0000001FFD0000
0000000DFF2000
00000009FF6000
00000005FF9000
00000001FFD000
00000000CFF200
000000009FF600
000000005FF900
000000001FFD00
000000000CFF20
0000000008FF60
0000000003FF90
00000000007E80
ENDCHAR
STARTCHAR bracketright
ENCODING 93
SWIDTH 394 0
DWIDTH 14 0
BBX 20 38 -3 -6
BITMAP
0000000000004BDEFFD5
0000000000006DFFFFFA
0000000000000007FFF7
0000000000000008FFF2
000000000000000DFFC0
000000000000003FFF70
000000000000008FFF20
00000000000000DFFB00
00000000000003FFF600
00000000000008FFF100
0000000000000DFFB000
0000000000003FFF5000
0000000000009FFF1000
000000000000DFFA0000
000000000004FFF50000
000000000009FFE00000
00000000000EFF900000
00000000004FFF400000
00000000009FFE000000
0000000000EFF9000000
0000000004FFF4000000
0000000009FFD0000000
000000000EFF80000000
000000004FFF30000000
000000009FFD00000000
00000000EFF800000000
00000005FFF200000000
0000000AFFC000000000
0000001FFF7000000000
0000006FFF2000000000
000000BFFC0000000000
000002FFF60000000000
000007FFF10000000000
00000DFFB00000000000
00004FFF600000000000
0002DFFF100000000000
06BFFFFA000000000000
1BEFFEB2000000000000
ENDCHAR
STARTCHAR asciicircum
ENCODING 94
SWIDTH 540 0
DWIDTH 19 0
BBX 16 15 3 12
BITMAP
00000008F9000000
0000002FFF300000
000000AFFFA00000
000003FFFFF20000
00000CFFFFF90000
00005FFFBFFF2000
0000DFFA0CFF9000
0006FFE104FFF200
001EFF5000AFF800
008FFA00001EFE10
02EFE1000007FF80
09FF50000000CFE1
3FFA000000004FF7
9FD1000000000AFD
1630000000000172
ENDCHAR
STARTCHAR underscore
ENCODING 95
SWIDTH 530 0
DWIDTH 19 0
BBX 24 3 -6 -6
BITMAP
1AEFFFFFFFFFFFFFFFFFFFFB
9FFFFFFFFFFFFFFFFFFFFFFC
9FFFFFFFFFFFFFFFFFFFFFC2
ENDCHAR
STARTCHAR grave
ENCODING 96
SWIDTH 219 0
DWIDTH 8 0
BBX 6 9 1 19
BITMAP
07DE40
7FFF60
AFFF50
8FFF40
4FFF40
0CFF60
03FFB0
005FF3
000271
ENDCHAR
STARTCHAR a
ENCODING 97
SWIDTH 541 0
DWIDTH 20 0
BBX 19 18 1 0
BITMAP
000000028DFD811BEB10
0000008FFFFFFCBFFF60
00001BFFE612CFFFFD00
0001CFFD20005FFFF600
000BFFE200005FFFE000
007FFF500000BFFF7000
02FFFC000001FFFE1000
09FFF5000007FFF80000
1FFFD000000DFFF20000
5FFF9000006FFFB00000
9FFF500001EFFF500000
BFFF300009FFFF100000
CFFF20004FFFFD000000
CFFF2002EFAFFE000000
9FFF604EF99FFF97B400
4FFFFDFFC17FFFFFF200
09FFFFFC101EFFFF7000
007DFD700002ADA40000
ENDCHAR
STARTCHAR b
ENCODING 98
SWIDTH 525 0
DWIDTH 19 0
BBX 17 30 1 0
BITMAP
000000066000000000
0000007FF900000000
000000AFFE00000000
000000DFFD00000000
000001FFFA00000000
000005FFF700000000
000008FFF300000000
00000CFFD000000000
00002FFF8000000000
00006FFF3000000000
0000AFFD0000000000
0000EFF80000000000
0004FFF205BEEC5000
0009FFC1BFFFFFF600
000EFF6CFB22EFFE10
004FFEBFA0009FFF50
009FFFFB00008FFF80
00EFFFE100008FFF90
04FFFF5000009FFF80
09FFFB000000CFFF70
0DFFF3000001FFFF40
2FFFA0000005FFFE00
5FFF4000000BFFF800
7FFE0000003FFFF200
8FFB000000CFFF7000
8FF9000009FFFB0000
5FFB00019FFFC10000
1EFF747DFFFA100000
04EFFFFFFE60000000
0029DFEB6100000000
ENDCHAR
STARTCHAR c
ENCODING 99
SWIDTH 465 0
DWIDTH 17 0
BBX 16 18 1 0
BITMAP
000000038CEEC700
000001AFFFFFFF90
00003EFFE612EFF3
0004EFFE2000CFF6
002EFFF30001FFF7
00BFFF700008FFF4
05FFFD00006FFFD0
0CFFF60000EFFF60
3FFFE100007FF800
7FFFA00000012000
AFFF600000000000
BFFF400000000000
CFFF300000000000
AFFF400000078000
6FFF8000007FA000
1EFFF6115CFF3000
03EFFFFFFFD30000
0028DEFDA5000000
ENDCHAR
STARTCHAR d
ENCODING 100
SWIDTH 557 0
DWIDTH 20 0
BBX 23 30 1 0
BITMAP
000000000000000000037300
0000000000000000003EFF40
000000000000000000BFFF10
000000000000000003FFFA00
00000000000000000AFFF300
00000000000000001FFFD000
00000000000000006FFF7000
0000000000000000BFFF2000
0000000000000001FFFB0000
0000000000000006FFF60000
000000000000000BFFF10000
000000000000001FFFB00000
000000005BEEB45FFF600000
0000003CFFFFFFDFFF100000
000005FFFA307FFFFB000000
00006FFF70000DFFF6000000
0004FFF700000CFFF1000000
001DFFB000001FFFB0000000
00AFFF3000006FFF70000000
03FFF9000000CFFF20000000
0AFFF3000004FFFD00000000
1EFFD000000BFFF900000000
4FFF9000005FFFF500000000
6FFF700001DFFFF100000000
7FFF60000AFFFFD000000000
7FFF70008FFDFFA000000000
5FFFB019FF6BFFC127100000
1EFFFEFFF909FFFFFF100000
07FFFFFF8003FFFFF7000000
005CEEA300005DFC50000000
ENDCHAR
STARTCHAR e
ENCODING 101
SWIDTH 471 0
DWIDTH 17 0
BBX 16 18 1 0
BITMAP
000000017CEEC600
0000007EFFFFFF70
00001BFFE517FFF1
0001BFFE2002FFF5
0009FFF40003FFF6
005FFFB00008FFF5
01EFFF30002EFFF1
07FFFB0002DFFF80
0DFFF6004EFFFB00
3FFFF25BFFFF8000
6FFFFFFFFF920000
8FFFEBA841000000
8FFF600000000000
6FFF700000017100
2FFFB000002CF400
0AFFF71149FFF200
01CFFFFFFFFD4000
0006CEFEC9500000
ENDCHAR
STARTCHAR f
ENCODING 102
SWIDTH 393 0
DWIDTH 14 0
BBX 21 34 -1 -5
BITMAP
00000000000007CEEC5000
000000000002DFFFFFF700
00000000001DFFC23FFF10
00000000008FFE200EFF50
0000000002FFF8003FFF50
0000000008FFF201CFFF20
000000000DFFC00BFFFC00
000000004FFF700AFFE300
000000008FFF2001782000
00000000DFFC0000000000
00000002FFF80000000000
00000007FFF30000000000
0000000CFFE00000000000
0000002FFFEDFEB4000000
00005BFFFFFFFFFF300000
000AFFFFFFFFFFFE300000
001EFDFFFB210000000000
000115FFF6000000000000
00000AFFF2000000000000
00000EFFC0000000000000
00004FFF80000000000000
00008FFF40000000000000
0000DFFE00000000000000
0003FFFA00000000000000
0007FFF600000000000000
000CFFF100000000000000
002FFFB000000000000000
008FFF6000000000000000
00DFFF1000000000000000
04FFFA0000000000000000
0BFFF40000000000000000
3FFFC00000000000000000
9FFF500000000000000000
7EE7000000000000000000
ENDCHAR
STARTCHAR g
ENCODING 103
SWIDTH 526 0
DWIDTH 19 0
BBX 19 28 1 -10
BITMAP
000000018CEEA2000000
0000007EFFFFFE1BF900
00001BFFE613CFDFFF20
0001CFFE30001DFFFB00
000BFFF500000CFFF500
007FFFA000002FFFE000
01EFFF2000006FFF9000
08FFFA000000CFFF4000
0EFFF4000004FFFE0000
4FFFE000000AFFFA0000
7FFFB000003FFFF50000
9FFF700000CFFFF10000
AFFF500006FFFFB00000
9FFF50002EFFFF700000
6FFF6001DFEFFF200000
1FFFC14DFABFFC000000
07FFFFFF91FFF7000000
006CEDA305FFF1000000
000000000CFFA0000000
000000003FFF30000000
00000000AFFB00000000
00000004FFF300000000
0000001DFF9000000000
000000CFFD1000000000
00001BFFE30000000000
0005EFFE400000000000
06EFFFD3000000000000
04DFD710000000000000
ENDCHAR
STARTCHAR h
ENCODING 104
SWIDTH 555 0
DWIDTH 20 0
BBX 19 30 0 0
BITMAP
00000000066100000000
000000006FFC00000000
00000000AFFF30000000
00000000DFFF10000000
00000000FFFE00000000
00000003FFFA00000000
00000007FFF700000000
0000000AFFF300000000
0000000EFFD000000000
0000003FFF9000000000
0000007FFF4000000000
000000BFFE0000000000
000001FFF90017DEC400
000005FFF401CFFFFF20
000009FFD01CFFFFFF70
00000EFF80AFC37FFF70
00004FFF27FB108FFF50
00009FFC5FC100DFFF10
0000EFF8EE2006FFFA00
0005FFFDF4000DFFF300
000AFFFF70005FFFB000
001FFFFA0000CFFF4000
007FFFD10003FFFC0000
00EFFF300008FFF60000
06FFFA00000CFFF10000
0CFFF200000FFFD00000
5FFFA000001FFFE12800
CFFF3000000EFFFFFE00
EFFB00000008FFFFF600
4CE3000000008EFC4000
ENDCHAR
STARTCHAR i
ENCODING 105
SWIDTH 286 0
DWIDTH 10 0
BBX 11 27 1 0
BITMAP
0000008EEA10
000008FFFF80
00000BFFFF80
000008FFFF30
000001CFF600
000000031000
000000000000
000000000000
000000000000
0007DFE90000
001FFFFF1000
0005FFFF0000
0002FFFB0000
0005FFF60000
000AFFE10000
001EFF900000
007FFF200000
00DFFB000000
05FFF4000000
0BFFC0000000
2FFF60000000
7FFF10000000
CFFC00000000
FFFC00000000
EFFFFF800000
AFFFFF300000
1AEEB4000000
ENDCHAR
STARTCHAR j
ENCODING 106
SWIDTH 281 0
DWIDTH 10 0
BBX 18 37 -7 -10
BITMAP
00000000000008EEA1
0000000000008FFFF8
000000000000BFFFF9
0000000000008FFFF4
0000000000001BFF70
000000000000003100
000000000000000000
000000000000000000
000000000000000000
000000000019EFD400
00000000007FFFFB00
00000000000CFFFA00
000000000008FFF900
000000000008FFF700
00000000000AFFF400
00000000000CFFF100
00000000000FFFD000
00000000003FFF9000
00000000007FFF5000
0000000000BFFF1000
0000000000EFFC0000
0000000004FFF70000
0000000009FFF20000
000000000EFFB00000
000000005FFF600000
00000000BFFE000000
00000002FFF8000000
00000009FFE1000000
0000002FFF80000000
0000009FFE10000000
000003FFF600000000
00000CFFB000000000
00007FFE2000000000
0005FFF40000000000
006FFF500000000000
1CFFD4000000000000
1DE810000000000000
ENDCHAR
STARTCHAR k
ENCODING 107
SWIDTH 497 0
DWIDTH 18 0
BBX 19 30 0 0
BITMAP
00000000066000000000
000000006FF900000000
00000000AFFF00000000
00000000DFFD00000000
00000000FFFB00000000
00000003FFF800000000
00000007FFF500000000
0000000AFFF100000000
0000000EFFC000000000
0000003FFF8000000000
0000007FFF3000000000
000000BFFD0000000000
000001FFF80007EFC300
000005FFF3000AFFFE00
000009FFD00001FFFF20
00000EFF800004FFFE00
00004FFF20001DFFF800
00009FFC0002DFFFC100
0000EFF7006EFFF91000
0005FFF15CFFFC400000
000AFFEDFFFB40000000
001FFFFFFE2000000000
007FFFEFFF4000000000
00EFFE4FFFA000000000
06FFF80CFFF400000000
0CFFF205FFFD20000000
5FFF9000CFFFD4147000
CFFF20003FFFFFFFB000
EFFA000005FFFFFE3000
4DD20000003BEEA20000
ENDCHAR
STARTCHAR l
ENCODING 108
SWIDTH 279 0
DWIDTH 10 0
BBX 11 30 1 0
BITMAP
000000047200
0000002FFE30
0000004FFF80
0000006FFF70
0000009FFF40
000000CFFF10
000001FFFC00
000004FFF800
000008FFF300
00000CFFD000
00001FFF9000
00006FFF4000
0000BFFE0000
0001FFF80000
0005FFF30000
000AFFD00000
001FFF800000
006FFF300000
00BFFD000000
01FFF7000000
06FFF3000000
0BFFD0000000
1FFF80000000
5FFF40000000
9FFF10000000
CFFD00000000
DFFE12600000
BFFFFFE00000
4FFFFF700000
06DFC4000000
ENDCHAR
STARTCHAR m
ENCODING 109
SWIDTH 814 0
DWIDTH 29 0
BBX 28 18 0 0
BITMAP
00007DFC300006CEC300002AED70
0001FFFFD000AFFFFD0005FFFFF7
00006FFFE00AFFFFFF205FFFFFFC
00002FFFB08FF71DFF13EF62FFFD
00005FFF65FE400EFC1EF502FFFB
00009FFE4EE4004FF8CF7008FFF6
0000EFFADF5000AFFAFA001EFFE1
0004FFFCF70002FFFFD1008FFF80
000AFFFF900009FFFF3001EFFE10
001FFFFB00001EFFF60007FFF800
007FFFD100008FFFB0000DFFF100
00DFFF400001EFFF20003FFFA000
05FFFB000007FFF800007FFF4000
0BFFF300000DFFF100009FFF1000
4FFFB000005FFF900000AFFF3272
BFFF400000AFFF2000008FFFFFF2
DFFC000000CFFB0000002FFFFF80
3CE30000003CE300000004DFC600
ENDCHAR
STARTCHAR n
ENCODING 110
SWIDTH 561 0
DWIDTH 20 0
BBX 19 18 0 0
BITMAP
00007DFC200006DFC500
0001FFFFC001BFFFFF40
00006FFFD00BFFFFFFA0
00002FFFA0AFD34FFFB0
00005FFF57FD104FFF90
00009FFE4FE200AFFF50
0000EFFAEF3002FFFD00
0004FFFDF5000AFFF700
000AFFFF80002FFFE100
001FFFFB00008FFF8000
007FFFD10000EFFF1000
00DFFF400004FFF90000
05FFFB000008FFF40000
0BFFF300000BFFF00000
4FFFB000000CFFE12720
BFFF4000000BFFFFFF20
DFFC00000005FFFFF900
3CE3000000005DFD6000
ENDCHAR
STARTCHAR o
ENCODING 111
SWIDTH 514 0
DWIDTH 19 0
BBX 17 18 1 0
BITMAP
000000039DEEC60000
000001AFFFFFFFA000
00003EFFF714FFF600
0003EFFF4000BFFD00
001DFFF60000AFFF20
009FFFB00000AFFF40
03FFFF300000CFFF30
0AFFFA000001FFFF10
1FFFF3000005FFFD00
5FFFD000000AFFF900
8FFF8000002FFFF400
AFFF5000009FFFC000
AFFF300003FFFF3000
9FFF20000CFFF80000
6FFF4000AFFFB00000
1EFFA13BFFFA100000
04EFFFFFFE70000000
0029DFEC7100000000
ENDCHAR
STARTCHAR p
ENCODING 112
SWIDTH 550 0
DWIDTH 20 0
BBX 22 28 -3 -10
BITMAP
0000004CFD50005BEEB400
000000DFFFF12CFFFFFF40
0000002EFFF3EFC32DFFD0
0000000CFFDDFA0008FFF3
0000000EFFFFC00006FFF6
0000003FFFFE100007FFF7
0000006FFFF5000008FFF6
000000AFFFB000000BFFF4
000000EFFF3000001FFFF1
000003FFFB0000006FFFB0
000007FFF5000000DFFF40
00000BFFE0000006FFFC00
00000EFFC000001EFFF300
00004FFFB00000BFFF6000
00008FFFD0001BFFF80000
0000CFFFFA57EFFF700000
0002FFFAFFFFFFD4000000
0006FFF15CFEB500000000
000AFFC000000000000000
001EFF8000000000000000
005FFF3000000000000000
00AFFE0000000000000000
01EFF90000000000000000
06FFF40000000000000000
0CFFE00000000000000000
3FFF800000000000000000
7FFF200000000000000000
1CE6000000000000000000
ENDCHAR
STARTCHAR q
ENCODING 113
SWIDTH 533 0
DWIDTH 19 0
BBX 19 28 1 -10
BITMAP
000000006BEEB3000000
0000004DFFFFFF36C910
000008FFF9218FFFFF70
00009FFF50000EFFFF30
0006FFF600000EFFFC00
003FFFA000004FFFF600
00DFFF2000009FFFE000
06FFF8000000EFFF8000
0CFFF2000006FFFF2000
2FFFC000000DFFFA0000
5FFF9000007FFFF40000
7FFF600002EFFFD00000
8FFF50000CFFFF700000
7FFF60009FDFFF100000
4FFFB01AFF9FFA000000
0EFFFEFFF6DFF5000000
05FFFFFF54FFE1000000
005CEE920AFFA0000000
000000001FFF50000000
000000005FFF10000000
00000000AFFC00000000
00000000EFF800000000
00000002FFF500000000
00000004FFF300000000
00000005FFF300000000
00000003FFF300000000
00000000DFF600000000
000000003CE500000000
ENDCHAR
STARTCHAR r
ENCODING 114
SWIDTH 407 0
DWIDTH 15 0
BBX 17 18 0 0
BITMAP
0001AEE800007DE800
0007FFFF5009FFFF20
0000BFFF708FFFFF30
00007FFF45FFFFFE10
00009FFF2EF718E500
0000CFFA9F60000000
0001FFF7F800000000
0005FFFCC000000000
000AFFFF2000000000
000EFFF80000000000
005FFFE10000000000
00BFFF600000000000
01FFFE000000000000
07FFF7000000000000
0DFFF1000000000000
4FFFA0000000000000
5FFF40000000000000
07EB00000000000000
ENDCHAR
STARTCHAR s
ENCODING 115
SWIDTH 423 0
DWIDTH 15 0
BBX 16 18 0 0
BITMAP
00000039DEFD9300
000008FFFFFFFF50
00007FFD414EFFE1
0002FFF50007FFF4
0007FFF30005FFF1
0007FFF70006FF60
0006FFFE10004200
0001FFFFA0000000
00009FFFF6000000
00001EFFFE200000
000005FFFFB00000
0000009FFFF20000
0393001DFFF50000
2EF80007FFF50000
8FFC0006FFF10000
7FFFA35EFF800000
1CFFFFFFF7000000
017CEFD920000000
ENDCHAR
STARTCHAR t
ENCODING 116
SWIDTH 358 0
DWIDTH 13 0
BBX 13 23 2 0
BITMAP
0000001CE70000
0000009FFF0000
000003FFFB0000
00000AFFF40000
00003FFFC00000
03DFFFFFFFFFE0
05CEFFFFFEC930
0009FFF4000000
000EFFE0000000
004FFF80000000
009FFF30000000
00DFFD00000000
02FFF800000000
06FFF400000000
0AFFE000000000
0DFFB000000000
1FFF8000000000
3FFF5000000000
4FFF40004A0000
3FFF8029FD0000
1EFFFFFFF50000
08FFFFFE500000
007DFD92000000
ENDCHAR
STARTCHAR u
ENCODING 117
SWIDTH 553 0
DWIDTH 20 0
BBX 20 18 0 0
BITMAP
00005CFD600000007EC3
0000EFFFF1000003FFF9
00003FFFF100000CFFF3
00001FFFE000006FFFB0
00005FFF900001EFFF40
0000AFFF400008FFFC00
0002FFFD00002FFFF500
0008FFF80000BFFFD000
001EFFF10005FFFF7000
007FFFA0002EFFFF1000
00DFFF3000BFDFFA0000
04FFFB0008FBBFF50000
0AFFF4006FD2FFF10000
0EFFD005FE35FFE00000
1FFFC17FF508FFF21600
1FFFFFFF5009FFFFFE00
0BFFFFE50005FFFFF700
01AEE92000007EEC5000
ENDCHAR
STARTCHAR v
ENCODING 118
SWIDTH 510 0
DWIDTH 18 0
BBX 17 18 1 0
BITMAP
0004CFE600006DEA00
000DFFFF2001EFFF70
0002FFFF30007FFFC0
0000FFFF00002FFFE0
0004FFFA00000FFFD0
0009FFF500000EFFB0
001EFFD000000FFF80
007FFF7000003FFF40
00DFFE1000009FFD00
05FFF8000000EFF600
0BFFF1000007FFC000
2FFFA000002FFF3000
7FFF400001CFF60000
BFFF00001BFF800000
DFFF1004DFF7000000
DFFFCADFFE50000000
7FFFFFFF9100000000
07DFEB720000000000
ENDCHAR
STARTCHAR w
ENCODING 119
SWIDTH 750 0
DWIDTH 27 0
BBX 26 18 1 0
BITMAP
0019EFC30000000000001AEE50
007FFFFE0000006870005FFFF2
0009FFFF000008FFF3000DFFF6
0000FFFC00002FFFE10007FFF7
0002FFF800009FFF700005FFF7
0006FFF30002FFFE100003FFF5
000BFFD0000BFFF8000004FFF2
001FFF70005FFFE1000006FFD0
007FFF1001EFFFA0000009FF80
00DFFA000BFFFF4000000EFF20
04FFF4007FFFFF1000006FF900
0AFFD004FE9FFC000000DFE100
1EFF703EF49FFB000008FF5000
5FFF23EF709FFC00006FF80000
9FFE6EF8008FFF3018FFA00000
BFFFFF80004FFFEBEFF9000000
8FFFF600000CFFFFFE50000000
1CEA200000019EFC8100000000
ENDCHAR
STARTCHAR x
ENCODING 120
SWIDTH 467 0
DWIDTH 17 0
BBX 20 18 -1 0
BITMAP
0000004CD0000007DFC3
000005FFE00002CFFFC3
00000DFFE0003EFFE600
00000FFFF003EFFC2000
00000FFFF11DFFB10000
00000EFFF2AFFA000000
00000BFFF9FFA0000000
000008FFFFFB00000000
000004FFFFC100000000
000000EFFF4000000000
000000CFFF7000000000
000008FFFFC000000000
00006FFFFFF200000000
0005FFC6FFFA00000000
006FFE21EFFF71370000
09FFE3006FFFFFFC0000
AFFE40000AFFFFF40000
6EB20000008EEB300000
ENDCHAR
STARTCHAR y
ENCODING 121
SWIDTH 549 0
DWIDTH 20 0
BBX 19 28 1 -10
BITMAP
0003CFE800000005ED50
000BFFFF4000001EFFC0
0001EFFF4000009FFF70
0000DFFF200003FFFF10
0002FFFC00000BFFFB00
0007FFF700004FFFF600
000DFFF10000CFFFF100
005FFFA00006FFFFA000
00CFFF40001EFFFF5000
04FFFC00009FFFFE0000
0BFFF50006FEFFF90000
2FFFD0003FF8FFF40000
7FFF7002EF6AFFD00000
CFFF102DF91EFF800000
EFFE15EFB05FFF200000
DFFFFFFC10AFFB000000
9FFFFF9101FFF5000000
19EEB40007FFD0000000
000000000EFF60000000
000000006FFD00000000
00000001EFF500000000
0000000AFFB000000000
0000008FFE2000000000
000007FFF40000000000
00009FFF700000000000
005CFFF8000000000000
0BFFFE60000000000000
02AB8100000000000000
ENDCHAR
STARTCHAR z
ENCODING 122
SWIDTH 430 0
DWIDTH 15 0
BBX 17 18 0 0
BITMAP
00009D84100028EA00
0000BFFFFEDDFFFF50
00006FFFFFFEDFFF70
000004898644EFFE20
00000000005FFFF500
0000000008FFFF6000
00000001AFFFE50000
0000001CFFFE300000
000002DFFFC2000000
00003EFFFA10000000
0003EFFF8000000000
002EFFF60000000000
01CFFF600000000000
09FFF7000000000000
4FFFB48BCEC8100000
BFFFFFFFFFFFA00000
BFFFFFDBCEFFF10000
1BEA5000015BE10000
ENDCHAR
STARTCHAR braceleft
ENCODING 123
SWIDTH 424 0
DWIDTH 15 0
BBX 19 38 1 -6
BITMAP
00000000000005CFFE80
0000000000007FFFFF80
000000000003FFFD4000
00000000000BFFF40000
00000000002FFFB00000
00000000007FFF500000
0000000000BFFF100000
0000000000FFFB000000
0000000004FFF7000000
0000000008FFF3000000
000000000CFFE0000000
000000002FFFA0000000
000000007FFF50000000
00000000DFFE10000000
00000007FFF800000000
0000004FFFE100000000
000017EFFF5000000000
001DFFFFF70000000000
007FFFEA300000000000
002BFF80000000000000
0001EFF5000000000000
0000BFFB000000000000
0000BFFC000000000000
0000DFFC000000000000
0001FFFA000000000000
0006FFF6000000000000
000BFFF1000000000000
002FFFA0000000000000
008FFF40000000000000
00DFFD00000000000000
03FFF800000000000000
08FFF300000000000000
0CFFE000000000000000
0FFFB000000000000000
2FFFA000000000000000
1FFFD100000000000000
0CFFFFC0000000000000
02AEFE80000000000000
ENDCHAR
STARTCHAR bar
ENCODING 124
SWIDTH 306 0
DWIDTH 11 0
BBX 4 38 4 -6
BITMAP
06E6
3FFA
7FFB
8FFB
8FFB
8FFB
8FFB
8FFB
8FFB
8FFB
8FFB
8FFB
8FFB
8FFB
8FFB
8FFB
8FFB
8FFB
8FFB
8FFB
8FFB
8FFB
8FFB
8FFB
8FFB
8FFB
8FFB
8FFB
8FFB
8FFB
8FFB
8FFB
8FFB
8FFB
8FFB
8FFA
7FF7
4E90
ENDCHAR
STARTCHAR braceright
ENCODING 125
SWIDTH 424 0
DWIDTH 15 0
BBX 19 38 -3 -6
BITMAP
0000000000002CEEC600
0000000000004EFFFF50
000000000000006FFF90
000000000000002FFFA0
000000000000003FFF80
000000000000006FFF50
00000000000000AFFF10
00000000000001FFFB00
00000000000005FFF600
0000000000000BFFF100
0000000000002FFFA000
0000000000008FFF4000
000000000000DFFE0000
000000000002FFF90000
000000000004FFF60000
000000000005FFF40000
000000000003FFF40000
000000000000CFF80000
0000000000002CFF7000
000000000007CEFFE000
0000000001CFFFFF7000
000000000CFFFC400000
000000007FFFB0000000
00000001EFFE10000000
00000007FFF700000000
0000000DFFE100000000
0000002FFF9000000000
0000007FFF4000000000
000000AFFF1000000000
000000EFFB0000000000
000003FFF80000000000
000007FFF40000000000
00000CFFE00000000000
00003FFF900000000000
0000BFFF300000000000
0018FFFB000000000000
2DFFFFE1000000000000
2CEFEA20000000000000
ENDCHAR
STARTCHAR asciitilde
ENCODING 126
SWIDTH 624 0
DWIDTH 22 0
BBX 20 7 2 9
BITMAP
00005BEEC500000000C8
001BFFFFFFB1000006FA
01DFFFFFFFFB10003EF5
0CFE513CFFFFC215EFC0
5FF30001CFFFFFFFFD10
AF7000001BFFFFFFB100
9C000000006CEEB50000
ENDCHAR
STARTCHAR nonbreakingspace
ENCODING 160
SWIDTH 293 0
DWIDTH 11 0
BBX 1 1 0 0
BITMAP
00
ENDCHAR
STARTCHAR exclamdown
ENCODING 161
SWIDTH 417 0
DWIDTH 15 0
BBX 13 28 1 -8
BITMAP
000000009EE800
00000008FFFF70
0000000DFFFFB0
0000000DFFFF80
00000003AEFA10
00000000000000
00000000100000
0000002DB00000
000001DF900000
00000AFF300000
00004FFC000000
0000CFF7000000
0005FFF2000000
000DFFC0000000
005FFF70000000
00BFFF30000000
02FFFD00000000
08FFF900000000
0DFFF500000000
3FFFF200000000
7FFFD000000000
AFFFA000000000
DFFF7000000000
FFFF4000000000
FFFF2000000000
CFFF0000000000
5FFD0000000000
07E80000000000
ENDCHAR
STARTCHAR cent
ENCODING 162
SWIDTH 487 0
DWIDTH 18 0
BBX 16 27 2 0
BITMAP
0000000000005DE4
000000000004FFE1
00000000000CFF60
00000000004FFC00
00000000009FF300
000000027BFFE200
0000019FFFFFFE30
00002DFFFA58FFB0
0002DFFF6000FFF0
000CFFF80003FFF1
007FFFC0000AFFF0
01EFFF40009FFFA0
07FFFC0000FFFE20
0CFFF600005ED400
1FFFF20000000000
3FFFE00000000000
4FFFC00000000000
4FFFB00000000000
2FFFC00000059000
0DFFF200006FF000
07FFFC313AFFA000
009FFFFFFFF80000
0005FFFEC8200000
0004FF6000000000
0009FE0000000000
000CF80000000000
000BE30000000000
ENDCHAR
STARTCHAR sterling
ENCODING 163
SWIDTH 665 0
DWIDTH 24 0
BBX 26 27 -1 0
BITMAP
0000000000000000028DFEB300
00000000000000006EFFFFFF30
0000000000000007FFF913EFB0
000000000000005FFFA0009FF2
00000000000001EFFE10008FF4
00000000000009FFF70000AFF5
0000000000003FFFE10002FFF3
000000000000AFFF80000BFFF0
000000000002FFFF20009FFFA0
000000000009FFFB001AFFFF30
00000000001EFFF500DFFFF900
00000000006FFFE100EFFFC000
0000000000CFFFA0004EFA1000
0000000002FFFF400000200000
00000059DFFFFFFFD810000000
000005FFFFFFFFFFFF80000000
000001877FFFE0001210000000
000000008FFF90000000000000
00000000DFFF30000000000000
00000004FFFC00000000000000
006CEEDDFFF500000000000000
0AFFFFFFFFF300000000000000
6FF501BFFFFF810000002D4000
BFA003FFFFFFFE831026EF7000
CFD13DFFF68FFFFFFFFFFF4000
6FFFFFFE5002AFFFFFFFF90000
05CEEC710000028CEFEB500000
ENDCHAR
STARTCHAR currency
ENCODING 164
SWIDTH 572 0
DWIDTH 21 0
BBX 20 23 2 1
BITMAP
0000006E500000000000
000001EF900000001672
000005FFB0000004EFFB
000005FFD000004EFFC2
000002FFFBEFD9EFFA10
000000DFFFFFFFFF9000
000005FFFC31CFFC0000
00005FFFC1006FFF2000
0002EFFE20004FFF5000
000BFFF600005FFF7000
004FFFD000008FFF7000
00AFFF600000CFFF5000
00EFFF100002FFFF1000
01FFFC000008FFFB0000
02FFFA00001EFFF30000
01FFF90000AFFF900000
00DFFA0007FFFB100000
008FFE318FFFD1000000
03EFFFFFFFFFE0000000
1DFD6CEED86FF4000000
9FD20000000BFA000000
BE2000000003FD000000
01000000000054000000
ENDCHAR
STARTCHAR yen
ENCODING 165
SWIDTH 583 0
DWIDTH 21 0
BBX 24 27 2 0
BITMAP
04CFC400000000000005CEB3
4FFFFF5000000000009FFFF8
DFFFFFE1000000000AFFFFA1
413EFFF8000000009FFFF900
0004FFFE00000007FFFF8000
00009FFF4000004FFFF80000
00002FFF800001DFFF900000
00000AFFD0000AFFFB000000
000003FFF1004FFFD1000000
000000CFF400DFFE20000000
0000007FF707FFF600000000
0000002FF91EFFA000000000
0000000EFB9FFE1000000000
0000000AFEFFF50000000000
00000008FFFFC00000000000
0003777BFFFFA77400000000
004FFFFFFFFFFFF400000000
004BDEFFFFFDB72000000000
0000000DFFD0000000000000
0000002FFF70000000000000
03CFFFFFFFFFFF4000000000
0AFFFFFFFFFFFB1000000000
014678FFFA75200000000000
000005FFF100000000000000
000009FFC000000000000000
00000CFF8000000000000000
00000AFC1000000000000000
ENDCHAR
STARTCHAR brokenbar
ENCODING 166
SWIDTH 292 0
DWIDTH 11 0
BBX 5 38 3 -6
BITMAP
02CD00
0BFF20
0FFF30
1FFF30
1FFF30
1FFF30
1FFF30
1FFF30
1FFF30
1FFF30
1FFF30
1FFF30
1FFF30
1FFF30
1FFF20
0FFD00
0CD300
000000
000000
000000
000000
02CD00
0BFF20
0FFF30
1FFF30
1FFF30
1FFF30
1FFF30
1FFF30
1FFF30
1FFF30
1FFF30
1FFF30
1FFF30
1FFF30
1FFF20
0FFD00
0CD300
ENDCHAR
STARTCHAR section
ENCODING 167
SWIDTH 583 0
DWIDTH 21 0
BBX 22 37 0 -8
BITMAP
0000000000004ADFEC7000
00000000001BFFFFFFFD20
0000000001DFFF7117FFC0
000000000AFFF60000BFF5
000000002FFFD000008FF9
000000007FFF800000BFFB
00000000AFFF700005FFFA
00000000BFFF70005FFFF6
00000000AFFFB006FFFFD1
000000007FFFF109FFFE30
000000003FFFF701BDA200
000000000CFFFD00000000
000000027DFFFF60000000
0000008FFFFFFFD0000000
00000AFFF87FFFF7000000
00007FFF500CFFFE100000
0001EFFB0003FFFF600000
0006FFF60000BFFFC00000
0009FFF500003FFFF30000
000AFFF700000CFFF70000
0008FFFB000007FFFA0000
0005FFFF200004FFFA0000
0001FFFFA00003FFF80000
0000AFFFF40006FFF30000
00003FFFFC002EFF900000
000009FFFFB9EFFA000000
000001EFFFFFFE60000000
0000005FFFFB4000000000
0000000AFFFB0000000000
00650002FFFE0000000000
0CFE0000BFFF1000000000
6FFC00007FFF0000000000
BFFD00007FFC0000000000
CFFF1000BFF60000000000
9FFFB117FFC00000000000
1CFFFFFFFB100000000000
007CEFDA40000000000000
ENDCHAR
STARTCHAR dieresis
ENCODING 168
SWIDTH 412 0
DWIDTH 15 0
BBX 14 6 1 21
BITMAP
07DFB20006DFC3
5FFFFB004FFFFC
8FFFFB007FFFFD
5FFFF6004FFFF8
0AFF900008FF90
00210000002100
ENDCHAR
STARTCHAR copyright
ENCODING 169
SWIDTH 871 0
DWIDTH 31 0
BBX 28 27 2 0
BITMAP
0000000000027ADEFEC951000000
0000000004BFFFFFFFFFFE810000
00000001BFFFFFFEDEFFFFFD3000
0000004EFFFE83100015BFFFE300
000005FFFE70028DFEB304EFFD10
00004FFFC2007FFFFFFE302EFF90
0002EFFB100AFFF921BFA005FFF2
000BFFC1009FFF70008FE000CFF7
005FFE2005FFF90000CFE0006FFB
00CFF7001EFFE10005FFD0003FFE
03FFE1007FFF60005EFF80001FFF
08FF8000CFFE1007FFFE10000FFF
0CFF3001FFFA000AFFF600001FFE
0FFF0004FFF60002BC5000003FFD
2FFD0006FFF40000000000006FFA
3FFC0006FFF3000000000000BFF6
3FFD0005FFF4000000000002FFF1
1FFE0002FFF800002B600009FF90
0EFF40009FFE5127EF60004FFF20
0AFF90001BFFFFFFFA0002DFF800
04FFF300005BEFDA50001CFFD000
00CFFD10000000000003DFFE2000
003EFFD300000000018FFFE30000
0005FFFF940000149EFFFD300000
00004EFFFFFEDEFFFFFF91000000
0000029FFFFFFFFFFFA300000000
000000026ADEFEDA610000000000
ENDCHAR
STARTCHAR ordfeminine
ENCODING 170
SWIDTH 564 0
DWIDTH 20 0
BBX 17 16 4 10
BITMAP
0000003AEEB31BEA00
000019FFFFFEAFFF10
0001CFFD41AFFFF900
001CFFC1002FFFF200
009FFE20003FFF9000
05FFF600009FFF3000
0DFFD00000EFFB0000
5FFF500006FFF40000
9FFE00001EFFD00000
DFFB00008FFF800000
FFF80003FFFF400000
FFF8001DFEFF200000
EFFB02DFAEFF402000
AFFFEFFD1DFFFEF200
2EFFFFD209FFFFA000
03BEE91001BFD70000
ENDCHAR
STARTCHAR guillemotleft
ENCODING 171
SWIDTH 662 0
DWIDTH 24 0
BBX 21 14 2 4
BITMAP
0000000006D20000006D20
00000003CFE100003CFE10
0000019FFE500019FFE400
00006EFFD30006EFFC2000
003CFFFA1003CFFFA10000
08FFFF70008FFFF6000000
6FFFD30006FFFD30000000
5FFFA00006FFF900000000
09FFF80000AFFF80000000
00AFFF70000AFFF7000000
000AFFF60000BFFF600000
0000BFFF50000BFFF50000
00000BFFF20001BFFF2000
000001AEC100001AEB1000
ENDCHAR
STARTCHAR logicalnot
ENCODING 172
SWIDTH 729 0
DWIDTH 26 0
BBX 22 12 2 2
BITMAP
05CDDDDDDDDDDDDDDDDD80
1FFFFFFFFFFFFFFFFFFFF0
1EFFFFFFFFFFFFFFFFFFF1
000000000000000001FFF0
000000000000000002FFE0
000000000000000003FFE0
000000000000000004FFD0
000000000000000005FFD0
000000000000000005FFC0
000000000000000006FFB0
000000000000000007FF90
000000000000000005EB10
ENDCHAR
STARTCHAR uni00AD
ENCODING 173
SWIDTH 833 0
DWIDTH 30 0
BBX 1 1 0 0
BITMAP
00
ENDCHAR
STARTCHAR registered
ENCODING 174
SWIDTH 742 0
DWIDTH 27 0
BBX 23 23 3 4
BITMAP
0000000016ADEFDB72000000
00000018EFFFFFFFFF910000
000003DFFC731025BFFC1000
00004FFD5000000005EFC000
0004FFC1049BBA71004FF800
001EFC14DFFFFFFE3009FE10
00AFE20DFFA538FFC003FF50
03FF5004947100CFF100DF90
0AFD00002EF300CFF000BFA0
1FF700009FD004FFA000AFB0
4FF20000EFA37EFE2000BFB0
7FE00003FFFFFFC20000DF90
9FD00008FFDFF5000001FF60
AFD0000CFE2EF7000006FF20
9FE0003FF909FE10000DFC00
7FF200AFF203FFB1006FF500
3FF602FF6000AFFE12EFC000
0DFD1295000007931DFF3000
06FFA00000000003DFF50000
00AFFA100000018EFF600000
001BFFE96456AEFFE4000000
00007EFFFFFFFFF910000000
0000016BDFEDA61000000000
ENDCHAR
STARTCHAR macron
ENCODING 175
SWIDTH 392 0
DWIDTH 14 0
BBX 13 3 2 21
BITMAP
06EFFFFFFFFFD0
5FFFFFFFFFFFB0
6EFFFFFFFFFB10
ENDCHAR
STARTCHAR degree
ENCODING 176
SWIDTH 405 0
DWIDTH 15 0
BBX 12 11 4 16
BITMAP
00018CEED800
005EFFFFFFB0
05FFF813FFF5
2EFF8000CFF8
9FFE1000CFF9
DFF90001FFF7
FFF50007FFF2
FFF5001EFFA0
CFFA13CFFD10
4FFFFFFFC200
03AEFEB60000
ENDCHAR
STARTCHAR plusminus
ENCODING 177
SWIDTH 617 0
DWIDTH 22 0
BBX 19 23 2 0
BITMAP
000000006E6000000000
00000000EF8000000000
00000000FF8000000000
00000000FF8000000000
00000000FF8000000000
00000000FF8000000000
00000000FF8000000000
2CFFFFFFFFFFFFFFFE20
6FFFFFFFFFFFFFFFFA10
00000000FF8000000000
00000000FF8000000000
00000000FF8000000000
00000000FF8000000000
00000000FF8000000000
00000000FF8000000000
00000000FF8000000000
00000000FF6000000000
00000000CA1000000000
00000000000000000000
00000000000000000000
00000000000000000000
2CFFFFFFFFFFFFFFFE20
6FFFFFFFFFFFFFFFFA10
ENDCHAR
STARTCHAR twosuperior
ENCODING 178
SWIDTH 458 0
DWIDTH 16 0
BBX 16 19 2 8
BITMAP
00000028DFEC7100
000004EFFFFFFD10
00003FFF712CFFA0
0000BFF90004FFF0
0001FFF50005FFF1
0002FFF60009FFF0
0000EFFD102EFFC0
00006FFB00BFFF70
0000023009FFFD00
000000009FFFE300
0000001AFFFD3000
000001CFFFC10000
00003DFFF7000000
0004EFFD30000000
005FFF9100000000
04FFF700014B8000
0EFFECFFFFFF7000
2FFFFFFFFFFF2000
08D85469CEC40000
ENDCHAR
STARTCHAR threesuperior
ENCODING 179
SWIDTH 430 0
DWIDTH 16 0
BBX 15 19 2 8
BITMAP
00000017CEEC8100
000002CFFFFFFD10
00000CFF713EFF90
00005FF90009FFE0
0000AFF60009FFF0
0000AFFC000CFFD0
00004FFA006FFF80
0000023007FFFD10
00000005CFFFD200
000001CFFFFA1000
000006FFFFB10000
00000278EFFA0000
002300008FFF1000
07FF80007FFF2000
1FFF4000BFFE0000
3FFF0003FFF70000
1FFF203EFFB00000
06FFDCFFF9100000
004BEFD930000000
ENDCHAR
STARTCHAR acute
ENCODING 180
SWIDTH 322 0
DWIDTH 12 0
BBX 9 9 3 20
BITMAP
0000066100
00003FFB00
00009FFF20
0001EFFF10
0008FFF800
003FFFB000
02DFFB1000
2DFF800000
8EA3000000
ENDCHAR
STARTCHAR mu
ENCODING 181
SWIDTH 618 0
DWIDTH 22 0
BBX 24 28 -2 -10
BITMAP
0000000003ED40000001CE90
000000001DFFB0000009FFF3
00000000AFFF5000003FFFC0
00000004FFFC000000CFFF50
0000000DFFF4000005FFFD00
0000005FFFC000001DFFF600
000000DFFF5000008FFFE000
000004FFFD000002EFFF8000
00000BFFF700000AFFFF2000
00002FFFF100005FFFFA0000
00008FFFA00001DFFFF40000
0000DFFF60000BFFFFE00000
0004FFFF20007FDCFFB00000
0009FFFF1006FE3DFFB00000
000EFFFF419FF40EFFD12700
003FFFFFFFFF500CFFFFFD00
008FFFFFFFE40006FFFFF600
00CFF8AEE92000009FFD5000
00FFF3000000000001200000
03FFF0000000000000000000
07FFC0000000000000000000
0AFFA0000000000000000000
0CFF80000000000000000000
0EFF60000000000000000000
0FFF40000000000000000000
2FFF30000000000000000000
1FFF10000000000000000000
07E900000000000000000000
ENDCHAR
STARTCHAR paragraph
ENCODING 182
SWIDTH 739 0
DWIDTH 27 0
BBX 30 31 1 -2
BITMAP
000000000000000158BCEEFFFFFFF7
00000000000027CFFFFFFFFFFFFFE3
00000000002AFFFFFFFFFEEFFFEC30
0000000007EFFFFFFFFC302FFF9000
000000009FFFFFFFFFD1007FFF5000
00000008FFFFFFFFFF5000BFFF2000
0000004FFFFFFFFFFE0000EFFD0000
000000BFFFFFFFFFFA0003FFF90000
000001FFFFFFFFFFF60007FFF50000
000002FFFFFFFFFFF2000AFFF10000
000003FFFFFFFFFFD0000EFFC00000
000001FFFFFFFFFFA0003FFF700000
0000009FFFFFFFFF60007FFF200000
0000001DFFFFFFFF3000BFFD000000
00000002DFFFFFFE0001FFF8000000
0000000018EFFFFA0004FFF3000000
00000000000DFFF60009FFD0000000
00000000002FFFF2000DFF80000000
00000000007FFFD0003FFF20000000
0000000000BFFF80008FFC00000000
0000000001FFFF2000CFF700000000
0000000005FFFC0002FFF100000000
000010000AFFF60008FFA000000000
019EFC101EFFE0000DFF4000000000
1CFFFE206FFF70003FFD0000000000
8FFFD200CFFD00009FF70000000000
DFFF3004FFF40001EFE10000000000
EFFB001DFF800007FF800000000000
CFFC12CFFA00001DFE100000000000
4FFFFFFF8000007FF4000000000000
03AEFD93000000BD40000000000000
ENDCHAR
STARTCHAR periodcentered
ENCODING 183
SWIDTH 353 0
DWIDTH 13 0
BBX 6 6 4 9
BITMAP
09EEB3
6FFFFE
AFFFFF
8FFFFB
1CFFD2
005510
ENDCHAR
STARTCHAR cedilla
ENCODING 184
SWIDTH 301 0
DWIDTH 11 0
BBX 7 9 2 -8
BITMAP
003E8000
001CF700
0004FE20
0003FF60
0008FF70
004FFF60
3BFFFE10
5FFFF600
09ED6000
ENDCHAR
STARTCHAR onesuperior
ENCODING 185
SWIDTH 403 0
DWIDTH 15 0
BBX 11 19 4 8
BITMAP
0000003DE800
000004EFFF50
00007FFFFF70
001AFFFFFF40
17EFFEFFFE00
7FFFB4FFFA00
165207FFF400
00000CFFE000
00002FFF8000
00008FFF2000
0000EFFA0000
0006FFF30000
000CFFA00000
005FFF300000
00CFF9000000
06FFD1000000
0DFF30000000
5FF500000000
173000000000
ENDCHAR
STARTCHAR ordmasculine
ENCODING 186
SWIDTH 498 0
DWIDTH 18 0
BBX 15 16 3 10
BITMAP
00000017CEEC7000
000005EFFFFFFB00
00006FFFA23EFF60
0006FFF9000AFFC0
002EFFD10009FFF0
00AFFF30000AFFF0
03FFFB00000CFFE0
09FFF400001FFFB0
0DFFE000006FFF70
1FFFA00000CFFF20
2FFF700005FFF900
2FFF60001EFFE100
0EFF7000BFFF4000
0AFFC13BFFF60000
01DFFFFFFE400000
0018DFEC71000000
ENDCHAR
STARTCHAR guillemotright
ENCODING 187
SWIDTH 665 0
DWIDTH 24 0
BBX 20 14 2 4
BITMAP
009EC2000009EB200000
00DFFD20000EFFD20000
003EFFD20003EFFD1000
0004FFFD20004FFFD100
00005FFFD10005FFFC10
000006FFFC10007FFFC1
0000008FFF900008FFF9
000001AFFFA0001AFFF9
00003DFFFB1003DFFFA1
0006EFFD50006FFFD500
019FFF81001AFFF81000
2CFFB20002DFFB200000
BFD500000CFD50000000
D81000000D8100000000
ENDCHAR
STARTCHAR onequarter
ENCODING 188
SWIDTH 988 0
DWIDTH 36 0
BBX 30 29 3 0
BITMAP
000000000000000000007DC0000000
00000000000000000007FFB0000000
0000001AEA100000003FFF40000000
000002CFFF90000000BFFA00000000
00003DFFFFB0000006FFE100000000
0005EFFFFF8000001EFF7000000000
03AFFFFFFF4000008FFD0000000000
3FFFE7CFFE000002FFF40000000000
078512FFF800000AFFB00000000000
000007FFF300004FFF200000000000
00000DFFC00000CFF8003FC3000000
00003FFF500006FFE1006FFE000000
0000AFFD00001EFF6000AFFF100000
0002FFF700008FFC0000EFFD000000
0008FFD00002FFF40005FFF8000000
001EFF60000AFFA0000BFFF100CC60
009FFC00004FFE20004FFF9002FFF3
02FFF30000CFF80000CFFE2007FFF3
0AFF600006FFD10005FFF8000CFFD0
1FF600001EFF50000DFFD0002FFF70
042000008FFB00004FFF50008FFF30
00000002FFF300001EFFFFFFFFFFE3
0000000AFF90000004EFFFFFFFFFF9
0000004FFE1000000014554DFF8011
000000CFF70000000000004FFE1000
000006FFD0000000000000CFF60000
00001EFF40000000000005FFA00000
00008FFA0000000000000EFC100000
0000AE910000000000001E91000000
ENDCHAR
STARTCHAR onehalf
ENCODING 189
SWIDTH 988 0
DWIDTH 36 0
BBX 31 29 3 0
BITMAP
000000000000000000007DC000000000
00000000000000000007FFB000000000
0000001AEA100000003FFF4000000000
000001CFFF90000000BFFA0000000000
00001CFFFFB0000006FFE10000000000
0003DFFFFF8000001EFF700000000000
006EFFFFFF4000008FFD000000000000
2EFFFBCFFE000002FFF4000000000000
1CEB51FFF800000AFFB0000000000000
000006FFF300004FFF20000000000000
00000CFFC00000CFF800000000000000
00002FFF500006FFE100028CEFD92000
00009FFD00001EFF60005EFFFFFFF500
0001EFF600008FFC0003FFF9118FFE10
0007FFD00002FFF4000BFFB0000FFF40
001EFF60000AFFA0000DFFA0001FFF50
008FFC00004FFE20000AFFE3006FFF40
02FFE30000CFF8000002BEB101EFFE00
0AFF600006FFD100000000000BFFF800
1FF600001EFF500000000000AFFFC000
042000008FFB00000000001BFFFC1000
00000002FFF30000000003DFFFA10000
0000000AFF90000000005EFFE6000000
0000004FFE1000000008FFFB20000000
000000CFF700000001AFFE6000000000
000006FFD00000000BFFD200039C0000
00001EFF400000009FFFBEFFFFFB0000
00008FFA00000000EFFFFFFFFFF60000
0000AE91000000006FFFFFFFFD700000
ENDCHAR
STARTCHAR threequarters
ENCODING 190
SWIDTH 1007 0
DWIDTH 36 0
BBX 33 29 1 0
BITMAP
0000000000000000000000019E90000000
00000000000000000000000BFF80000000
00000029DFEB60000000006FFE10000000
000005EFFFFFFA00000001EFF600000000
00003FFD417FFF50000009FFC000000000
0000BFF4000EFF9000003FFF3000000000
0000FFF1000EFFA00000CFF90000000000
0000FFF7003FFF800005FFE10000000000
00008FE401CFFF20001DFF700000000000
000002102CFFF800007FFD000000000000
00000039FFFF800002EFF5005C60000000
000005FFFFC400000AFFB0009FF4000000
00000BFFFF9000003FFF3000CFF7000000
00000247FFF70000CFF90001FFF5000000
01650000DFFB0005FFE10006FFF1000000
1DFF3000DFFC001DFF60000CFFA005D700
7FFC0002FFF8008FFC00004FFF400AFF40
8FFA000BFFE102EFF40000CFFB000EFF40
4FFD12AFFE300AFFA00005FFF3004FFF10
08FFFFFFB2003FFF20000DFFA0009FFB00
0039AA830000CFF800006FFE1000EFF500
000000000005FFE100008FF93348FFF500
00000000001DFF6000001EFFFFFFFFFF20
00000000008FFC00000003BEFEEFFEAB40
0000000002EFF30000000000009FF50000
000000000AFFA0000000000002FFB00000
000000003FFE2000000000000BFD100000
00000000CFF60000000000007FE3000000
00000000DE70000000000000CB20000000
ENDCHAR
STARTCHAR questiondown
ENCODING 191
SWIDTH 516 0
DWIDTH 19 0
BBX 17 27 0 -7
BITMAP
0000000000007EE800
000000000007FFFF70
00000000000DFFFFB0
00000000000DFFFF80
000000000003BEEA10
000000000000000000
000000000000410000
000000000005F80000
00000000001EFA0000
0000000000BFF90000
0000000009FFF50000
00000001AFFFD00000
0000002CFFFF300000
000005EFFFF4000000
00008FFFFE40000000
001BFFFFD200000000
00CFFFFB1000000000
08FFFF800000000000
2FFFF6001ADA000000
8FFF7000AFFF600000
BFFC00009FFF900000
DFF500005FFF800000
CFF300006FFF400000
9FF50000DFFD000000
2FFD303CFFF3000000
05FFFFFFFE40000000
003ADFEB7100000000
ENDCHAR
STARTCHAR Agrave
ENCODING 192
SWIDTH 615 0
DWIDTH 22 0
BBX 27 35 -3 0
BITMAP
00000000000000000003CE200000
0000000000000000000DFF700000
0000000000000000002FFFC00000
0000000000000000000DFFF60000
00000000000000000004EFFE4000
000000000000000000002AFFE200
0000000000000000000000267100
0000000000000000000000000000
0000000000000000000005ADFD20
00000000000000000005DFFFFF50
000000000000000001AFFFDFFF10
00000000000000002CFFA2BFFB00
0000000000000002DFF503FFF600
000000000000001DFE400AFFE100
00000000000000BFF5002FFFA000
00000000000009FF70008FFF4000
0000000000006FFB0000EFFE0000
000000000002EFE20005FFF80000
00000000000BFF60000BFFF30000
00000000006FFC00001FFFD00000
0000000001EFF300006FFF700000
0000000009FFD9BDEEFFFFFFE400
00000017CFFFFFFFFFFFFFFFF200
000002DFFFFFFFFFFFFFFFEB5000
000005ACFFB000000AFFF3000000
0000001EFF3000000EFFE0000000
0000008FFA0000003FFFA0000000
000002FFF20000006FFF60000000
00000BFF900000009FFF20000000
00005FFE20000000CFFF00000000
0002EFF700000000DFFF00000000
002DFFD000000000DFFF31630000
04DFFE3000000000BFFFFFF60000
BFFFF400000000005FFFFFC10000
7EEA30000000000006DFD8100000
ENDCHAR
STARTCHAR Aacute
ENCODING 193
SWIDTH 615 0
DWIDTH 22 0
BBX 29 35 -3 0
BITMAP
0000000000000000000000000AE800
0000000000000000000000002FFF50
0000000000000000000000009FFF50
000000000000000000000004FFFD10
00000000000000000000004EFFC100
0000000000000000000003EFE70000
000000000000000000000275100000
000000000000000000000000000000
0000000000000000000005ADFD2000
00000000000000000005DFFFFF5000
000000000000000001AFFFDFFF1000
00000000000000002CFFA2BFFB0000
0000000000000002DFF503FFF60000
000000000000001DFE400AFFE10000
00000000000000BFF5002FFFA00000
00000000000009FF70008FFF400000
0000000000006FFB0000EFFE000000
000000000002EFE20005FFF8000000
00000000000BFF60000BFFF3000000
00000000006FFC00001FFFD0000000
0000000001EFF300006FFF70000000
0000000009FFD9BDEEFFFFFFE40000
00000017CFFFFFFFFFFFFFFFF20000
000002DFFFFFFFFFFFFFFFEB500000
000005ACFFB000000AFFF300000000
0000001EFF3000000EFFE000000000
0000008FFA0000003FFFA000000000
000002FFF20000006FFF6000000000
00000BFF900000009FFF2000000000
00005FFE20000000CFFF0000000000
0002EFF700000000DFFF0000000000
002DFFD000000000DFFF3163000000
04DFFE3000000000BFFFFFF6000000
BFFFF400000000005FFFFFC1000000
7EEA30000000000006DFD810000000
ENDCHAR
STARTCHAR Acircumflex
ENCODING 194
SWIDTH 615 0
DWIDTH 22 0
BBX 29 35 -3 0
BITMAP
000000000000000000000002B70000
00000000000000000000003EFF6000
0000000000000000000006FFFFC000
00000000000000000002BFFEFFF400
0000000000000000039FFFA1EFFD10
00000000000000000DFFD5004EFF90
000000000000000002750000027720
000000000000000000000000000000
0000000000000000000005ADFD2000
00000000000000000005DFFFFF5000
000000000000000001AFFFDFFF1000
00000000000000002CFFA2BFFB0000
0000000000000002DFF503FFF60000
000000000000001DFE400AFFE10000
00000000000000BFF5002FFFA00000
00000000000009FF70008FFF400000
0000000000006FFB0000EFFE000000
000000000002EFE20005FFF8000000
00000000000BFF60000BFFF3000000
00000000006FFC00001FFFD0000000
0000000001EFF300006FFF70000000
0000000009FFD9BDEEFFFFFFE40000
00000017CFFFFFFFFFFFFFFFF20000
000002DFFFFFFFFFFFFFFFEB500000
000005ACFFB000000AFFF300000000
0000001EFF3000000EFFE000000000
0000008FFA0000003FFFA000000000
000002FFF20000006FFF6000000000
00000BFF900000009FFF2000000000
00005FFE20000000CFFF0000000000
0002EFF700000000DFFF0000000000
002DFFD000000000DFFF3163000000
04DFFE3000000000BFFFFFF6000000
BFFFF400000000005FFFFFC1000000
7EEA30000000000006DFD810000000
ENDCHAR
STARTCHAR Atilde
ENCODING 195
SWIDTH 615 0
DWIDTH 22 0
BBX 31 35 -3 0
BITMAP
00000000000000000004BED500002E20
0000000000000000007FFFFF6000BF30
000000000000000006FFFFFFF519FD00
00000000000000001EF619FFFFFFF400
00000000000000005F8000BFFFFE4000
00000000000000004D100019EE920000
00000000000000000000000000000000
00000000000000000000000000000000
0000000000000000000005ADFD200000
00000000000000000005DFFFFF500000
000000000000000001AFFFDFFF100000
00000000000000002CFFA2BFFB000000
0000000000000002DFF503FFF6000000
000000000000001DFE400AFFE1000000
00000000000000BFF5002FFFA0000000
00000000000009FF70008FFF40000000
0000000000006FFB0000EFFE00000000
000000000002EFE20005FFF800000000
00000000000BFF60000BFFF300000000
00000000006FFC00001FFFD000000000
0000000001EFF300006FFF7000000000
0000000009FFD9BDEEFFFFFFE4000000
00000017CFFFFFFFFFFFFFFFF2000000
000002DFFFFFFFFFFFFFFFEB50000000
000005ACFFB000000AFFF30000000000
0000001EFF3000000EFFE00000000000
0000008FFA0000003FFFA00000000000
000002FFF20000006FFF600000000000
00000BFF900000009FFF200000000000
00005FFE20000000CFFF000000000000
0002EFF700000000DFFF000000000000
002DFFD000000000DFFF316300000000
04DFFE3000000000BFFFFFF600000000
BFFFF400000000005FFFFFC100000000
7EEA30000000000006DFD81000000000
ENDCHAR
STARTCHAR Adieresis
ENCODING 196
SWIDTH 615 0
DWIDTH 22 0
BBX 31 34 -3 0
BITMAP
000000000000000004CFC40003CFD500
00000000000000002FFFFE001EFFFF10
00000000000000005FFFFF003FFFFF10
00000000000000002FFFFA001EFFFB00
000000000000000006FFB10005FFC200
00000000000000000022000000220000
00000000000000000000000000000000
0000000000000000000005ADFD200000
00000000000000000005DFFFFF500000
000000000000000001AFFFDFFF100000
00000000000000002CFFA2BFFB000000
0000000000000002DFF503FFF6000000
000000000000001DFE400AFFE1000000
00000000000000BFF5002FFFA0000000
00000000000009FF70008FFF40000000
0000000000006FFB0000EFFE00000000
000000000002EFE20005FFF800000000
00000000000BFF60000BFFF300000000
00000000006FFC00001FFFD000000000
0000000001EFF300006FFF7000000000
0000000009FFD9BDEEFFFFFFE4000000
00000017CFFFFFFFFFFFFFFFF2000000
000002DFFFFFFFFFFFFFFFEB50000000
000005ACFFB000000AFFF30000000000
0000001EFF3000000EFFE00000000000
0000008FFA0000003FFFA00000000000
000002FFF20000006FFF600000000000
00000BFF900000009FFF200000000000
00005FFE20000000CFFF000000000000
0002EFF700000000DFFF000000000000
002DFFD000000000DFFF316300000000
04DFFE3000000000BFFFFFF600000000
BFFFF400000000005FFFFFC100000000
7EEA30000000000006DFD81000000000
ENDCHAR
STARTCHAR Aring
ENCODING 197
SWIDTH 615 0
DWIDTH 22 0
BBX 29 35 -3 0
BITMAP
0000000000000000000003ADFD9100
000000000000000000007FFFFFFC00
00000000000000000005FFE32EFF50
0000000000000000000DFF600AFF70
0000000000000000003FFE000AFF60
0000000000000000004FFC000CFF10
0000000000000000002FFC003FF800
0000000000000000000AFF42DFA000
000000000000000000007FFFFF2000
00000000000000000005DFFFFF5000
000000000000000001AFFCBFFF1000
00000000000000002CFE50DFFB0000
0000000000000002DFD205FFF60000
000000000000001DFD200BFFE10000
00000000000000BFE2003FFFA00000
00000000000009FF50009FFF400000
0000000000006FFA0001EFFE000000
000000000002EFE10006FFF8000000
00000000000BFF60000BFFF3000000
00000000006FFB00001FFFD0000000
0000000001EFF300006FFF70000000
0000000009FFD9BDEEFFFFFFE40000
00000017CFFFFFFFFFFFFFFFF20000
000002DFFFFFFFFFFFFFFFEB500000
000005ACFFB000000AFFF300000000
0000001EFF3000000EFFE000000000
0000008FFA0000003FFFA000000000
000002FFF20000006FFF6000000000
00000BFF900000009FFF2000000000
00005FFE20000000CFFF0000000000
0002EFF700000000DFFF0000000000
002DFFD000000000DFFF3163000000
04DFFE3000000000BFFFFFF6000000
BFFFF400000000005FFFFFC1000000
7EEA30000000000006DFD810000000
ENDCHAR
STARTCHAR AE
ENCODING 198
SWIDTH 878 0
DWIDTH 32 0
BBX 38 27 -3 0
BITMAP
0000000000000000000039DEEB349CEFEC9200
0000000000000000001AFFFFFFFFFFFFFFFF60
000000000000000002DFFFFFFFFFFD7311BFE1
00000000000000003EFFE619FFFF8100006FF5
0000000000000002EFFD207FFFF6000000AFF5
000000000000001DFFC103FFFF80000006FFF3
00000000000000BFFD100BFFFC0000007FFFD0
00000000000008FFE3002FFFF300001AFFFF50
0000000000004FFF50006FFFB00001DFFFFA00
000000000001DFFA00008FFF600002FFFFB000
000000000009FFD100007FFF4000006DD70000
00000000004FFF4000005FFF40000000000000
0000000001DFF90000000DFFA0000000000000
000000000AFFF89CEFFFFFFFFCBEE600000000
00000004AFFFFFFFFFFFFFFFFFFFFE00000000
000000AFFFFFFFFFFFFFFFFFFFFA5200000000
000002AEFFD100000000AFFFFB200000000000
0000004FFF6000000009FFFF90000000000000
000000CFFC000000004FFFF800000000000000
000006FFF400000000AFFFB000000000000000
00001EFFA000000001FFFF3000000067000000
00009FFF2000000003FFFE00000007FD000000
0004FFF80000000003FFFD0000007FFD000000
001DFFD00000000000EFFF40002BFFF8000000
03DFFF3000000000006FFFFA8BFFFFA0000000
7FFFF600000000000008FFFFFFFFE600000000
3CEC400000000000000039DEFDB61000000000
ENDCHAR
STARTCHAR Ccedilla
ENCODING 199
SWIDTH 533 0
DWIDTH 19 0
BBX 21 35 1 -8
BITMAP
00000000000059DEEB5000
00000000004DFFFFFFF800
0000000019FFFD6217FF40
00000001CFFF900001FFA0
0000001DFFF7000002FFD0
000001CFFF80000008FFE0
000009FFFA0000002EFFC0
00005FFFD1000001CFFF80
0001EFFF5000001CFFFF20
0008FFFC000003DFFFF800
001EFFF4000009FFFFB000
007FFFC0000003EFFA1000
00DFFF6000000026400000
03FFFF1000000000000000
07FFFB0000000000000000
0AFFF70000000000000000
0DFFF40000000000000000
0FFFF20000000000000000
1FFFF10000000000000000
2FFFF00000000000000000
2FFFF10000000000000000
0FFFF30000000010000000
0BFFF600000005E4000000
06FFFC0000019FF7000000
00BFFFA2138EFFF3000000
001CFFFFFFFFFC40000000
00006FFFEDB73000000000
000005FD00000000000000
000001FF50000000000000
000002FF90000000000000
000009FF90000000000000
00006FFF70000000000000
002DFFFF20000000000000
002FFFF700000000000000
0007ED6000000000000000
ENDCHAR
STARTCHAR Egrave
ENCODING 200
SWIDTH 509 0
DWIDTH 18 0
BBX 20 35 1 0
BITMAP
000000000002CE200000
00000000000DFF700000
00000000002FFFD00000
00000000000DFFF60000
000000000003EFFE4000
0000000000002AFFE200
00000000000000267100
00000000000000000000
000000000049CEFEC710
000000004CFFFFFFFFD2
00000009FFFFB5203EFB
000000BFFFE600000BFF
000009FFFE3000001EFF
00005FFFF4000000AFFD
0000DFFF8000001BFFF8
0005FFFD000003DFFFE1
000AFFF700004FFFFF50
000CFFF200007FFFF700
000DFFE0000009EC4000
000BFFE0000000000000
0007FFF3000000000000
0000CFFE7AC910000000
00001AFFFFFF80000000
00005DFFFFFB50000000
0009FFFFE71000000000
009FFFFC200000000000
06FFFFA0000000000000
0DFFFB00000000000000
5FFFF200000002000000
8FFFB00000005F700000
8FFF80000004FF900000
5FFFA000006FFF500000
0CFFF6115CFFF8000000
02CFFFFFFFFD50000000
0006BDFFDA5000000000
ENDCHAR
STARTCHAR Eacute
ENCODING 201
SWIDTH 509 0
DWIDTH 18 0
BBX 21 35 1 0
BITMAP
00000000000000000AE800
00000000000000002FFF50
00000000000000009FFF50
0000000000000004FFFD10
000000000000003EFFC200
00000000000003EFE70000
0000000000000275100000
0000000000000000000000
000000000049CEFEC71000
000000004CFFFFFFFFD200
00000009FFFFB5203EFB00
000000BFFFE600000BFF00
000009FFFE3000001EFF00
00005FFFF4000000AFFD00
0000DFFF8000001BFFF800
0005FFFD000003DFFFE100
000AFFF700004FFFFF5000
000CFFF200007FFFF70000
000DFFE0000009EC400000
000BFFE000000000000000
0007FFF300000000000000
0000CFFE7AC91000000000
00001AFFFFFF8000000000
00005DFFFFFB5000000000
0009FFFFE7100000000000
009FFFFC20000000000000
06FFFFA000000000000000
0DFFFB0000000000000000
5FFFF20000000200000000
8FFFB00000005F70000000
8FFF80000004FF90000000
5FFFA000006FFF50000000
0CFFF6115CFFF800000000
02CFFFFFFFFD5000000000
0006BDFFDA500000000000
ENDCHAR
STARTCHAR Ecircumflex
ENCODING 202
SWIDTH 509 0
DWIDTH 18 0
BBX 21 35 1 0
BITMAP
0000000000000002B70000
000000000000003EFF7000
00000000000006EFFFC000
000000000002AFFEFFF500
00000000029FFFA1DFFD10
000000000DFFD5004EFF90
0000000002750000027720
0000000000000000000000
000000000049CEFEC71000
000000004CFFFFFFFFD200
00000009FFFFB5203EFB00
000000BFFFE600000BFF00
000009FFFE3000001EFF00
00005FFFF4000000AFFD00
0000DFFF8000001BFFF800
0005FFFD000003DFFFE100
000AFFF700004FFFFF5000
000CFFF200007FFFF70000
000DFFE0000009EC400000
000BFFE000000000000000
0007FFF300000000000000
0000CFFE7AC91000000000
00001AFFFFFF8000000000
00005DFFFFFB5000000000
0009FFFFE7100000000000
009FFFFC20000000000000
06FFFFA000000000000000
0DFFFB0000000000000000
5FFFF20000000200000000
8FFFB00000005F70000000
8FFF80000004FF90000000
5FFFA000006FFF50000000
0CFFF6115CFFF800000000
02CFFFFFFFFD5000000000
0006BDFFDA500000000000
ENDCHAR
STARTCHAR Edieresis
ENCODING 203
SWIDTH 509 0
DWIDTH 18 0
BBX 23 34 1 0
BITMAP
0000000004CFD40003CFD500
000000002FFFFE001EFFFF10
000000004FFFFF003FFFFF20
000000002FFFFA001EFFFB00
0000000006FFB10005FFC200
000000000022000000120000
000000000000000000000000
000000000049CEFEC7100000
000000004CFFFFFFFFD20000
00000009FFFFB5203EFB0000
000000BFFFE600000BFF0000
000009FFFE3000001EFF0000
00005FFFF4000000AFFD0000
0000DFFF8000001BFFF80000
0005FFFD000003DFFFE10000
000AFFF700004FFFFF500000
000CFFF200007FFFF7000000
000DFFE0000009EC40000000
000BFFE00000000000000000
0007FFF30000000000000000
0000CFFE7AC9100000000000
00001AFFFFFF800000000000
00005DFFFFFB500000000000
0009FFFFE710000000000000
009FFFFC2000000000000000
06FFFFA00000000000000000
0DFFFB000000000000000000
5FFFF2000000020000000000
8FFFB00000005F7000000000
8FFF80000004FF9000000000
5FFFA000006FFF5000000000
0CFFF6115CFFF80000000000
02CFFFFFFFFD500000000000
0006BDFFDA50000000000000
ENDCHAR
STARTCHAR Igrave
ENCODING 204
SWIDTH 327 0
DWIDTH 12 0
BBX 15 35 -1 0
BITMAP
000000002BE40000
00000000BFF90000
00000000FFFE1000
00000000BFFF8000
000000002DFFF500
00000000019FFF40
0000000000015720
0000000000000000
0000039CEED82000
00002FFFFFFFE100
000008FC56FFF600
0000002007FFF700
000000000AFFF600
000000000CFFF300
000000001FFFF100
000000004FFFC000
000000007FFF9000
00000000BFFF5000
00000001FFFF1000
00000005FFFB0000
0000000AFFF70000
0000000EFFF20000
0000004FFFC00000
000000AFFF700000
000001EFFF100000
000006FFFA000000
00000CFFF4000000
00004FFFC0000000
0000BFFF40000000
0004FFFB00000000
000CFFF200000000
007FFF7000000000
05FFFA0000000000
4FFFA00000000000
2DD7000000000000
ENDCHAR
STARTCHAR Iacute
ENCODING 205
SWIDTH 327 0
DWIDTH 12 0
BBX 18 35 -1 0
BITMAP
000000000000008E91
00000000000001EFF7
00000000000007FFF8
0000000000003EFFE2
000000000002DFFD30
00000000001EFE8100
000000000017610000
000000000000000000
0000039CEED8200000
00002FFFFFFFE10000
000008FC56FFF60000
0000002007FFF70000
000000000AFFF60000
000000000CFFF30000
000000001FFFF10000
000000004FFFC00000
000000007FFF900000
00000000BFFF500000
00000001FFFF100000
00000005FFFB000000
0000000AFFF7000000
0000000EFFF2000000
0000004FFFC0000000
000000AFFF70000000
000001EFFF10000000
000006FFFA00000000
00000CFFF400000000
00004FFFC000000000
0000BFFF4000000000
0004FFFB0000000000
000CFFF20000000000
007FFF700000000000
05FFFA000000000000
4FFFA0000000000000
2DD700000000000000
ENDCHAR
STARTCHAR Icircumflex
ENCODING 206
SWIDTH 327 0
DWIDTH 12 0
BBX 18 35 -1 0
BITMAP
0000000000001A9100
000000000002DFF900
00000000005EFFFE00
0000000019FFEFFF70
00000028EFFC2CFFE2
000000BFFE6002EFFB
000000175100001673
000000000000000000
0000039CEED8200000
00002FFFFFFFE10000
000008FC56FFF60000
0000002007FFF70000
000000000AFFF60000
000000000CFFF30000
000000001FFFF10000
000000004FFFC00000
000000007FFF900000
00000000BFFF500000
00000001FFFF100000
00000005FFFB000000
0000000AFFF7000000
0000000EFFF2000000
0000004FFFC0000000
000000AFFF70000000
000001EFFF10000000
000006FFFA00000000
00000CFFF400000000
00004FFFC000000000
0000BFFF4000000000
0004FFFB0000000000
000CFFF20000000000
007FFF700000000000
05FFFA000000000000
4FFFA0000000000000
2DD700000000000000
ENDCHAR
STARTCHAR Idieresis
ENCODING 207
SWIDTH 327 0
DWIDTH 12 0
BBX 20 34 -1 0
BITMAP
0000003BFD60002BFE60
000001EFFFF200DFFFF3
000002FFFFF201FFFFF4
000000EFFFC000DFFFD0
0000005EFC20004EFD30
00000001300000013000
00000000000000000000
0000039CEED820000000
00002FFFFFFFE1000000
000008FC56FFF6000000
0000002007FFF7000000
000000000AFFF6000000
000000000CFFF3000000
000000001FFFF1000000
000000004FFFC0000000
000000007FFF90000000
00000000BFFF50000000
00000001FFFF10000000
00000005FFFB00000000
0000000AFFF700000000
0000000EFFF200000000
0000004FFFC000000000
000000AFFF7000000000
000001EFFF1000000000
000006FFFA0000000000
00000CFFF40000000000
00004FFFC00000000000
0000BFFF400000000000
0004FFFB000000000000
000CFFF2000000000000
007FFF70000000000000
05FFFA00000000000000
4FFFA000000000000000
2DD70000000000000000
ENDCHAR
STARTCHAR Eth
ENCODING 208
SWIDTH 630 0
DWIDTH 23 0
BBX 22 27 1 0
BITMAP
0000037ACDEFEC96100000
0007DFFFFFFFFFFFF92000
008FFFFFFFEDDEFFFFE500
008FFFFD7300004BFFFF40
001AFF60000000007FFFE1
000021013300000009FFF7
0000003EFFE1000003FFFB
000000CFFFC0000000EFFE
000005FFFF30000000CFFF
00000CFFF900000000CFFF
00005FFFF200000000EFFE
2CFFFFFFFFFFF70001FFFC
BFFFFFFFFFFFF60005FFF8
CFFFFFFFFFFF80000AFFF4
001EFFF3000000002FFFD0
006FFFB000000000AFFF60
00CFFF5000000004FFFD10
02FFFE000000001DFFF400
07FFF900000000AFFF9000
0BFFF400000008FFFC1000
1FFFE00000007FFFD20000
4FFFA0000009FFFD200000
7FFF700001BFFFD2000000
9FFF30005EFFFA10000000
6FFF315CFFFE6000000000
0BFFFFFFFE810000000000
006CEFDA51000000000000
ENDCHAR
STARTCHAR Ntilde
ENCODING 209
SWIDTH 708 0
DWIDTH 25 0
BBX 29 34 0 0
BITMAP
0000000000000000029DEC40000B90
00000000000000005EFFFFF812AFA0
0000000000000003FFFFFFFFFFFE20
000000000000000BF922BFFFFFD300
000000000000000B900007DFD81000
000000000000000000000000000000
000000000000000000000000000000
000000000003BED30000004DEB3000
00000000006FFFF5000000DFFFE200
0000000006FFFFF30000005FFFF900
000000003FFFFFF10000000BFFFC00
00000001DFEDFFD000000008FFFD00
00000008FF6DFFC000000007FFFB00
0000003FFC0EFFC000000008FFF800
000000AFF40FFFC00000000AFFF300
000003FFB00FFFC00000000DFFD000
00000AFF500FFFD00000003FFF7000
00003FFD000FFFF00000008FFE1000
00009FF7000EFFF1000000DFF70000
0001EFF1000DFFF3000005FFE10000
0006FFB0000BFFF500000BFF700000
000CFF600009FFF800003FFD000000
002FFF100007FFFA0000AFF5000000
007FFB000004FFFE0002FFC0000000
00CFF7000001FFFF2009FF40000000
02FFF3000000CFFF601EFA00000000
06FFE00000007FFFA07FF200000000
0AFFA00000003FFFF1DFA000000000
0DFF700000000DFFFBFF2000000000
1FFF3000000007FFFFFA0000000000
3FFF1000000001EFFFF40000000000
4FFD00000000007FFFE00000000000
3FFB00000000000BFFD00000000000
08E70000000000019E800000000000
ENDCHAR
STARTCHAR Ograve
ENCODING 210
SWIDTH 655 0
DWIDTH 24 0
BBX 23 35 2 0
BITMAP
00000000000001AE50000000
0000000000000AFFB0000000
0000000000000DFFF2000000
0000000000000AFFFA000000
00000000000001CFFF700000
0000000000000018EFF50000
000000000000000015720000
000000000000000000000000
0000000000038CEFEB600000
0000000003BFFFFFFFFC1000
000000007FFFF8213CFFC000
00000009FFFD300002FFF600
000000AFFFD2000000CFFB00
000008FFFE20000000AFFE00
00005FFFF3000000009FFF10
0001EFFF8000000000AFFF20
000AFFFD0000000000BFFF20
003FFFF40000000000EFFF00
00AFFFB00000000003FFFD00
02FFFF400000000007FFFA00
08FFFC00000000000CFFF700
0CFFF600000000002FFFF200
2FFFF100000000008FFFC000
5FFFB00000000001EFFF6000
8FFF700000000007FFFE0000
AFFF30000000001EFFF60000
CFFF10000000008FFFD00000
CFFE0000000003FFFF300000
BFFD000000001DFFF8000000
9FFE00000000AFFFA0000000
5FFF10000009FFFC10000000
1EFF700001AFFFB100000000
05FFF6126DFFF80000000000
006FFFFFFFFC400000000000
00029DEED940000000000000
ENDCHAR
STARTCHAR Oacute
ENCODING 211
SWIDTH 655 0
DWIDTH 24 0
BBX 23 35 2 0
BITMAP
00000000000000000006EB10
0000000000000000000DFF90
0000000000000000005FFF90
000000000000000001EFFF30
00000000000000001CFFE400
0000000000000001DFF92000
000000000000000076200000
000000000000000000000000
0000000000038CEFEB600000
0000000003BFFFFFFFFC1000
000000007FFFF8213CFFC000
00000009FFFD300002FFF600
000000AFFFD2000000CFFB00
000008FFFE20000000AFFE00
00005FFFF3000000009FFF10
0001EFFF8000000000AFFF20
000AFFFD0000000000BFFF20
003FFFF40000000000EFFF00
00AFFFB00000000003FFFD00
02FFFF400000000007FFFA00
08FFFC00000000000CFFF700
0CFFF600000000002FFFF200
2FFFF100000000008FFFC000
5FFFB00000000001EFFF6000
8FFF700000000007FFFE0000
AFFF30000000001EFFF60000
CFFF10000000008FFFD00000
CFFE0000000003FFFF300000
BFFD000000001DFFF8000000
9FFE00000000AFFFA0000000
5FFF10000009FFFC10000000
1EFF700001AFFFB100000000
05FFF6126DFFF80000000000
006FFFFFFFFC400000000000
00029DEED940000000000000
ENDCHAR
STARTCHAR Ocircumflex
ENCODING 212
SWIDTH 655 0
DWIDTH 24 0
BBX 23 35 2 0
BITMAP
000000000000000000991000
00000000000000001CFFB000
0000000000000004DFFFF100
000000000000018FFEFFF800
0000000000017EFFC3AFFF40
000000000009FFE7001DFFD0
000000000001661000016740
000000000000000000000000
0000000000038CEFEB600000
0000000003BFFFFFFFFC1000
000000007FFFF8213CFFC000
00000009FFFD300002FFF600
000000AFFFD2000000CFFB00
000008FFFE20000000AFFE00
00005FFFF3000000009FFF10
0001EFFF8000000000AFFF20
000AFFFD0000000000BFFF20
003FFFF40000000000EFFF00
00AFFFB00000000003FFFD00
02FFFF400000000007FFFA00
08FFFC00000000000CFFF700
0CFFF600000000002FFFF200
2FFFF100000000008FFFC000
5FFFB00000000001EFFF6000
8FFF700000000007FFFE0000
AFFF30000000001EFFF60000
CFFF10000000008FFFD00000
CFFE0000000003FFFF300000
BFFD000000001DFFF8000000
9FFE00000000AFFFA0000000
5FFF10000009FFFC10000000
1EFF700001AFFFB100000000
05FFF6126DFFF80000000000
006FFFFFFFFC400000000000
00029DEED940000000000000
ENDCHAR
STARTCHAR Otilde
ENCODING 213
SWIDTH 655 0
DWIDTH 24 0
BBX 25 35 2 0
BITMAP
00000000000002AEE800000C60
0000000000004EFFFFA0006F70
000000000003EFFFFFF816FF20
00000000000BF915FFFFFFF700
00000000001FC0007FFFFF8000
00000000001D400007EEB40000
00000000000000000000000000
00000000000000000000000000
0000000000038CEFEB60000000
0000000003BFFFFFFFFC100000
000000007FFFF8213CFFC00000
00000009FFFD300002FFF60000
000000AFFFD2000000CFFB0000
000008FFFE20000000AFFE0000
00005FFFF3000000009FFF1000
0001EFFF8000000000AFFF2000
000AFFFD0000000000BFFF2000
003FFFF40000000000EFFF0000
00AFFFB00000000003FFFD0000
02FFFF400000000007FFFA0000
08FFFC00000000000CFFF70000
0CFFF600000000002FFFF20000
2FFFF100000000008FFFC00000
5FFFB00000000001EFFF600000
8FFF700000000007FFFE000000
AFFF30000000001EFFF6000000
CFFF10000000008FFFD0000000
CFFE0000000003FFFF30000000
BFFD000000001DFFF800000000
9FFE00000000AFFFA000000000
5FFF10000009FFFC1000000000
1EFF700001AFFFB10000000000
05FFF6126DFFF8000000000000
006FFFFFFFFC40000000000000
00029DEED94000000000000000
ENDCHAR
STARTCHAR Odieresis
ENCODING 214
SWIDTH 655 0
DWIDTH 24 0
BBX 25 34 2 0
BITMAP
000000000002BFE70001AEE800
00000000000DFFFF300BFFFF50
00000000000FFFFF400EFFFF50
00000000000DFFFD100BFFFE10
000000000003EFD30002DFE400
00000000000013000000130000
00000000000000000000000000
0000000000038CEFEB60000000
0000000003BFFFFFFFFC100000
000000007FFFF8213CFFC00000
00000009FFFD300002FFF60000
000000AFFFD2000000CFFB0000
000008FFFE20000000AFFE0000
00005FFFF3000000009FFF1000
0001EFFF8000000000AFFF2000
000AFFFD0000000000BFFF2000
003FFFF40000000000EFFF0000
00AFFFB00000000003FFFD0000
02FFFF400000000007FFFA0000
08FFFC00000000000CFFF70000
0CFFF600000000002FFFF20000
2FFFF100000000008FFFC00000
5FFFB00000000001EFFF600000
8FFF700000000007FFFE000000
AFFF30000000001EFFF6000000
CFFF10000000008FFFD0000000
CFFE0000000003FFFF30000000
BFFD000000001DFFF800000000
9FFE00000000AFFFA000000000
5FFF10000009FFFC1000000000
1EFF700001AFFFB10000000000
05FFF6126DFFF8000000000000
006FFFFFFFFC40000000000000
00029DEED94000000000000000
ENDCHAR
STARTCHAR multiply
ENCODING 215
SWIDTH 573 0
DWIDTH 21 0
BBX 16 14 3 5
BITMAP
2DE5000000002CE7
1EFF60000002DFF6
03EFF500002DFF70
003EFF4002DFF700
0003EFF42DFF6000
00004FFEEFF60000
000004FFFF600000
000003EFFE300000
00003EFFFFE20000
0003EFF56FFE2000
004EFF4006FFD200
04EFE400006FFD20
3FFE40000007FFD0
4DD4000000007EC1
ENDCHAR
STARTCHAR Oslash
ENCODING 216
SWIDTH 655 0
DWIDTH 24 0
BBX 23 33 3 -3
BITMAP
00000000000000000006DEB0
0000000000000000006FFFB0
000000000000000003FFFC10
0000000000027BDFEEFFC100
00000000029FFFFFFFFF5000
000000005EFFF932EFFFE200
00000007FFFE4009FFEFF900
0000008FFFE2003FF8AFFE00
000006FFFE3000BFD08FFF20
00003FFFF50005FF407FFF40
0000CFFFA0001DF9008FFF40
0007FFFE10008FE100AFFF30
001EFFF60002EF5000DFFF20
008FFFD0000AFB0001FFFF00
00EFFF60004FE20005FFFC00
05FFFE0000CF70000AFFF800
0AFFF80006FC00001EFFF300
0EFFF2001EF300006FFFD000
3FFFD0008F900000DFFF7000
6FFF9002FE100005FFFE1000
9FFF500BF700000DFFF80000
AFFF304FD000006FFFE10000
BFFF11DF500002EFFF500000
AFFF08FC00000BFFF9000000
8FFF3FF300008FFFC0000000
5FFFEFA00007FFFD10000000
1EFFFF20008FFFC100000000
06FFFC115CFFF91000000000
01EFFFFFFFFD500000000000
08FFBCEFDA50000000000000
1EFC00000000000000000000
7FF200000000000000000000
6E7000000000000000000000
ENDCHAR
STARTCHAR Ugrave
ENCODING 217
SWIDTH 624 0
DWIDTH 22 0
BBX 25 35 0 0
BITMAP
00000000000001AE5000000000
0000000000000AFFA000000000
0000000000000DFFF100000000
0000000000000AFFF900000000
00000000000001DFFF70000000
0000000000000018FFF5000000
00000000000000001572000000
00000000000000000000000000
00000008DFD50000000004EC40
0000005FFFFF100000000DFFD0
00000008FFFF100000006FFF90
00000002FFFE00000000DFFF20
00000005FFFA00000007FFFA00
0000000AFFF40000001EFFF400
0000002FFFE00000007FFFD000
0000008FFF80000001EFFF7000
000001EFFF20000008FFFF1000
000006FFFA0000001EFFFB0000
00000DFFF30000009FFFF50000
00004FFFB0000002FFFFE10000
0000BFFF4000000AFFFFA00000
0002FFFC0000003FFFFF500000
0009FFF5000000CFFFFE000000
001EFFD0000006FFFFFA000000
006FFF7000001EFDFFF5000000
00CFFE1000009FE9FFF1000000
03FFF9000004FF6CFFC0000000
08FFF400001DFA1FFF80000000
0DFFE000009FD15FFF50000000
1FFFB00006FE307FFF30000000
3FFFA0006FF5009FFF20000000
4FFFE229FF60008FFF70370000
2FFFFFFFF600006FFFFFFB0000
09FFFFFD4000001EFFFFE30000
008DFD7100000003BEE9200000
ENDCHAR
STARTCHAR Uacute
ENCODING 218
SWIDTH 624 0
DWIDTH 22 0
BBX 25 35 0 0
BITMAP
00000000000000000007EA1000
0000000000000000000DFF8000
0000000000000000006FFF9000
000000000000000002EFFE2000
00000000000000001DFFE30000
0000000000000001DFF9100000
00000000000000007610000000
00000000000000000000000000
00000008DFD50000000004EC40
0000005FFFFF100000000DFFD0
00000008FFFF100000006FFF90
00000002FFFE00000000DFFF20
00000005FFFA00000007FFFA00
0000000AFFF40000001EFFF400
0000002FFFE00000007FFFD000
0000008FFF80000001EFFF7000
000001EFFF20000008FFFF1000
000006FFFA0000001EFFFB0000
00000DFFF30000009FFFF50000
00004FFFB0000002FFFFE10000
0000BFFF4000000AFFFFA00000
0002FFFC0000003FFFFF500000
0009FFF5000000CFFFFE000000
001EFFD0000006FFFFFA000000
006FFF7000001EFDFFF5000000
00CFFE1000009FE9FFF1000000
03FFF9000004FF6CFFC0000000
08FFF400001DFA1FFF80000000
0DFFE000009FD15FFF50000000
1FFFB00006FE307FFF30000000
3FFFA0006FF5009FFF20000000
4FFFE229FF60008FFF70370000
2FFFFFFFF600006FFFFFFB0000
09FFFFFD4000001EFFFFE30000
008DFD7100000003BEE9200000
ENDCHAR
STARTCHAR Ucircumflex
ENCODING 219
SWIDTH 624 0
DWIDTH 22 0
BBX 25 35 0 0
BITMAP
000000000000000001A9100000
00000000000000001CFFA00000
0000000000000004DFFFE10000
000000000000019FFEFFF80000
0000000000017EFFC2BFFF3000
00000000000AFFE7002DFFC000
00000000000176100001673000
00000000000000000000000000
00000008DFD50000000004EC40
0000005FFFFF100000000DFFD0
00000008FFFF100000006FFF90
00000002FFFE00000000DFFF20
00000005FFFA00000007FFFA00
0000000AFFF40000001EFFF400
0000002FFFE00000007FFFD000
0000008FFF80000001EFFF7000
000001EFFF20000008FFFF1000
000006FFFA0000001EFFFB0000
00000DFFF30000009FFFF50000
00004FFFB0000002FFFFE10000
0000BFFF4000000AFFFFA00000
0002FFFC0000003FFFFF500000
0009FFF5000000CFFFFE000000
001EFFD0000006FFFFFA000000
006FFF7000001EFDFFF5000000
00CFFE1000009FE9FFF1000000
03FFF9000004FF6CFFC0000000
08FFF400001DFA1FFF80000000
0DFFE000009FD15FFF50000000
1FFFB00006FE307FFF30000000
3FFFA0006FF5009FFF20000000
4FFFE229FF60008FFF70370000
2FFFFFFFF600006FFFFFFB0000
09FFFFFD4000001EFFFFE30000
008DFD7100000003BEE9200000
ENDCHAR
STARTCHAR Udieresis
ENCODING 220
SWIDTH 624 0
DWIDTH 22 0
BBX 25 34 0 0
BITMAP
000000000002BFD60002AEE700
00000000000DFFFF300CFFFF40
00000000001FFFFF400FFFFF50
00000000000DFFFD000CFFFE10
000000000004EFD30003EFE400
00000000000013000000130000
00000000000000000000000000
00000008DFD50000000004EC40
0000005FFFFF100000000DFFD0
00000008FFFF100000006FFF90
00000002FFFE00000000DFFF20
00000005FFFA00000007FFFA00
0000000AFFF40000001EFFF400
0000002FFFE00000007FFFD000
0000008FFF80000001EFFF7000
000001EFFF20000008FFFF1000
000006FFFA0000001EFFFB0000
00000DFFF30000009FFFF50000
00004FFFB0000002FFFFE10000
0000BFFF4000000AFFFFA00000
0002FFFC0000003FFFFF500000
0009FFF5000000CFFFFE000000
001EFFD0000006FFFFFA000000
006FFF7000001EFDFFF5000000
00CFFE1000009FE9FFF1000000
03FFF9000004FF6CFFC0000000
08FFF400001DFA1FFF80000000
0DFFE000009FD15FFF50000000
1FFFB00006FE307FFF30000000
3FFFA0006FF5009FFF20000000
4FFFE229FF60008FFF70370000
2FFFFFFFF600006FFFFFFB0000
09FFFFFD4000001EFFFFE30000
008DFD7100000003BEE9200000
ENDCHAR
STARTCHAR Yacute
ENCODING 221
SWIDTH 580 0
DWIDTH 21 0
BBX 25 45 0 -10
BITMAP
00000000000000000003620000
0000000000000000000EFE2000
0000000000000000005FFF6000
000000000000000001DFFF3000
00000000000000000AFFF70000
0000000000000000AFFE500000
0000000000000005FC71000000
00000000000000000000000000
00000019EFC40000000005EC30
0000007FFFFE000000001EFFC0
00000009FFFF000000007FFF80
00000003FFFC00000001EFFE10
00000006FFF800000008FFF800
0000000CFFF30000002FFFF200
0000003FFFC00000009FFFB000
000000AFFF60000002FFFF5000
000002FFFE1000000AFFFE1000
000008FFF80000003FFFF90000
00000EFFF2000000AFFFF40000
00006FFF90000004FFFFD00000
0000CFFF3000000CFFFF800000
0004FFFB0000005FFFFF300000
000BFFF4000000DFFFFC000000
002FFFC0000007FFFFF7000000
008FFF5000002EFEFFF2000000
00EFFE000000BFDDFFB0000000
04FFF8000005FF6FFF60000000
0AFFF200001EF88FFE10000000
0EFFD00000BFC1EFF900000000
3FFF900008FE26FFF300000000
5FFF90007FE30DFFC000000000
6FFFC12AFF405FFF6000000000
3FFFFFFFE400CFFD0000000000
0AFFFFFD3004FFF60000000000
018DFC70000DFFD00000000000
00000000007FFF400000000000
0000000002EFFA000000000000
000000000BFFE1000000000000
000000008FFF40000000000000
00000005FFF700000000000000
0000005FFFA000000000000000
000006FFFB0000000000000000
0002AFFFA00000000000000000
019FFFE7000000000000000000
01CEC810000000000000000000
ENDCHAR
STARTCHAR Thorn
ENCODING 222
SWIDTH 527 0
DWIDTH 19 0
BBX 22 27 -2 0
BITMAP
000005ADFFE92000000000
00007FFFFFFFD000000000
00001CFA3AFFF200000000
000000200CFFF200000000
000000000EFFF100000000
000000002FFFE000000000
000000005FFFB000000000
000000009FFFFEDB830000
00000000CFFFFFFFFFB300
00000001FFFE41029FFE30
00000005FFFA00000AFFD0
0000000AFFF5000006FFF4
0000000EFFF1000006FFF5
0000004FFFB0000009FFF4
0000009FFF6000002EFFF1
000000EFFE100001CFFFA0
000005FFF900004DFFFE20
00000BFFF4015BFFFFE300
00002FFFFBDFFFFFFA1000
00009FFFFFFFFFD8200000
0001EFFD77764200000000
0008FFF500000000000000
002FFFC000000000000000
00CFFF3000000000000000
0AFFF50000000000000000
8FFF600000000000000000
5EC4000000000000000000
ENDCHAR
STARTCHAR germandbls
ENCODING 223
SWIDTH 520 0
DWIDTH 19 0
BBX 22 34 -2 -5
BITMAP
00000000000018DEEC8100
000000000004EFFFFFFD20
00000000004FFFB317FFB0
0000000001EFFB0000EFF3
0000000009FFE10000DFF5
000000003FFF700001FFF5
00000000AFFE100005FFF4
00000001FFF800000CFFE0
00000007FFF300006FFF90
0000000DFFD00003EFFE10
0000003FFF80001DFFE300
0000007FFF4000BFFE4000
000000CFFE0008FFE40000
000001FFFB003FFF500000
000005FFF700AFF9000000
000009FFF301FFF4000000
00000DFFE003FFF5000000
00001FFFA002FFFA000000
00005FFF7000EFFF400000
00009FFF30008FFFD10000
0000DFFE00001EFFFB0000
0002FFFA000005FFFF6000
0006FFF60000008FFFE100
000AFFF20394000BFFF500
000EFFD02EFA0002FFF500
004FFF906FFE1000EFF200
009FFF406FFFC439FF9000
00DFFE000CFFFFFFF80000
03FFF900007CEFD9300000
09FFF40000000000000000
1EFFD00000000000000000
7FFF700000000000000000
BFFC100000000000000000
2750000000000000000000
ENDCHAR
STARTCHAR agrave
ENCODING 224
SWIDTH 541 0
DWIDTH 20 0
BBX 19 28 1 0
BITMAP
00000000019ED2000000
0000000009FFF3000000
000000000DFFF2000000
000000000BFFF1000000
0000000007FFF2000000
0000000001EFF4000000
00000000005FF8000000
000000000007FE100000
00000000000036000000
00000000000000000000
000000028DFD811BEB10
0000008FFFFFFCBFFF60
00001BFFE612CFFFFD00
0001CFFD20005FFFF600
000BFFE200005FFFE000
007FFF500000BFFF7000
02FFFC000001FFFE1000
09FFF5000007FFF80000
1FFFD000000DFFF20000
5FFF9000006FFFB00000
9FFF500001EFFF500000
BFFF300009FFFF100000
CFFF20004FFFFD000000
CFFF2002EFAFFE000000
9FFF604EF99FFF97B400
4FFFFDFFC17FFFFFF200
09FFFFFC101EFFFF7000
007DFD700002ADA40000
ENDCHAR
STARTCHAR aacute
ENCODING 225
SWIDTH 541 0
DWIDTH 20 0
BBX 19 28 1 0
BITMAP
00000000000008FA0000
0000000000000EFF6000
0000000000005FFF8000
000000000000CFFF4000
000000000006FFFA0000
00000000003EFFB00000
0000000002EFF9000000
000000001DFD50000000
00000000175000000000
00000000000000000000
000000028DFD811BEB10
0000008FFFFFFCBFFF60
00001BFFE612CFFFFD00
0001CFFD20005FFFF600
000BFFE200005FFFE000
007FFF500000BFFF7000
02FFFC000001FFFE1000
09FFF5000007FFF80000
1FFFD000000DFFF20000
5FFF9000006FFFB00000
9FFF500001EFFF500000
BFFF300009FFFF100000
CFFF20004FFFFD000000
CFFF2002EFAFFE000000
9FFF604EF99FFF97B400
4FFFFDFFC17FFFFFF200
09FFFFFC101EFFFF7000
007DFD700002ADA40000
ENDCHAR
STARTCHAR acircumflex
ENCODING 226
SWIDTH 541 0
DWIDTH 20 0
BBX 19 28 1 0
BITMAP
00000000000000750000
0000000000000AFF7000
000000000001BFFFB000
00000000003DFFFFE000
0000000007FFF7FFF300
00000004CFFD30DFF800
000001CFFFA1007FFE10
000000AEB400000AFD20
00000000000000000000
00000000000000000000
000000028DFD811BEB10
0000008FFFFFFCBFFF60
00001BFFE612CFFFFD00
0001CFFD20005FFFF600
000BFFE200005FFFE000
007FFF500000BFFF7000
02FFFC000001FFFE1000
09FFF5000007FFF80000
1FFFD000000DFFF20000
5FFF9000006FFFB00000
9FFF500001EFFF500000
BFFF300009FFFF100000
CFFF20004FFFFD000000
CFFF2002EFAFFE000000
9FFF604EF99FFF97B400
4FFFFDFFC17FFFFFF200
09FFFFFC101EFFFF7000
007DFD700002ADA40000
ENDCHAR
STARTCHAR atilde
ENCODING 227
SWIDTH 541 0
DWIDTH 20 0
BBX 20 27 1 0
BITMAP
0000000018DEA2000099
00000002DFFFFD1003FA
0000001DFFFFFFB14DF6
0000007FC23EFFFFFFB0
000000CE2004FFFFFB10
000000B700004DFC6000
00000000000000000000
00000000000000000000
00000000000000000000
000000028DFD811BEB10
0000008FFFFFFCBFFF60
00001BFFE612CFFFFD00
0001CFFD20005FFFF600
000BFFE200005FFFE000
007FFF500000BFFF7000
02FFFC000001FFFE1000
09FFF5000007FFF80000
1FFFD000000DFFF20000
5FFF9000006FFFB00000
9FFF500001EFFF500000
BFFF300009FFFF100000
CFFF20004FFFFD000000
CFFF2002EFAFFE000000
9FFF604EF99FFF97B400
4FFFFDFFC17FFFFFF200
09FFFFFC101EFFFF7000
007DFD700002ADA40000
ENDCHAR
STARTCHAR adieresis
ENCODING 228
SWIDTH 541 0
DWIDTH 20 0
BBX 20 27 1 0
BITMAP
00000019EE900009EEA1
000000AFFFF6008FFFF8
000000CFFFF700BFFFF8
0000009FFFF2008FFFF3
0000001CFE50001CFE60
00000000300000003100
00000000000000000000
00000000000000000000
00000000000000000000
000000028DFD811BEB10
0000008FFFFFFCBFFF60
00001BFFE612CFFFFD00
0001CFFD20005FFFF600
000BFFE200005FFFE000
007FFF500000BFFF7000
02FFFC000001FFFE1000
09FFF5000007FFF80000
1FFFD000000DFFF20000
5FFF9000006FFFB00000
9FFF500001EFFF500000
BFFF300009FFFF100000
CFFF20004FFFFD000000
CFFF2002EFAFFE000000
9FFF604EF99FFF97B400
4FFFFDFFC17FFFFFF200
09FFFFFC101EFFFF7000
007DFD700002ADA40000
ENDCHAR
STARTCHAR aring
ENCODING 229
SWIDTH 541 0
DWIDTH 20 0
BBX 19 28 1 0
BITMAP
000000000029DFEB4000
0000000005EFFFFFF400
000000003FFE518FFA00
00000000BFF6005FFB00
00000000EFF2009FF800
00000000DFF616FFE200
000000007FFFFFFE4000
0000000005CEFD810000
00000000000000000000
00000000000000000000
000000028DFD811BEB10
0000008FFFFFFCBFFF60
00001BFFE612CFFFFD00
0001CFFD20005FFFF600
000BFFE200005FFFE000
007FFF500000BFFF7000
02FFFC000001FFFE1000
09FFF5000007FFF80000
1FFFD000000DFFF20000
5FFF9000006FFFB00000
9FFF500001EFFF500000
BFFF300009FFFF100000
CFFF20004FFFFD000000
CFFF2002EFAFFE000000
9FFF604EF99FFF97B400
4FFFFDFFC17FFFFFF200
09FFFFFC101EFFFF7000
007DFD700002ADA40000
ENDCHAR
STARTCHAR ae
ENCODING 230
SWIDTH 769 0
DWIDTH 28 0
BBX 27 18 1 0
BITMAP
000000028DFD811BEB59DEEB3000
0000008FFFFFFCBFFFFFFFFFE300
00001BFFE712DFFFFFF714FFFC00
0001CFFE30005FFFFF4000EFFF10
000BFFE300005FFFF80000FFFF20
007FFF600000AFFFD10005FFFF10
02FFFD000000EFFF60001DFFFC00
09FFF5000005FFFE0000BFFFF400
1FFFE000000BFFF9001BFFFF8000
5FFF9000003FFFF428EFFFF70000
9FFF500000AFFFFEFFFFF9200000
BFFF300003FFFFFFDCA620000000
CFFF10000CFFFFF2000000000000
CFFF20008FDDFFF2000000140000
9FFF3005FF39FFF6000004EF0000
4FFFA16FF503FFFE4015BFFD0000
09FFFFFE40006FFFFFFFFFB20000
007DFD810000029DFFEC93000000
ENDCHAR
STARTCHAR ccedilla
ENCODING 231
SWIDTH 465 0
DWIDTH 17 0
BBX 16 26 1 -8
BITMAP
000000038CEEC600
000001AFFFFFFF90
00003EFFE612EFF2
0004EFFD2000CFF6
002EFFE30001FFF6
00BFFF700009FFF4
05FFFC00007FFFD0
0CFFF60000EFFF50
3FFFE000008FF800
7FFFA00000011000
AFFF600000000000
CFFF300000000000
CFFF200000000000
CFFF300000077000
8FFF7000008FA000
2FFFE5115CFF3000
05FFFFFFFFE40000
003AFFFEB6100000
00008FC000000000
00003FF400000000
00003FF800000000
00009FF800000000
0006FFF600000000
03CFFFF100000000
03FFFF7000000000
008ED60000000000
ENDCHAR
STARTCHAR egrave
ENCODING 232
SWIDTH 471 0
DWIDTH 17 0
BBX 16 28 1 0
BITMAP
000000003CE90000
00000001EFFC0000
00000003FFFB0000
00000002FFFA0000
00000000DFFB0000
000000006FFD0000
000000000BFF2000
0000000001CF9000
0000000000064000
0000000000000000
000000017CEEC600
0000007EFFFFFF70
00001BFFE517FFF1
0001BFFE2002FFF5
0009FFF40003FFF6
005FFFB00008FFF5
01EFFF30002EFFF1
07FFFB0002DFFF80
0DFFF6004EFFFB00
3FFFF25BFFFF8000
6FFFFFFFFF920000
8FFFEBA841000000
8FFF600000000000
6FFF700000017100
2FFFB000002CF400
0AFFF71149FFF200
01CFFFFFFFFD4000
0006CEFEC9500000
ENDCHAR
STARTCHAR eacute
ENCODING 233
SWIDTH 471 0
DWIDTH 17 0
BBX 16 28 1 0
BITMAP
000000000001DE50
000000000005FFF1
00000000000BFFF3
00000000003FFFD0
0000000000CFFF40
0000000008FFF600
000000006FFE5000
00000006FFA20000
0000000372000000
0000000000000000
000000017CEEC600
0000007EFFFFFF70
00001BFFE517FFF1
0001BFFE2002FFF5
0009FFF40003FFF6
005FFFB00008FFF5
01EFFF30002EFFF1
07FFFB0002DFFF80
0DFFF6004EFFFB00
3FFFF25BFFFF8000
6FFFFFFFFF920000
8FFFEBA841000000
8FFF600000000000
6FFF700000017100
2FFFB000002CF400
0AFFF71149FFF200
01CFFFFFFFFD4000
0006CEFEC9500000
ENDCHAR
STARTCHAR ecircumflex
ENCODING 234
SWIDTH 471 0
DWIDTH 17 0
BBX 17 28 1 0
BITMAP
000000000000282000
000000000003EFE100
00000000004EFFF500
0000000007FFFFF800
00000002BFFCAFFC00
0000017EFFA14FFF20
00004EFFE6000DFF90
00003DE8100003DFA0
000000000000000000
000000000000000000
000000017CEEC60000
0000007EFFFFFF7000
00001BFFE517FFF100
0001BFFE2002FFF500
0009FFF40003FFF600
005FFFB00008FFF500
01EFFF30002EFFF100
07FFFB0002DFFF8000
0DFFF6004EFFFB0000
3FFFF25BFFFF800000
6FFFFFFFFF92000000
8FFFEBA84100000000
8FFF60000000000000
6FFF70000001710000
2FFFB000002CF40000
0AFFF71149FFF20000
01CFFFFFFFFD400000
0006CEFEC950000000
ENDCHAR
STARTCHAR edieresis
ENCODING 235
SWIDTH 471 0
DWIDTH 17 0
BBX 19 27 1 0
BITMAP
000003CFD50003BFD600
00001EFFFF100EFFFF20
00003FFFFF102FFFFF30
00001EFFFB000EFFFC00
000005FFC20004EFC200
00000012000000120000
00000000000000000000
00000000000000000000
00000000000000000000
000000017CEEC6000000
0000007EFFFFFF900000
00001BFFD516FFF20000
0001BFFD1002FFF60000
0009FFF20004FFF60000
005FFF80000AFFF30000
01EFFE10007FFFC00000
07FFF80008FFFE300000
0DFFF305CFFFD3000000
3FFFFBEFFFD600000000
6FFFFEDB740000000000
8FFF6000000000000000
8FFF6000000000000000
6FFF80000004E2000000
2FFFD000006EF5000000
0AFFF8115BFFE1000000
01CFFFFFFFFC20000000
0006CEFEC94000000000
ENDCHAR
STARTCHAR igrave
ENCODING 236
SWIDTH 286 0
DWIDTH 10 0
BBX 9 28 1 0
BITMAP
00001AED10
0000BFFF10
0000EFFF00
0000DFFF00
00008FFF00
00002FFF20
000007FF70
0000009FE0
0000000460
0000000000
0007DFE900
001FFFFF10
0005FFFF00
0002FFFB00
0005FFF600
000AFFE100
001EFF9000
007FFF2000
00DFFB0000
05FFF40000
0BFFC00000
2FFF600000
7FFF100000
CFFC000000
FFFC000000
EFFFFF8000
AFFFFF3000
1AEEB40000
ENDCHAR
STARTCHAR iacute
ENCODING 237
SWIDTH 286 0
DWIDTH 10 0
BBX 12 28 1 0
BITMAP
00000000AF90
00000001FFF5
00000007FFF7
0000000DFFF3
0000008FFF80
000004FFFA00
00003EFF8000
0002EFC40000
000174000000
000000000000
0007DFE90000
001FFFFF1000
0005FFFF0000
0002FFFB0000
0005FFF60000
000AFFE10000
001EFF900000
007FFF200000
00DFFB000000
05FFF4000000
0BFFC0000000
2FFF60000000
7FFF10000000
CFFC00000000
FFFC00000000
EFFFFF800000
AFFFFF300000
1AEEB4000000
ENDCHAR
STARTCHAR icircumflex
ENCODING 238
SWIDTH 286 0
DWIDTH 10 0
BBX 14 28 1 0
BITMAP
00000000084000
00000001BFF500
0000002CFFF900
000004EFFFFC00
00008FFE8FFF10
004DFFD20EFF60
1CFFF91009FFD0
1BEA300001BFD1
00000000000000
00000000000000
0007DFE9000000
001FFFFF100000
0005FFFF000000
0002FFFB000000
0005FFF6000000
000AFFE1000000
001EFF90000000
007FFF20000000
00DFFB00000000
05FFF400000000
0BFFC000000000
2FFF6000000000
7FFF1000000000
CFFC0000000000
FFFC0000000000
EFFFFF80000000
AFFFFF30000000
1AEEB400000000
ENDCHAR
STARTCHAR idieresis
ENCODING 239
SWIDTH 286 0
DWIDTH 10 0
BBX 15 27 1 0
BITMAP
01AEE80001AEE900
0BFFFF500AFFFF60
0EFFFF600DFFFF70
0BFFFE100AFFFF20
02DFE40002DFE500
0013000000030000
0000000000000000
0000000000000000
0000000000000000
0007DFE900000000
001FFFFF10000000
0005FFFF00000000
0002FFFB00000000
0005FFF600000000
000AFFE100000000
001EFF9000000000
007FFF2000000000
00DFFB0000000000
05FFF40000000000
0BFFC00000000000
2FFF600000000000
7FFF100000000000
CFFC000000000000
FFFC000000000000
EFFFFF8000000000
AFFFFF3000000000
1AEEB40000000000
ENDCHAR
STARTCHAR eth
ENCODING 240
SWIDTH 524 0
DWIDTH 19 0
BBX 22 30 1 0
BITMAP
0000000000001730000000
0000000000004FF4000000
0000000000000AFD100000
00000000000002FF700000
00000000000000BFEBEE90
00000000000005DFFFFFF6
000000000003CFFFFEA872
00000000006FFFCFFC0000
0000000004FD712FFE0000
000000000350002FFF0000
000000000000003FFF0000
000000000000004FFE0000
000000028CEEA27FFD0000
0000007FFFFFFECFFC0000
00001BFFE612BFFFF90000
0000BFFE20003FFFF60000
0009FFF400000EFFF30000
005FFF8000002FFFD00000
01DFFE1000007FFF800000
06FFF8000000DFFF300000
0DFFF2000004FFFC000000
3FFFC000000BFFF5000000
6FFF8000003FFFD0000000
9FFF500000BFFF40000000
9FFF400005FFF900000000
8FFF40001DFFD100000000
6FFF6000BFFE2000000000
1EFFC23BFFD20000000000
06FFFFFFF9100000000000
004CEEC930000000000000
ENDCHAR
STARTCHAR ntilde
ENCODING 241
SWIDTH 561 0
DWIDTH 20 0
BBX 21 27 0 0
BITMAP
00000000018DEB20000990
000000002DFFFFD1003FB0
00000001DFFFFFFB14DF60
00000007FC23EFFFFFFB00
0000000CE2004FFFFFB100
0000000B700004DFC60000
0000000000000000000000
0000000000000000000000
0000000000000000000000
00007DFC200006DFC50000
0001FFFFC001BFFFFF4000
00006FFFD00BFFFFFFA000
00002FFFA0AFD34FFFB000
00005FFF57FD104FFF9000
00009FFE4FE200AFFF5000
0000EFFAEF3002FFFD0000
0004FFFDF5000AFFF70000
000AFFFF80002FFFE10000
001FFFFB00008FFF800000
007FFFD10000EFFF100000
00DFFF400004FFF9000000
05FFFB000008FFF4000000
0BFFF300000BFFF0000000
4FFFB000000CFFE1272000
BFFF4000000BFFFFFF2000
DFFC00000005FFFFF90000
3CE3000000005DFD600000
ENDCHAR
STARTCHAR ograve
ENCODING 242
SWIDTH 514 0
DWIDTH 19 0
BBX 17 28 1 0
BITMAP
00000000006DE50000
0000000005FFF70000
0000000008FFF70000
0000000007FFF60000
0000000002FFF60000
0000000000AFF80000
00000000002EFD0000
000000000003EF5000
000000000000172000
000000000000000000
000000039DEEC60000
000001AFFFFFFFA000
00003EFFF714FFF600
0003EFFF4000BFFD00
001DFFF60000AFFF20
009FFFB00000AFFF40
03FFFF300000CFFF30
0AFFFA000001FFFF10
1FFFF3000005FFFD00
5FFFD000000AFFF900
8FFF8000002FFFF400
AFFF5000009FFFC000
AFFF300003FFFF3000
9FFF20000CFFF80000
6FFF4000AFFFB00000
1EFFA13BFFFA100000
04EFFFFFFE70000000
0029DFEC7100000000
ENDCHAR
STARTCHAR oacute
ENCODING 243
SWIDTH 514 0
DWIDTH 19 0
BBX 17 28 1 0
BITMAP
00000000000004FD20
0000000000000AFFB0
0000000000001EFFD0
0000000000008FFF90
000000000002EFFD10
00000000001CFFE300
0000000000BFFC2000
000000000AFE800000
000000000561000000
000000000000000000
000000039DEEC60000
000001AFFFFFFFA000
00003EFFF714FFF600
0003EFFF4000BFFD00
001DFFF60000AFFF20
009FFFB00000AFFF40
03FFFF300000CFFF30
0AFFFA000001FFFF10
1FFFF3000005FFFD00
5FFFD000000AFFF900
8FFF8000002FFFF400
AFFF5000009FFFC000
AFFF300003FFFF3000
9FFF20000CFFF80000
6FFF4000AFFFB00000
1EFFA13BFFFA100000
04EFFFFFFE70000000
0029DFEC7100000000
ENDCHAR
STARTCHAR ocircumflex
ENCODING 244
SWIDTH 514 0
DWIDTH 19 0
BBX 19 28 1 0
BITMAP
00000000000000571000
00000000000006FFB000
0000000000008FFFF100
00000000001BFFFFF400
0000000004DFF9DFF800
000000029FFF709FFD00
0000008FFFC3003FFF40
0000006ED6000006EE60
00000000000000000000
00000000000000000000
000000039DEEC6000000
000001AFFFFFFFA00000
00003EFFF714FFF60000
0003EFFF4000BFFD0000
001DFFF60000AFFF2000
009FFFB00000AFFF4000
03FFFF300000CFFF3000
0AFFFA000001FFFF1000
1FFFF3000005FFFD0000
5FFFD000000AFFF90000
8FFF8000002FFFF40000
AFFF5000009FFFC00000
AFFF300003FFFF300000
9FFF20000CFFF8000000
6FFF4000AFFFB0000000
1EFFA13BFFFA10000000
04EFFFFFFE7000000000
0029DFEC710000000000
ENDCHAR
STARTCHAR otilde
ENCODING 245
SWIDTH 514 0
DWIDTH 19 0
BBX 20 27 1 0
BITMAP
0000000006CFC400004D
00000000AFFFFF4000DF
00000009FFFFFFE32BFA
0000003FE41BFFFFFFE2
0000008F6001DFFFFD30
0000006B00002BFD8100
00000000000000000000
00000000000000000000
00000000000000000000
000000039DEEC6000000
000001AFFFFFFFA00000
00003EFFF714FFF60000
0003EFFF4000BFFD0000
001DFFF60000AFFF2000
009FFFB00000AFFF4000
03FFFF300000CFFF3000
0AFFFA000001FFFF1000
1FFFF3000005FFFD0000
5FFFD000000AFFF90000
8FFF8000002FFFF40000
AFFF5000009FFFC00000
AFFF300003FFFF300000
9FFF20000CFFF8000000
6FFF4000AFFFB0000000
1EFFA13BFFFA10000000
04EFFFFFFE7000000000
0029DFEC710000000000
ENDCHAR
STARTCHAR odieresis
ENCODING 246
SWIDTH 514 0
DWIDTH 19 0
BBX 20 27 1 0
BITMAP
00000006DFB20005DFC3
0000005FFFFB004FFFFC
0000008FFFFC006FFFFD
0000005FFFF7003FFFF8
00000009FF900008FFA1
00000000210000002100
00000000000000000000
00000000000000000000
00000000000000000000
000000039DEEC6000000
000001AFFFFFFFA00000
00003EFFF714FFF60000
0003EFFF4000BFFD0000
001DFFF60000AFFF2000
009FFFB00000AFFF4000
03FFFF300000CFFF3000
0AFFFA000001FFFF1000
1FFFF3000005FFFD0000
5FFFD000000AFFF90000
8FFF8000002FFFF40000
AFFF5000009FFFC00000
AFFF300003FFFF300000
9FFF20000CFFF8000000
6FFF4000AFFFB0000000
1EFFA13BFFFA10000000
04EFFFFFFE7000000000
0029DFEC710000000000
ENDCHAR
STARTCHAR divide
ENCODING 247
SWIDTH 617 0
DWIDTH 22 0
BBX 19 18 2 4
BITMAP
00000000376100000000
00000003FFFE20000000
00000008FFFF40000000
00000006FFFE10000000
00000000AFE500000000
00000000010000000000
00000000000000000000
00000000000000000000
09EFFFFFFFFFFFFFFF70
1EFFFFFFFFFFFFFFFC30
00000000000000000000
00000000000000000000
00000000000000000000
00000004DEC300000000
0000000DFFFD00000000
0000000EFFFC00000000
00000009FFF500000000
00000000694000000000
ENDCHAR
STARTCHAR oslash
ENCODING 248
SWIDTH 514 0
DWIDTH 19 0
BBX 18 24 1 -3
BITMAP
000000000000006EE9
00000000000006FFFB
0000000000003FFFD1
000000039DEEEFFE20
000001AFFFFFFFF400
00003EFFF71AFFF700
0003EFFF403FFFFD00
001DFFF600CE9FFF20
009FFFA006F67FFF40
03FFFF201EB09FFF30
0AFFF9009E20DFFF20
1FFFF203F702FFFE00
5FFFB00CD008FFF900
8FFF706F401EFFF400
AFFF31EA007FFFC000
AFFF19F201EFFF3000
9FFF3F800BFFF90000
5FFFCE109FFFB00000
0DFFF72AFFFB100000
03FFFFFFFE70000000
05FFFFEC7100000000
0CFF30000000000000
1FF900000000000000
1CD100000000000000
ENDCHAR
STARTCHAR ugrave
ENCODING 249
SWIDTH 553 0
DWIDTH 20 0
BBX 20 28 0 0
BITMAP
0000000000008EE30000
000000000008FFF40000
00000000000BFFF30000
00000000000AFFF30000
000000000006FFF30000
000000000000DFF50000
0000000000004FF90000
00000000000006FF2000
00000000000000371000
00000000000000000000
00005CFD600000007EC3
0000EFFFF1000003FFF9
00003FFFF100000CFFF3
00001FFFE000006FFFB0
00005FFF900001EFFF40
0000AFFF400008FFFC00
0002FFFD00002FFFF500
0008FFF80000BFFFD000
001EFFF10005FFFF7000
007FFFA0002EFFFF1000
00DFFF3000BFDFFA0000
04FFFB0008FBBFF50000
0AFFF4006FD2FFF10000
0EFFD005FE35FFE00000
1FFFC17FF508FFF21600
1FFFFFFF5009FFFFFE00
0BFFFFE50005FFFFF700
01AEE92000007EEC5000
ENDCHAR
STARTCHAR uacute
ENCODING 250
SWIDTH 553 0
DWIDTH 20 0
BBX 20 28 0 0
BITMAP
0000000000000007FB10
000000000000000DFF80
000000000000004FFFA0
00000000000000BFFF50
00000000000005FFFB00
0000000000002EFFC100
000000000001DFFA1000
00000000001DFD600000
00000000000750000000
00000000000000000000
00005CFD600000007EC3
0000EFFFF1000003FFF9
00003FFFF100000CFFF3
00001FFFE000006FFFB0
00005FFF900001EFFF40
0000AFFF400008FFFC00
0002FFFD00002FFFF500
0008FFF80000BFFFD000
001EFFF10005FFFF7000
007FFFA0002EFFFF1000
00DFFF3000BFDFFA0000
04FFFB0008FBBFF50000
0AFFF4006FD2FFF10000
0EFFD005FE35FFE00000
1FFFC17FF508FFF21600
1FFFFFFF5009FFFFFE00
0BFFFFE50005FFFFF700
01AEE92000007EEC5000
ENDCHAR
STARTCHAR ucircumflex
ENCODING 251
SWIDTH 553 0
DWIDTH 20 0
BBX 21 28 0 0
BITMAP
0000000000000000760000
0000000000000009FF8000
00000000000001AFFFC000
0000000000002CFFFFF000
000000000006EFF7FFF400
0000000003BFFE40CFF900
00000000BFFFB1006FFE20
000000009EB4000009FD30
0000000000000000000000
0000000000000000000000
00005CFD600000007EC300
0000EFFFF1000003FFF900
00003FFFF100000CFFF300
00001FFFE000006FFFB000
00005FFF900001EFFF4000
0000AFFF400008FFFC0000
0002FFFD00002FFFF50000
0008FFF80000BFFFD00000
001EFFF10005FFFF700000
007FFFA0002EFFFF100000
00DFFF3000BFDFFA000000
04FFFB0008FBBFF5000000
0AFFF4006FD2FFF1000000
0EFFD005FE35FFE0000000
1FFFC17FF508FFF2160000
1FFFFFFF5009FFFFFE0000
0BFFFFE50005FFFFF70000
01AEE92000007EEC500000
ENDCHAR
STARTCHAR udieresis
ENCODING 252
SWIDTH 553 0
DWIDTH 20 0
BBX 22 27 0 0
BITMAP
0000000009EEA10008EFA1
000000008FFFF8007FFFF9
00000000BFFFF800AFFFFA
000000008FFFF3007FFFF5
000000001CFE60000BFF70
0000000000310000003100
0000000000000000000000
0000000000000000000000
0000000000000000000000
00005CFD600000007EC300
0000EFFFF1000003FFF900
00003FFFF100000CFFF300
00001FFFE000006FFFB000
00005FFF900001EFFF4000
0000AFFF400008FFFC0000
0002FFFD00002FFFF50000
0008FFF80000BFFFD00000
001EFFF10005FFFF700000
007FFFA0002EFFFF100000
00DFFF3000BFDFFA000000
04FFFB0008FBBFF5000000
0AFFF4006FD2FFF1000000
0EFFD005FE35FFE0000000
1FFFC17FF508FFF2160000
1FFFFFFF5009FFFFFE0000
0BFFFFE50005FFFFF70000
01AEE92000007EEC500000
ENDCHAR
STARTCHAR yacute
ENCODING 253
SWIDTH 549 0
DWIDTH 20 0
BBX 19 38 1 -10
BITMAP
00000000000006FC1000
0000000000000CFF9000
0000000000003FFFB000
000000000000AFFF7000
000000000004FFFC0000
00000000001DFFD10000
0000000001CFFB100000
000000000CFE60000000
00000000065100000000
00000000000000000000
0003CFE800000005ED50
000BFFFF4000001EFFC0
0001EFFF4000009FFF70
0000DFFF200003FFFF10
0002FFFC00000BFFFB00
0007FFF700004FFFF600
000DFFF10000CFFFF100
005FFFA00006FFFFA000
00CFFF40001EFFFF5000
04FFFC00009FFFFE0000
0BFFF50006FEFFF90000
2FFFD0003FF8FFF40000
7FFF7002EF6AFFD00000
CFFF102DF91EFF800000
EFFE15EFB05FFF200000
DFFFFFFC10AFFB000000
9FFFFF9101FFF5000000
19EEB40007FFD0000000
000000000EFF60000000
000000006FFD00000000
00000001EFF500000000
0000000AFFB000000000
0000008FFE2000000000
000007FFF40000000000
00009FFF700000000000
005CFFF8000000000000
0BFFFE60000000000000
02AB8100000000000000
ENDCHAR
STARTCHAR thorn
ENCODING 254
SWIDTH 552 0
DWIDTH 20 0
BBX 22 39 -3 -10
BITMAP
000000000001CE60000000
000000000004FFF1000000
000000000007FFF0000000
00000000000BFFD0000000
00000000000EFF90000000
00000000003FFF50000000
00000000007FFF10000000
0000000000CFFB00000000
0000000001FFF600000000
0000000006FFF100000000
000000000BFFA000000000
000000001FFF405BEEC500
000000005FFD2BFFFFFF50
00000000AFF9DFC31DFFE0
00000001FFFDFB0008FFF4
00000005FFFFC10006FFF7
0000000AFFFE200006FFF8
0000000EFFF6000008FFF7
0000005FFFC000000BFFF5
0000009FFF3000001FFFF2
000000EFFC0000006FFFC0
000004FFF5000000DFFF60
000008FFF1000006FFFD00
00000DFFC000001EFFF300
00003FFFB00000BFFF7000
00007FFFE0001BFFF80000
0000CFFFFA57EFFF700000
0002FFF9FFFFFFD4000000
0007FFE14CEEB600000000
000DFFA000000000000000
003FFF5000000000000000
009FFE0000000000000000
00EFF90000000000000000
06FFF40000000000000000
0DFFD00000000000000000
5FFF700000000000000000
CFFF100000000000000000
FFF9000000000000000000
8EB1000000000000000000
ENDCHAR
STARTCHAR ydieresis
ENCODING 255
SWIDTH 549 0
DWIDTH 20 0
BBX 20 37 1 -10
BITMAP
00000008EFA10007EFB2
0000007FFFF9006FFFFA
000000AFFFFA008FFFFB
0000007FFFF5005FFFF6
0000000BFF70000AFF80
00000000310000002100
00000000000000000000
00000000000000000000
00000000000000000000
0003CFE800000005ED50
000BFFFF4000001EFFC0
0001EFFF4000009FFF70
0000DFFF200003FFFF10
0002FFFC00000BFFFB00
0007FFF700004FFFF600
000DFFF10000CFFFF100
005FFFA00006FFFFA000
00CFFF40001EFFFF5000
04FFFC00009FFFFE0000
0BFFF50006FEFFF90000
2FFFD0003FF8FFF40000
7FFF7002EF6AFFD00000
CFFF102DF91EFF800000
EFFE15EFB05FFF200000
DFFFFFFC10AFFB000000
9FFFFF9101FFF5000000
19EEB40007FFD0000000
000000000EFF60000000
000000006FFD00000000
00000001EFF500000000
0000000AFFB000000000
0000008FFE2000000000
000007FFF40000000000
00009FFF700000000000
005CFFF8000000000000
0BFFFE60000000000000
02AB8100000000000000
ENDCHAR
STARTCHAR Amacron
ENCODING 256
SWIDTH 615 0
DWIDTH 22 0
BBX 30 33 -3 0
BITMAP
000000000000000002CFFFFFFFFFF5
00000000000000000DFFFFFFFFFFF3
00000000000000001DFFFFFFFFFE40
000000000000000000000000000000
000000000000000000000000000000
000000000000000000000000000000
0000000000000000000005ADFD2000
00000000000000000005DFFFFF5000
000000000000000001AFFFDFFF1000
00000000000000002CFFA2BFFB0000
0000000000000002DFF503FFF60000
000000000000001DFE400AFFE10000
00000000000000BFF5002FFFA00000
00000000000009FF70008FFF400000
0000000000006FFB0000EFFE000000
000000000002EFE20005FFF8000000
00000000000BFF60000BFFF3000000
00000000006FFC00001FFFD0000000
0000000001EFF300006FFF70000000
0000000009FFD9BDEEFFFFFFE40000
00000017CFFFFFFFFFFFFFFFF20000
000002DFFFFFFFFFFFFFFFEB500000
000005ACFFB000000AFFF300000000
0000001EFF3000000EFFE000000000
0000008FFA0000003FFFA000000000
000002FFF20000006FFF6000000000
00000BFF900000009FFF2000000000
00005FFE20000000CFFF0000000000
0002EFF700000000DFFF0000000000
002DFFD000000000DFFF3163000000
04DFFE3000000000BFFFFFF6000000
BFFFF400000000005FFFFFC1000000
7EEA30000000000006DFD810000000
ENDCHAR
STARTCHAR amacron
ENCODING 257
SWIDTH 543 0
DWIDTH 20 0
BBX 19 24 1 0
BITMAP
00000009FFFFFFFFFF90
0000009FFFFFFFFFFF70
000000AFFFFFFFFFF800
00000000000000000000
00000000000000000000
00000000000000000000
000000028DFD911BEB10
0000007FFFFFFCBFFF60
00001BFFE712CFFFFE10
0001CFFD20004FFFF700
000BFFE200005FFFE100
007FFF600000AFFF7000
01EFFD000001EFFE1000
09FFF5000007FFF90000
1EFFE000000DFFF20000
5FFF9000006FFFB00000
9FFF600001DFFF600000
BFFF300008FFFF100000
CFFF20004FFFFE000000
BFFF2002EFAFFE000000
8FFF703DFA8FFF97B400
3FFFFDFFD16FFFFFF200
09FFFFFC201DFFFF7000
007DFD700002ADB40000
ENDCHAR
STARTCHAR Abreve
ENCODING 258
SWIDTH 615 0
DWIDTH 22 0
BBX 30 35 -3 0
BITMAP
00000000000000000005EA000000B8
0000000000000000001FFE000009F9
0000000000000000004FFF8004CFF3
0000000000000000002FFFFFEFFF60
00000000000000000008FFFFFFE500
000000000000000000005CEEC71000
000000000000000000000000000000
000000000000000000000000000000
0000000000000000000005ADFD2000
00000000000000000005DFFFFF5000
000000000000000001AFFFDFFF1000
00000000000000002CFFA2BFFB0000
0000000000000002DFF503FFF60000
000000000000001DFE400AFFE10000
00000000000000BFF5002FFFA00000
00000000000009FF70008FFF400000
0000000000006FFB0000EFFE000000
000000000002EFE20005FFF8000000
00000000000BFF60000BFFF3000000
00000000006FFC00001FFFD0000000
0000000001EFF300006FFF70000000
0000000009FFD9BDEEFFFFFFE40000
00000017CFFFFFFFFFFFFFFFF20000
000002DFFFFFFFFFFFFFFFEB500000
000005ACFFB000000AFFF300000000
0000001EFF3000000EFFE000000000
0000008FFA0000003FFFA000000000
000002FFF20000006FFF6000000000
00000BFF900000009FFF2000000000
00005FFE20000000CFFF0000000000
0002EFF700000000DFFF0000000000
002DFFD000000000DFFF3163000000
04DFFE3000000000BFFFFFF6000000
BFFFF400000000005FFFFFC1000000
7EEA30000000000006DFD810000000
ENDCHAR
STARTCHAR abreve
ENCODING 259
SWIDTH 543 0
DWIDTH 20 0
BBX 19 27 1 0
BITMAP
000000001BE0000005C0
00000000AFF200001DF0
00000000EFF70001CFA0
00000000EFFE314DFE20
00000000AFFFFFFFF500
000000002DFFFFFE4000
00000000019DDB710000
00000000000000000000
00000000000000000000
000000028DFD911BEB10
0000007FFFFFFCBFFF60
00001BFFE712CFFFFE10
0001CFFD20004FFFF700
000BFFE200005FFFE100
007FFF600000AFFF7000
01EFFD000001EFFE1000
09FFF5000007FFF90000
1EFFE000000DFFF20000
5FFF9000006FFFB00000
9FFF600001DFFF600000
BFFF300008FFFF100000
CFFF20004FFFFE000000
BFFF2002EFAFFE000000
8FFF703DFA8FFF97B400
3FFFFDFFD16FFFFFF200
09FFFFFC201DFFFF7000
007DFD700002ADB40000
ENDCHAR
STARTCHAR Aogonek
ENCODING 260
SWIDTH 615 0
DWIDTH 22 0
BBX 27 36 -3 -9
BITMAP
0000000000000000000005ADFD20
00000000000000000005DFFFFF50
000000000000000001AFFFDFFF10
00000000000000002CFFA2BFFB00
0000000000000002DFF503FFF600
000000000000001DFE400AFFE100
00000000000000CFF5002FFFA000
00000000000009FF70008FFF4000
0000000000006FFB0000EFFE0000
000000000002EFE20005FFF80000
00000000000BFF60000BFFF30000
00000000006FFC00001FFFD00000
0000000001EFF300006FFF700000
000000000AFFD9BDEEFFFFFFE400
00000017DFFFFFFFFFFFFFFFF200
000002DFFFFFFFFFFFFFFFEB5000
0000059CFFB000000AFFF3000000
0000001EFF3000000EFFE0000000
0000008FFA0000003FFFA0000000
000002FFF20000006FFF60000000
00000BFF900000009FFF20000000
00005FFE20000000CFFF00000000
0002EFF700000000DFFF00000000
002DFFD000000000DFFF42630000
04DFFE3000000000BFFFFFF60000
BFFFF400000000005FFFFFD10000
7EEA30000000000006FFFA100000
00000000000000001AFE30000000
0000000000000000BFE300000000
0000000000000009FF5000000000
000000000000004FFC0000000000
00000000000000CFF80000000000
00000000000002FFFA1730000000
00000000000003FFFFFF30000000
00000000000001EFFFF800000000
000000000000004CDB4000000000
ENDCHAR
STARTCHAR aogonek
ENCODING 261
SWIDTH 541 0
DWIDTH 20 0
BBX 19 27 1 -9
BITMAP
000000028DFD811BEB10
0000008FFFFFFCBFFF60
00001BFFE612CFFFFD00
0001CFFD20005FFFF600
000BFFE200005FFFE000
007FFF500000BFFF7000
02FFFC000001FFFE1000
09FFF5000007FFF80000
1FFFD000000DFFF20000
5FFF9000006FFFB00000
9FFF500001EFFF500000
BFFF300009FFFF100000
CFFF20004FFFFD000000
CFFF2002EFAFFE000000
9FFF604EF99FFF97B400
4FFFFDFFC17FFFFFF300
09FFFFFC102EFFFF8000
007DFD700004DFF70000
000000000005FF600000
00000000005FF6000000
0000000003FFA0000000
000000000CFF30000000
000000005FFE00000000
00000000BFFF24600000
00000000CFFFFF900000
000000008FFFFD100000
000000001ADC71000000
ENDCHAR
STARTCHAR Cacute
ENCODING 262
SWIDTH 533 0
DWIDTH 19 0
BBX 24 35 1 0
BITMAP
00000000000000000000CD60
00000000000000000004FFF2
0000000000000000000BFFF3
0000000000000000006FFFB0
000000000000000005FFFA10
00000000000000005FFD6000
000000000000000037400000
000000000000000000000000
0000000000005ADFEB400000
00000000005DFFFFFFF70000
000000001BFFFC6219FF3000
00000002DFFF800003FF9000
0000002EFFF6000004FFC000
000002DFFF60000009FFC000
00000BFFF90000003FFFA000
00007FFFD1000002DFFF6000
0002FFFF4000002DFFFE1000
000AFFFA000004EFFFF60000
002FFFF300000AFFFFA00000
009FFFB0000004FFF9000000
00EFFF500000003730000000
05FFFE000000000000000000
09FFFA000000000000000000
0CFFF6000000000000000000
0FFFF2000000000000000000
2FFFF0000000000000000000
3FFFE0000000000000000000
4FFFE0000000000000000000
3FFFF0000000000000000000
1FFFF1000000001000000000
0DFFF500000007E300000000
06FFFB000002AFF500000000
00CFFF91138EFFE200000000
001CFFFFFFFFFB3000000000
00005ADEFDB7300000000000
ENDCHAR
STARTCHAR cacute
ENCODING 263
SWIDTH 468 0
DWIDTH 17 0
BBX 19 28 1 0
BITMAP
000000000000000CE700
000000000000003FFF30
000000000000009FFF50
00000000000001FFFE10
0000000000000AFFF600
0000000000006FFF8000
000000000005FFF60000
00000000004FFB300000
00000000002730000000
00000000000000000000
000000028CEFD7000000
0000019FFFFFFFA00000
00003DFFE711DFF40000
0003EFFE3000BFF70000
002EFFF40000EFF70000
00BFFF800007FFF50000
04FFFD10006FFFE10000
0BFFF70000DFFF700000
2FFFF100007FF9000000
6FFFB000000120000000
9FFF7000000000000000
BFFF5000000000000000
BFFF4000000000000000
9FFF4000000680000000
6FFF9000007FB0000000
1DFFF6115BFF40000000
03EFFFFFFFD300000000
0018CEFDA50000000000
ENDCHAR
STARTCHAR Ccircumflex
ENCODING 264
SWIDTH 533 0
DWIDTH 19 0
BBX 24 35 1 0
BITMAP
0000000000000000003C6000
000000000000000005EFF400
00000000000000008FFFFA00
000000000000003CFFEFFF20
0000000000003AFFF82FFFC0
000000000001FFFC4006FFF7
000000000000374000002771
000000000000000000000000
0000000000005ADFEB400000
00000000005DFFFFFFF70000
000000001BFFFC6219FF3000
00000002DFFF800003FF9000
0000002EFFF6000004FFC000
000002DFFF60000009FFC000
00000BFFF90000003FFFA000
00007FFFD1000002DFFF6000
0002FFFF4000002DFFFE1000
000AFFFA000004EFFFF60000
002FFFF300000AFFFFA00000
009FFFB0000004FFF9000000
00EFFF500000003730000000
05FFFE000000000000000000
09FFFA000000000000000000
0CFFF6000000000000000000
0FFFF2000000000000000000
2FFFF0000000000000000000
3FFFE0000000000000000000
4FFFE0000000000000000000
3FFFF0000000000000000000
1FFFF1000000001000000000
0DFFF500000007E300000000
06FFFB000002AFF500000000
00CFFF91138EFFE200000000
001CFFFFFFFFFB3000000000
00005ADEFDB7300000000000
ENDCHAR
STARTCHAR ccircumflex
ENCODING 265
SWIDTH 468 0
DWIDTH 17 0
BBX 19 28 1 0
BITMAP
00000000000000750000
0000000000000AFF7000
000000000001BFFFB000
00000000003DFFFFE000
0000000007FFF7FFF300
00000004CFFD30DFF800
000001CFFFA1007FFE10
000000AEB400000AFD20
00000000000000000000
00000000000000000000
000000028CEFD7000000
0000019FFFFFFFA00000
00003DFFE711DFF40000
0003EFFE3000BFF70000
002EFFF40000EFF70000
00BFFF800007FFF50000
04FFFD10006FFFE10000
0BFFF70000DFFF700000
2FFFF100007FF9000000
6FFFB000000120000000
9FFF7000000000000000
BFFF5000000000000000
BFFF4000000000000000
9FFF4000000680000000
6FFF9000007FB0000000
1DFFF6115BFF40000000
03EFFFFFFFD300000000
0018CEFDA50000000000
ENDCHAR
STARTCHAR Cdotaccent
ENCODING 266
SWIDTH 533 0
DWIDTH 19 0
BBX 21 35 1 0
BITMAP
0000000000000002773000
000000000000003EFFF400
00000000000000AFFFF900
00000000000000AFFFF700
000000000000004FFFD100
0000000000000004A81000
0000000000000000000000
0000000000000000000000
0000000000005ADFEB4000
00000000005DFFFFFFF700
000000001BFFFC6219FF30
00000002DFFF800003FF90
0000002EFFF6000004FFC0
000002DFFF60000009FFC0
00000BFFF90000003FFFA0
00007FFFD1000002DFFF60
0002FFFF4000002DFFFE10
000AFFFA000004EFFFF600
002FFFF300000AFFFFA000
009FFFB0000004FFF90000
00EFFF5000000037300000
05FFFE0000000000000000
09FFFA0000000000000000
0CFFF60000000000000000
0FFFF20000000000000000
2FFFF00000000000000000
3FFFE00000000000000000
4FFFE00000000000000000
3FFFF00000000000000000
1FFFF10000000010000000
0DFFF500000007E3000000
06FFFB000002AFF5000000
00CFFF91138EFFE2000000
001CFFFFFFFFFB30000000
00005ADEFDB73000000000
ENDCHAR
STARTCHAR cdotaccent
ENCODING 267
SWIDTH 468 0
DWIDTH 17 0
BBX 16 27 1 0
BITMAP
000000000009EEA1
00000000008FFFF8
0000000000BFFFF8
00000000008FFFF3
00000000001CFE60
0000000000003100
0000000000000000
0000000000000000
0000000000000000
000000028CEFD700
0000019FFFFFFFA0
00003DFFE711DFF4
0003EFFE3000BFF7
002EFFF40000EFF7
00BFFF800007FFF5
04FFFD10006FFFE1
0BFFF70000DFFF70
2FFFF100007FF900
6FFFB00000012000
9FFF700000000000
BFFF500000000000
BFFF400000000000
9FFF400000068000
6FFF9000007FB000
1DFFF6115BFF4000
03EFFFFFFFD30000
0018CEFDA5000000
ENDCHAR
STARTCHAR Ccaron
ENCODING 268
SWIDTH 533 0
DWIDTH 19 0
BBX 25 35 1 0
BITMAP
00000000000002550000000520
0000000000004FFFC100019FA0
0000000000000AFFFB005DFF90
00000000000000DFFF6CFFFB10
000000000000005FFFFFFA3000
000000000000000CFFC6100000
00000000000000017300000000
00000000000000000000000000
0000000000005ADFEB40000000
00000000005DFFFFFFF7000000
000000001BFFFC6219FF300000
00000002DFFF800003FF900000
0000002EFFF6000004FFC00000
000002DFFF60000009FFC00000
00000BFFF90000003FFFA00000
00007FFFD1000002DFFF600000
0002FFFF4000002DFFFE100000
000AFFFA000004EFFFF6000000
002FFFF300000AFFFFA0000000
009FFFB0000004FFF900000000
00EFFF50000000373000000000
05FFFE00000000000000000000
09FFFA00000000000000000000
0CFFF600000000000000000000
0FFFF200000000000000000000
2FFFF000000000000000000000
3FFFE000000000000000000000
4FFFE000000000000000000000
3FFFF000000000000000000000
1FFFF100000000100000000000
0DFFF500000007E30000000000
06FFFB000002AFF50000000000
00CFFF91138EFFE20000000000
001CFFFFFFFFFB300000000000
00005ADEFDB730000000000000
ENDCHAR
STARTCHAR ccaron
ENCODING 269
SWIDTH 468 0
DWIDTH 17 0
BBX 21 27 1 0
BITMAP
0000000028A50000003D50
000000004FFF400005EF90
000000000BFFB0009FFF40
0000000006FFE04DFFD400
0000000001FFFBFFF81000
0000000000DFFFE9200000
00000000007FD710000000
0000000000020000000000
0000000000000000000000
000000028CEFD700000000
0000019FFFFFFFA0000000
00003DFFE711DFF4000000
0003EFFE3000BFF7000000
002EFFF40000EFF7000000
00BFFF800007FFF5000000
04FFFD10006FFFE1000000
0BFFF70000DFFF70000000
2FFFF100007FF900000000
6FFFB00000012000000000
9FFF700000000000000000
BFFF500000000000000000
BFFF400000000000000000
9FFF400000068000000000
6FFF9000007FB000000000
1DFFF6115BFF4000000000
03EFFFFFFFD30000000000
0018CEFDA5000000000000
ENDCHAR
STARTCHAR Dcaron
ENCODING 270
SWIDTH 630 0
DWIDTH 23 0
BBX 23 35 1 0
BITMAP
000000000001451000000430
00000000001EFFE300007FD0
000000000007FFFD103CFFC0
000000000000AFFF8AFFFD30
0000000000002FFFFFFB5000
00000000000009FFD7200000
000000000000006500000000
000000000000000000000000
00000269CDEFEDA720000000
0004CFFFFFFFFFFFFB400000
004FFFFFFFFDDEFFFFF80000
003FFFFE84000029FFFF8000
0007FF91000000003EFFF300
000012003310000005FFFB00
0000001DFFF4000000EFFF10
0000008FFFE2000000AFFF30
000002FFFF700000008FFF40
000009FFFD000000008FFF40
00002FFFF500000000AFFF30
00009FFFC000000000CFFF10
0001EFFF5000000002FFFC00
0007FFFD0000000006FFF800
000DFFF6000000000DFFF200
004FFFE1000000006FFFA000
009FFF9000000001EFFF3000
00EFFF300000000AFFF80000
04FFFD000000006FFFD10000
08FFF800000004FFFE200000
0CFFF30000004EFFF4000000
1FFFD0000005FFFF50000000
3FFFA000008FFFE400000000
4FFF70003CFFFC2000000000
1FFF714AFFFF810000000000
06FFFFFFFFA2000000000000
004AEFEB7200000000000000
ENDCHAR
STARTCHAR dcaron
ENCODING 271
SWIDTH 557 0
DWIDTH 20 0
BBX 29 30 1 0
BITMAP
000000000000000000037300047400
0000000000000000003EFF406FFF30
000000000000000000BFFF10AFFF60
000000000000000003FFFA005FFF50
00000000000000000AFFF3003FFF20
00000000000000001FFFD0005FFB00
00000000000000006FFF7000AFF300
0000000000000000BFFF2005FF6000
0000000000000001FFFB002EF70000
0000000000000006FFF6004A400000
000000000000000BFFF10000000000
000000000000001FFFB00000000000
000000005BEEB45FFF600000000000
0000003CFFFFFFDFFF100000000000
000005FFFA307FFFFB000000000000
00006FFF70000DFFF6000000000000
0004FFF700000CFFF1000000000000
001DFFB000001FFFB0000000000000
00AFFF3000006FFF70000000000000
03FFF9000000CFFF20000000000000
0AFFF3000004FFFD00000000000000
1EFFD000000BFFF900000000000000
4FFF9000005FFFF500000000000000
6FFF700001DFFFF100000000000000
7FFF60000AFFFFD000000000000000
7FFF70008FFDFFA000000000000000
5FFFB019FF6BFFC127100000000000
1EFFFEFFF909FFFFFF100000000000
07FFFFFF8003FFFFF7000000000000
005CEEA300005DFC50000000000000
ENDCHAR
STARTCHAR Dcroat
ENCODING 272
SWIDTH 630 0
DWIDTH 23 0
BBX 22 27 1 0
BITMAP
0000037ACDEFEC96100000
0007DFFFFFFFFFFFF92000
007FFFFFFFEDDEFFFFE500
008FFFFD7300004BFFFF40
001AFF70000000007FFFE1
000021013300000009FFF7
0000002EFFE1000003FFFB
000000BFFFC0000000EFFE
000005FFFF40000000CFFF
00000DFFF900000000CFFF
00006FFFF200000000EFFE
2CFFFFFFFFFFF70001FFFC
CFFFFFFFFFFFF60005FFF8
CFFFFFFFFFFF80000AFFF4
002FFFF2000000002FFFD0
008FFFB000000000AFFF60
00DFFF5000000004FFFD10
03FFFE000000001DFFF400
08FFF900000000AFFF9000
0CFFF400000008FFFC1000
1FFFE00000007FFFD20000
4FFFA0000009FFFD200000
7FFF600001BFFFD2000000
8FFF30005EFFFA10000000
5FFF315CFFFE6000000000
0AFFFFFFFE810000000000
006CEFDA51000000000000
ENDCHAR
STARTCHAR dcroat
ENCODING 273
SWIDTH 557 0
DWIDTH 20 0
BBX 24 30 1 0
BITMAP
000000000000000000027300
0000000000000000003EFF40
000000000000000000CFFF10
000000000000000004FFFA00
00000000000056666BFFF960
00000000001CFFFFFFFFFFF2
00000000004EFFFFFFFFFC40
0000000000000000CFFE0000
0000000000000002FFF90000
0000000000000007FFF40000
000000000000000BFFE00000
000000000000001FFF900000
000000005BEEB45FFF400000
0000003CFFFFFFDFFE000000
000005FFFA307FFFFA000000
00006FFF70000DFFF5000000
0004FFF700000CFFF1000000
001DFFB000001FFFB0000000
00AFFF3000006FFF70000000
03FFF9000000CFFF20000000
0AFFF3000004FFFD00000000
1EFFD000000BFFF900000000
4FFF9000005FFFF500000000
6FFF700001DFFFF100000000
7FFF60000AFFFFD000000000
7FFF70008FFDFFA000000000
5FFFB019FF6BFFC127100000
1EFFFEFFF909FFFFFF100000
07FFFFFF8003FFFFF7000000
005CEEA300005DFC50000000
ENDCHAR
STARTCHAR Emacron
ENCODING 274
SWIDTH 509 0
DWIDTH 18 0
BBX 22 33 1 0
BITMAP
0000000003DFFFFFFFFFE3
000000001EFFFFFFFFFFE1
000000002EFFFFFFFFFD30
0000000000000000000000
0000000000000000000000
0000000000000000000000
000000000049CEFEC71000
000000004CFFFFFFFFD200
00000009FFFFB5203EFB00
000000BFFFE600000BFF00
000009FFFE3000001EFF00
00005FFFF4000000AFFD00
0000DFFF8000001BFFF800
0005FFFD000003DFFFE100
000AFFF700004FFFFF5000
000CFFF200007FFFF70000
000DFFE0000009EC400000
000BFFE000000000000000
0007FFF300000000000000
0000CFFE7AC91000000000
00001AFFFFFF8000000000
00005DFFFFFB5000000000
0009FFFFE7100000000000
009FFFFC20000000000000
06FFFFA000000000000000
0DFFFB0000000000000000
5FFFF20000000200000000
8FFFB00000005F70000000
8FFF80000004FF90000000
5FFFA000006FFF50000000
0CFFF6115CFFF800000000
02CFFFFFFFFD5000000000
0006BDFFDA500000000000
ENDCHAR
STARTCHAR emacron
ENCODING 275
SWIDTH 471 0
DWIDTH 17 0
BBX 18 24 1 0
BITMAP
000003DFFFFFFFFFE3
00001EFFFFFFFFFFE2
00002EFFFFFFFFFD30
000000000000000000
000000000000000000
000000000000000000
000000017CEEC60000
0000007EFFFFFF7000
00001BFFE517FFF100
0001BFFE2002FFF500
0009FFF40003FFF600
005FFFB00008FFF500
01EFFF30002EFFF100
07FFFB0002DFFF8000
0DFFF6004EFFFB0000
3FFFF25BFFFF800000
6FFFFFFFFF92000000
8FFFEBA84100000000
8FFF60000000000000
6FFF70000001710000
2FFFB000002CF40000
0AFFF71149FFF20000
01CFFFFFFFFD400000
0006CEFEC950000000
ENDCHAR
STARTCHAR Ebreve
ENCODING 276
SWIDTH 509 0
DWIDTH 18 0
BBX 22 35 1 0
BITMAP
000000000006E8000001C6
00000000003FFC00001BF7
00000000006FFF7005DFE1
00000000004FFFFEFFFF40
00000000000BFFFFFFD400
0000000000007CEEB71000
0000000000000000000000
0000000000000000000000
000000000049CEFEC71000
000000004CFFFFFFFFD200
00000009FFFFB5203EFB00
000000BFFFE600000BFF00
000009FFFE3000001EFF00
00005FFFF4000000AFFD00
0000DFFF8000001BFFF800
0005FFFD000003DFFFE100
000AFFF700004FFFFF5000
000CFFF200007FFFF70000
000DFFE0000009EC400000
000BFFE000000000000000
0007FFF300000000000000
0000CFFE7AC91000000000
00001AFFFFFF8000000000
00005DFFFFFB5000000000
0009FFFFE7100000000000
009FFFFC20000000000000
06FFFFA000000000000000
0DFFFB0000000000000000
5FFFF20000000200000000
8FFFB00000005F70000000
8FFF80000004FF90000000
5FFFA000006FFF50000000
0CFFF6115CFFF800000000
02CFFFFFFFFD5000000000
0006BDFFDA500000000000
ENDCHAR
STARTCHAR ebreve
ENCODING 277
SWIDTH 471 0
DWIDTH 17 0
BBX 18 27 1 0
BITMAP
00000005E8000000B6
0000002FFB000006F8
0000006FFE10004FF4
0000005FFF9128FFA0
0000002FFFFFFFFC10
00000006FFFFFFB100
000000004BDDA40000
000000000000000000
000000000000000000
000000017CEEC60000
0000007EFFFFFF7000
00001BFFE517FFF100
0001BFFE2002FFF500
0009FFF40003FFF600
005FFFB00008FFF500
01EFFF30002EFFF100
07FFFB0002DFFF8000
0DFFF6004EFFFB0000
3FFFF25BFFFF800000
6FFFFFFFFF92000000
8FFFEBA84100000000
8FFF60000000000000
6FFF70000001710000
2FFFB000002CF40000
0AFFF71149FFF20000
01CFFFFFFFFD400000
0006CEFEC950000000
ENDCHAR
STARTCHAR Edotaccent
ENCODING 278
SWIDTH 509 0
DWIDTH 18 0
BBX 20 35 1 0
BITMAP
00000000000016740000
000000000002DFFF7000
000000000008FFFFC000
000000000008FFFF9000
000000000002EFFE2000
0000000000003A920000
00000000000000000000
00000000000000000000
000000000049CEFEC710
000000004CFFFFFFFFD2
00000009FFFFB5203EFB
000000BFFFE600000BFF
000009FFFE3000001EFF
00005FFFF4000000AFFD
0000DFFF8000001BFFF8
0005FFFD000003DFFFE1
000AFFF700004FFFFF50
000CFFF200007FFFF700
000DFFE0000009EC4000
000BFFE0000000000000
0007FFF3000000000000
0000CFFE7AC910000000
00001AFFFFFF80000000
00005DFFFFFB50000000
0009FFFFE71000000000
009FFFFC200000000000
06FFFFA0000000000000
0DFFFB00000000000000
5FFFF200000002000000
8FFFB00000005F700000
8FFF80000004FF900000
5FFFA000006FFF500000
0CFFF6115CFFF8000000
02CFFFFFFFFD50000000
0006BDFFDA5000000000
ENDCHAR
STARTCHAR edotaccent
ENCODING 279
SWIDTH 471 0
DWIDTH 17 0
BBX 16 27 1 0
BITMAP
0000000003BFD600
000000000EFFFF20
000000002FFFFF30
000000000EFFFC00
0000000004EFC200
0000000000120000
0000000000000000
0000000000000000
0000000000000000
000000017CEEC600
0000007EFFFFFF70
00001BFFE517FFF1
0001BFFE2002FFF5
0009FFF40003FFF6
005FFFB00008FFF5
01EFFF30002EFFF1
07FFFB0002DFFF80
0DFFF6004EFFFB00
3FFFF25BFFFF8000
6FFFFFFFFF920000
8FFFEBA841000000
8FFF600000000000
6FFF700000017100
2FFFB000002CF400
0AFFF71149FFF200
01CFFFFFFFFD4000
0006CEFEC9500000
ENDCHAR
STARTCHAR Eogonek
ENCODING 280
SWIDTH 509 0
DWIDTH 18 0
BBX 20 36 1 -9
BITMAP
000000000049CEFEC710
000000004CFFFFFFFFD2
00000009FFFFB5203EFB
000000BFFFE600000BFF
000009FFFE3000001EFF
00005FFFF4000000AFFD
0000DFFF8000001BFFF8
0005FFFD000003DFFFE1
000AFFF700004FFFFF50
000CFFF200007FFFF700
000DFFE0000009EC4000
000BFFE0000000000000
0007FFF3000000000000
0000CFFE7AC910000000
00001AFFFFFF80000000
00005DFFFFFB50000000
0009FFFFE71000000000
009FFFFC200000000000
06FFFFA0000000000000
0EFFFB00000000000000
5FFFF200000002000000
7FFFB00000005F700000
8FFF80000004FF900000
5FFFA000006FFF600000
0CFFF6115CFFFB000000
02CFFFFFFFFF80000000
0006BEFFFF9200000000
000001BFE50000000000
00001CFF400000000000
0000AFF6000000000000
0005FFC0000000000000
000CFF80000000000000
002FFF91720000000000
003FFFFFF20000000000
001EFFFF700000000000
0005CDB4000000000000
ENDCHAR
STARTCHAR eogonek
ENCODING 281
SWIDTH 471 0
DWIDTH 17 0
BBX 16 27 1 -9
BITMAP
000000017CEEC600
0000007EFFFFFF80
00001BFFE517FFF2
0000BFFE2001FFF5
000AFFF40002FFF6
005FFFB00007FFF5
01EFFF30002EFFE1
07FFFB0002DFFF80
0DFFF6004DFFFB00
3FFFF25AFFFF8000
6FFFFFFFFFA30000
7FFFECB851000000
7FFF600000000000
6FFF700000017100
2FFFC000002CF500
09FFF71149FFF300
01BFFFFFFFFF7000
0006CEFFFFD30000
0000005FFB100000
000006FFA0000000
00004FFC00000000
0000DFF400000000
0006FFE000000000
000BFFE146000000
000CFFFFF9000000
0009FFFFD1000000
0001ADC710000000
ENDCHAR
STARTCHAR Ecaron
ENCODING 282
SWIDTH 509 0
DWIDTH 18 0
BBX 22 35 1 0
BITMAP
0000000000155100000043
0000000002FFFD300007FC
00000000007FFFD004CFFB
00000000000AFFF8BFFFC2
000000000002FFFFFFB500
000000000000AFFD720000
0000000000000640000000
0000000000000000000000
000000000049CEFEC71000
000000004CFFFFFFFFD200
00000009FFFFB5203EFB00
000000BFFFE600000BFF00
000009FFFE3000001EFF00
00005FFFF4000000AFFD00
0000DFFF8000001BFFF800
0005FFFD000003DFFFE100
000AFFF700004FFFFF5000
000CFFF200007FFFF70000
000DFFE0000009EC400000
000BFFE000000000000000
0007FFF300000000000000
0000CFFE7AC91000000000
00001AFFFFFF8000000000
00005DFFFFFB5000000000
0009FFFFE7100000000000
009FFFFC20000000000000
06FFFFA000000000000000
0DFFFB0000000000000000
5FFFF20000000200000000
8FFFB00000005F70000000
8FFF80000004FF90000000
5FFFA000006FFF50000000
0CFFF6115CFFF800000000
02CFFFFFFFFD5000000000
0006BDFFDA500000000000
ENDCHAR
STARTCHAR ecaron
ENCODING 283
SWIDTH 471 0
DWIDTH 17 0
BBX 20 27 1 0
BITMAP
000000049920000007D1
0000000AFFC000019FF3
00000002FFF5003DFFC0
00000000CFF808FFFB10
000000007FFDDFFD5000
000000003FFFFD600000
000000000DFB50000000
00000000012000000000
00000000000000000000
000000017CEEC6000000
0000007EFFFFFF700000
00001BFFE517FFF10000
0001BFFE2002FFF50000
0009FFF40003FFF60000
005FFFB00008FFF50000
01EFFF30002EFFF10000
07FFFB0002DFFF800000
0DFFF6004EFFFB000000
3FFFF25BFFFF80000000
6FFFFFFFFF9200000000
8FFFEBA8410000000000
8FFF6000000000000000
6FFF7000000171000000
2FFFB000002CF4000000
0AFFF71149FFF2000000
01CFFFFFFFFD40000000
0006CEFEC95000000000
ENDCHAR
STARTCHAR Gcircumflex
ENCODING 284
SWIDTH 598 0
DWIDTH 22 0
BBX 24 35 1 0
BITMAP
0000000000000000004C5000
000000000000000006FFF300
00000000000000019FFFF800
000000000000004DFFEFFE10
0000000000004BFFF83FFFB0
000000000002FFFB3007FFF5
000000000000473000003761
000000000000000000000000
00000000000059DEEB500000
00000000004DFFFFFFF90000
0000000019FFFD6217FF5000
00000002CFFF910001FFB000
0000001DFFF8000002FFE000
000001CFFF90000009FFE000
00000AFFFB0000003FFFB000
00006FFFE2000003EFFF7000
0001EFFF6000004EFFFE1000
0009FFFC000005FFFFF40000
001FFFF5000007FFFF600000
008FFFD00000009FD4000000
00DFFF700000000000000000
03FFFF100000000000000000
08FFFB000000675201482000
0BFFF700001CFFFFFFFF3000
0EFFF300007FFFFFFFFE0000
0FFFF1000028EFFFFFF40000
2FFFE00000004FFFEB400000
3FFFD00000000FFE00000000
2FFFD00000001FFC00000000
0FFFE00000005FF600000000
0CFFF3000000CFC000000000
06FFFA00000AFE3000000000
00CFFF9214CFE40000000000
001CFFFFFFFC300000000000
00006BEFEA50000000000000
ENDCHAR
STARTCHAR gcircumflex
ENCODING 285
SWIDTH 526 0
DWIDTH 19 0
BBX 19 38 1 -10
BITMAP
00000000000000570000
00000000000007FFA000
0000000000008FFFE000
00000000001BFFFFF200
0000000004EFF9DFF600
00000002AFFE60AFFB00
0000009FFFC2003FFF30
0000007EC6000007EE50
00000000000000000000
00000000000000000000
000000018CEEA2000000
0000007EFFFFFE1BF900
00001BFFE613CFDFFF20
0001CFFE30001DFFFB00
000BFFF500000CFFF500
007FFFA000002FFFE000
01EFFF2000006FFF9000
08FFFA000000CFFF4000
0EFFF4000004FFFE0000
4FFFE000000AFFFA0000
7FFFB000003FFFF50000
9FFF700000CFFFF10000
AFFF500006FFFFB00000
9FFF50002EFFFF700000
6FFF6001DFEFFF200000
1FFFC14DFABFFC000000
07FFFFFF91FFF7000000
006CEDA305FFF1000000
000000000CFFA0000000
000000003FFF30000000
00000000AFFB00000000
00000004FFF300000000
0000001DFF9000000000
000000CFFD1000000000
00001BFFE30000000000
0005EFFE400000000000
06EFFFD3000000000000
04DFD710000000000000
ENDCHAR
STARTCHAR Gbreve
ENCODING 286
SWIDTH 598 0
DWIDTH 22 0
BBX 25 35 1 0
BITMAP
00000000000000AE4000003E20
00000000000007FF800002DF30
0000000000000AFFE4017EFC00
00000000000008FFFFEFFFD200
00000000000001DFFFFFFC2000
0000000000000018DFDA500000
00000000000000000000000000
00000000000000000000000000
00000000000059DEEB50000000
00000000004DFFFFFFF9000000
0000000019FFFD6217FF500000
00000002CFFF910001FFB00000
0000001DFFF8000002FFE00000
000001CFFF90000009FFE00000
00000AFFFB0000003FFFB00000
00006FFFE2000003EFFF700000
0001EFFF6000004EFFFE100000
0009FFFC000005FFFFF4000000
001FFFF5000007FFFF60000000
008FFFD00000009FD400000000
00DFFF70000000000000000000
03FFFF10000000000000000000
08FFFB00000067520148200000
0BFFF700001CFFFFFFFF300000
0EFFF300007FFFFFFFFE000000
0FFFF1000028EFFFFFF4000000
2FFFE00000004FFFEB40000000
3FFFD00000000FFE0000000000
2FFFD00000001FFC0000000000
0FFFE00000005FF60000000000
0CFFF3000000CFC00000000000
06FFFA00000AFE300000000000
00CFFF9214CFE4000000000000
001CFFFFFFFC30000000000000
00006BEFEA5000000000000000
ENDCHAR
STARTCHAR gbreve
ENCODING 287
SWIDTH 526 0
DWIDTH 19 0
BBX 20 37 1 -10
BITMAP
000000000AE3000003D1
000000007FF500000BF3
00000000BFFA00009FD0
00000000BFFF503BFF50
000000007FFFFFFFF800
000000000CFFFFFE6000
00000000007CDC820000
00000000000000000000
00000000000000000000
000000018CEEA2000000
0000007EFFFFFE1BF900
00001BFFE613CFDFFF20
0001CFFE30001DFFFB00
000BFFF500000CFFF500
007FFFA000002FFFE000
01EFFF2000006FFF9000
08FFFA000000CFFF4000
0EFFF4000004FFFE0000
4FFFE000000AFFFA0000
7FFFB000003FFFF50000
9FFF700000CFFFF10000
AFFF500006FFFFB00000
9FFF50002EFFFF700000
6FFF6001DFEFFF200000
1FFFC14DFABFFC000000
07FFFFFF91FFF7000000
006CEDA305FFF1000000
000000000CFFA0000000
000000003FFF30000000
00000000AFFB00000000
00000004FFF300000000
0000001DFF9000000000
000000CFFD1000000000
00001BFFE30000000000
0005EFFE400000000000
06EFFFD3000000000000
04DFD710000000000000
ENDCHAR
STARTCHAR Gdotaccent
ENCODING 288
SWIDTH 598 0
DWIDTH 22 0
BBX 21 35 1 0
BITMAP
0000000000000002772000
000000000000004FFFF300
00000000000000CFFFF800
00000000000000BFFFF600
000000000000005FFFC000
0000000000000005A71000
0000000000000000000000
0000000000000000000000
00000000000059DEEB5000
00000000004DFFFFFFF900
0000000019FFFD6217FF50
00000002CFFF910001FFB0
0000001DFFF8000002FFE0
000001CFFF90000009FFE0
00000AFFFB0000003FFFB0
00006FFFE2000003EFFF70
0001EFFF6000004EFFFE10
0009FFFC000005FFFFF400
001FFFF5000007FFFF6000
008FFFD00000009FD40000
00DFFF7000000000000000
03FFFF1000000000000000
08FFFB0000006752014820
0BFFF700001CFFFFFFFF30
0EFFF300007FFFFFFFFE00
0FFFF1000028EFFFFFF400
2FFFE00000004FFFEB4000
3FFFD00000000FFE000000
2FFFD00000001FFC000000
0FFFE00000005FF6000000
0CFFF3000000CFC0000000
06FFFA00000AFE30000000
00CFFF9214CFE400000000
001CFFFFFFFC3000000000
00006BEFEA500000000000
ENDCHAR
STARTCHAR gdotaccent
ENCODING 289
SWIDTH 526 0
DWIDTH 19 0
BBX 19 37 1 -10
BITMAP
000000000006DFC20000
00000000004FFFFC0000
00000000007FFFFC0000
00000000004FFFF70000
000000000009FF900000
00000000000021000000
00000000000000000000
00000000000000000000
00000000000000000000
000000018CEEA2000000
0000007EFFFFFE1BF900
00001BFFE613CFDFFF20
0001CFFE30001DFFFB00
000BFFF500000CFFF500
007FFFA000002FFFE000
01EFFF2000006FFF9000
08FFFA000000CFFF4000
0EFFF4000004FFFE0000
4FFFE000000AFFFA0000
7FFFB000003FFFF50000
9FFF700000CFFFF10000
AFFF500006FFFFB00000
9FFF50002EFFFF700000
6FFF6001DFEFFF200000
1FFFC14DFABFFC000000
07FFFFFF91FFF7000000
006CEDA305FFF1000000
000000000CFFA0000000
000000003FFF30000000
00000000AFFB00000000
00000004FFF300000000
0000001DFF9000000000
000000CFFD1000000000
00001BFFE30000000000
0005EFFE400000000000
06EFFFD3000000000000
04DFD710000000000000
ENDCHAR
STARTCHAR Gcommaaccent
ENCODING 290
SWIDTH 598 0
DWIDTH 22 0
BBX 21 37 1 -10
BITMAP
00000000000059DEEB5000
00000000004DFFFFFFF800
0000000019FFFD6217FF40
00000002CFFF910001FFA0
0000001DFFF8000002FFD0
000001CFFF90000006FFE0
00000AFFFB0000001EFFD0
00006FFFE2000000AFFF90
0001EFFF60000009FFFF30
0009FFFC000001BFFFFA00
001FFFF5000008FFFFE200
008FFFD0000005FFFE3000
00DFFF700000006C910000
03FFFF1000000000000000
08FFFB0000000000000000
0BFFF70000016752014820
0EFFF300001DFFFFFFFF30
0FFFF100008FFFFFFFFE00
2FFFE0000004CFFFFFF400
3FFFD00000001FFFEB4000
2FFFD00000000FFE000000
0FFFE00000003FFB000000
0CFFF3000000BFF3000000
06FFFA000008FF70000000
00CFFF9213BFF900000000
001CFFFFFFFE6000000000
00006BEFEB610000000000
0000000000000000000000
0000251000000000000000
0008FFE200000000000000
001FFFF600000000000000
0008FFF600000000000000
0003FFF200000000000000
0006FFA000000000000000
001DFD1000000000000000
00BFD30000000000000000
03E9100000000000000000
ENDCHAR
STARTCHAR gcommaaccent
ENCODING 291
SWIDTH 526 0
DWIDTH 19 0
BBX 19 38 1 -10
BITMAP
000000000000018D7000
0000000000002DFB1000
000000000002DFD10000
00000000000AFF800000
00000000001FFFA00000
00000000002FFFF50000
000000000009FFA10000
00000000000011000000
00000000000000000000
00000000000000000000
000000018CEEA2000000
0000007EFFFFFE1BF900
00001BFFE613CFDFFF20
0001CFFE30001DFFFB00
000BFFF500000CFFF500
007FFFA000002FFFE000
01EFFF2000006FFF9000
08FFFA000000CFFF4000
0EFFF4000004FFFE0000
4FFFE000000AFFFA0000
7FFFB000003FFFF50000
9FFF700000CFFFF10000
AFFF500006FFFFB00000
9FFF50002EFFFF700000
6FFF6001DFEFFF200000
1FFFC14DFABFFC000000
07FFFFFF91FFF7000000
006CEDA305FFF1000000
000000000CFFA0000000
000000003FFF30000000
00000000AFFB00000000
00000004FFF300000000
0000001DFF9000000000
000000CFFD1000000000
00001BFFE30000000000
0005EFFE400000000000
06EFFFD3000000000000
04DFD710000000000000
ENDCHAR
STARTCHAR Hcircumflex
ENCODING 292
SWIDTH 668 0
DWIDTH 24 0
BBX 28 35 -2 0
BITMAP
00000000000000000003C6000000
0000000000000000004EFF500000
000000000000000008FFFFA00000
0000000000000003CFFEFFF20000
00000000000003AFFF92FFFC0000
0000000000000FFFC4006FFF7000
0000000000000374000002771000
0000000000000000000000000000
0000016ADFFD910000000001DE70
00000AFFFFFFFA0000000006FFF3
000003DF82DFFE0000000009FFF4
0000001100FFFE000000000DFFF1
0000000002FFFC000000001FFFD0
0000000005FFFA000000005FFF90
0000000009FFF700000000AFFF40
000000000DFFF300000000EFFE00
000000002FFFF000000004FFF900
000000006FFFB000000009FFF300
00000000AFFF700000000DFFD000
00000001EFFF300000003FFF8000
00000039FFFFABCDEEFFFFFFD900
000008FFFFFFFFFFFFFFFFFFFB00
000005DFFFF421001139FFFEA100
0000006FFFA00000000BFFE00000
000000CFFF400000002FFF800000
000003FFFD000000007FFF200000
000009FFF600000000DFFB000000
00001FFFE100000003FFF5000000
00008FFF6000000009FFE0000000
0002FFFD000000000DFF90000000
000AFFF4000000003FFF60000000
005FFF90000000006FFF71540000
04EFFC00000000007FFFFFF60000
2FFFB100000000003FFFFFB00000
1CE700000000000006DEC6000000
ENDCHAR
STARTCHAR hcircumflex
ENCODING 293
SWIDTH 555 0
DWIDTH 20 0
BBX 19 35 0 0
BITMAP
00000000000183000000
00000000002DFF200000
0000000003DFFF600000
000000006EFFFF900000
0000001AFFD9FFD00000
000006EFFB13FFF30000
0003DFFE7000BFFA0000
0002DE9200002CFB0000
00000000BE9000000000
00000003FFF700000000
00000006FFF800000000
00000008FFF600000000
0000000BFFF300000000
0000000EFFE000000000
0000003FFFA000000000
0000007FFF6000000000
000000BFFF1000000000
000001FFFB0018DEC400
000004FFF601CFFFFF20
00000AFFE11CFFFFFF70
00000EFF90AFC28FFF70
00005FFF38FC108FFF50
0000AFFC5FD100EFFF10
0001EFF8EE2006FFFA00
0006FFFDF4000DFFF300
000CFFFF70005FFFB000
003FFFFA0000CFFF4000
009FFFD10003FFFC0000
01EFFF300008FFF60000
06FFFA00000CFFF10000
0DFFF200000FFFD00000
5FFFA000001FFFE12800
CFFF3000000EFFFFFE00
EFFB00000009FFFFF500
4DE3000000008EFB4000
ENDCHAR
STARTCHAR Hbar
ENCODING 294
SWIDTH 668 0
DWIDTH 24 0
BBX 30 27 -2 0
BITMAP
0000016ADFFD910000000001DD7000
00000AFFFFFFFA0000000006FFF300
000003DF82DFFE0000000009FFF400
0000001100FFFE000000000CFFF100
0000000002FFFD000000001FFFD000
0000000005FFFA000000005FFF8000
000000147CFFFDCCDEEEFFFFFFFFE9
00004BFFFFFFFFFFFFFFFFFFFFFFF8
00008FFFFFFFFFFFFFFFFFFFFEFE80
000005535FFFC000000008FFF20000
000000008FFF700000000DFFD00000
00000000DFFF300000003FFF700000
00000003FFFFABCDEEFFFFFFDA0000
000004BFFFFFFFFFFFFFFFFFF80000
000009FFFFF421001128FFF8400000
0000007FFFA00000000CFFC0000000
000000AFFF400000002FFF60000000
000001FFFD000000008FFE10000000
000007FFF600000000DFFA00000000
00001EFFE100000004FFF400000000
00007FFF6000000009FFE000000000
0001EFFD000000000EFF9000000000
0009FFF4000000003FFF5000000000
004FFF90000000006FFF7164000000
03EFFC00000000007FFFFFF6000000
2EFFB100000000003FFFFFB0000000
1CE700000000000006DEC600000000
ENDCHAR
STARTCHAR hbar
ENCODING 295
SWIDTH 555 0
DWIDTH 20 0
BBX 19 30 0 0
BITMAP
00000000066100000000
000000006FFB00000000
00000000AFFF20000000
00000000CFFF20000000
00000000EFFF00000000
00003CFFFFFFFFFF8000
0000CFFFFFFFFFE91000
0000000BFFF100000000
0000000EFFC000000000
0000004FFF7000000000
0000008FFF3000000000
000000CFFD0000000000
000001FFF80017DEC400
000006FFF301CFFFFF20
00000AFFD01CFFFFFF70
00001EFF80AFC37FFF70
00005FFF27FB108FFF50
0000AFFB5FC100DFFF10
0001EFF8EE2006FFFA00
0005FFFDF4000DFFF300
000BFFFF70005FFFB000
002FFFFA0000CFFF4000
008FFFD10003FFFC0000
00EFFF300008FFF60000
06FFFA00000CFFF10000
0DFFF200000FFFD00000
5FFFA000001FFFE12800
CFFF3000000EFFFFFE00
EFFB00000008FFFFF600
4CE3000000008EFC4000
ENDCHAR
STARTCHAR Itilde
ENCODING 296
SWIDTH 327 0
DWIDTH 12 0
BBX 20 34 -1 0
BITMAP
000000004BEE910002D4
00000009FFFFFE414DF4
0000009FFFFFFFFFFFB0
000002FE514EFFFFFA10
000002E40002AEEB5000
00000000000000000000
00000000000000000000
0000039CEED820000000
00002FFFFFFFE1000000
000008FC56FFF6000000
0000002007FFF7000000
000000000AFFF6000000
000000000CFFF3000000
000000001FFFF1000000
000000004FFFC0000000
000000007FFF90000000
00000000BFFF50000000
00000001FFFF10000000
00000005FFFB00000000
0000000AFFF700000000
0000000EFFF200000000
0000004FFFC000000000
000000AFFF7000000000
000001EFFF1000000000
000006FFFA0000000000
00000CFFF40000000000
00004FFFC00000000000
0000BFFF400000000000
0004FFFB000000000000
000CFFF2000000000000
007FFF70000000000000
05FFFA00000000000000
4FFFA000000000000000
2DD70000000000000000
ENDCHAR
STARTCHAR itilde
ENCODING 297
SWIDTH 286 0
DWIDTH 10 0
BBX 15 27 1 0
BITMAP
00019EEA10000A80
003DFFFFC0004F90
01DFFFFFFA14EF40
09FB24EFFFFFFA00
0EE1005FFFFFA000
0C600005DFC50000
0000000000000000
0000000000000000
0000000000000000
0007DFE900000000
001FFFFF10000000
0005FFFF00000000
0002FFFB00000000
0005FFF600000000
000AFFE100000000
001EFF9000000000
007FFF2000000000
00DFFB0000000000
05FFF40000000000
0BFFC00000000000
2FFF600000000000
7FFF100000000000
CFFC000000000000
FFFC000000000000
EFFFFF8000000000
AFFFFF3000000000
1AEEB40000000000
ENDCHAR
STARTCHAR Imacron
ENCODING 298
SWIDTH 327 0
DWIDTH 12 0
BBX 19 33 -1 0
BITMAP
0000002CFFFFFFFFFF50
000000DFFFFFFFFFFF30
000001DFFFFFFFFFE400
00000000000000000000
00000000000000000000
00000000000000000000
0000039CEED820000000
00002FFFFFFFE1000000
000008FC56FFF6000000
0000002007FFF7000000
000000000AFFF6000000
000000000CFFF3000000
000000001FFFF1000000
000000004FFFC0000000
000000007FFF90000000
00000000BFFF50000000
00000001FFFF10000000
00000005FFFB00000000
0000000AFFF700000000
0000000EFFF200000000
0000004FFFC000000000
000000AFFF7000000000
000001EFFF1000000000
000006FFFA0000000000
00000CFFF40000000000
00004FFFC00000000000
0000BFFF400000000000
0004FFFB000000000000
000CFFF2000000000000
007FFF70000000000000
05FFFA00000000000000
4FFFA000000000000000
2DD70000000000000000
ENDCHAR
STARTCHAR imacron
ENCODING 299
SWIDTH 286 0
DWIDTH 10 0
BBX 14 24 1 0
BITMAP
04DFFFFFFFFFE3
2EFFFFFFFFFFE1
3EFFFFFFFFFC30
00000000000000
00000000000000
00000000000000
0007DFE9000000
001FFFFF100000
0005FFFF000000
0002FFFB000000
0005FFF6000000
000AFFE1000000
001EFF90000000
007FFF20000000
00DFFB00000000
05FFF400000000
0BFFC000000000
2FFF6000000000
7FFF1000000000
CFFC0000000000
FFFC0000000000
EFFFFF80000000
AFFFFF30000000
1AEEB400000000
ENDCHAR
STARTCHAR Ibreve
ENCODING 300
SWIDTH 327 0
DWIDTH 12 0
BBX 19 35 -1 0
BITMAP
000000005EA000000B70
00000002FFE000009F90
00000005FFF8004CFF30
00000002FFFFEFFFF600
000000009FFFFFFE5000
0000000005CEEC710000
00000000000000000000
00000000000000000000
0000039CEED820000000
00002FFFFFFFE1000000
000008FC56FFF6000000
0000002007FFF7000000
000000000AFFF6000000
000000000CFFF3000000
000000001FFFF1000000
000000004FFFC0000000
000000007FFF90000000
00000000BFFF50000000
00000001FFFF10000000
00000005FFFB00000000
0000000AFFF700000000
0000000EFFF200000000
0000004FFFC000000000
000000AFFF7000000000
000001EFFF1000000000
000006FFFA0000000000
00000CFFF40000000000
00004FFFC00000000000
0000BFFF400000000000
0004FFFB000000000000
000CFFF2000000000000
007FFF70000000000000
05FFFA00000000000000
4FFFA000000000000000
2DD70000000000000000
ENDCHAR
STARTCHAR ibreve
ENCODING 301
SWIDTH 286 0
DWIDTH 10 0
BBX 14 27 1 0
BITMAP
0002CC0000007A
000CFF000002EC
001FFF40002DF8
001FFFC215EFD1
000CFFFFFFFE30
0003EFFFFFD300
000029DDB60000
00000000000000
00000000000000
0007DFE9000000
001FFFFF100000
0005FFFF000000
0002FFFB000000
0005FFF6000000
000AFFE1000000
001EFF90000000
007FFF20000000
00DFFB00000000
05FFF400000000
0BFFC000000000
2FFF6000000000
7FFF1000000000
CFFC0000000000
FFFC0000000000
EFFFFF80000000
AFFFFF30000000
1AEEB400000000
ENDCHAR
STARTCHAR Iogonek
ENCODING 302
SWIDTH 327 0
DWIDTH 12 0
BBX 18 35 -5 -8
BITMAP
00000000039CEED920
000000002FFFFFFFE2
0000000008FC56FFF7
00000000002007FFF7
0000000000000AFFF6
0000000000000DFFF3
0000000000001FFFF1
0000000000004FFFC0
0000000000008FFF80
000000000000CFFF40
000000000001FFFE00
000000000006FFFA00
00000000000BFFF600
00000000001FFFF100
00000000006FFFB000
0000000000BFFF5000
0000000002FFFE0000
0000000008FFF80000
000000001EFFF20000
000000007FFF900000
00000001EFFE200000
00000008FFF7000000
0000003FFFC0000000
000001DFFE20000000
00001CFFF400000000
00005FFD4000000000
0002CFB10000000000
003EF9000000000000
03EFB0000000000000
1DFF20000000000000
7FFC00000000000000
DFFC04400000000000
FFFFFF600000000000
DFFFFC000000000000
3DFD71000000000000
ENDCHAR
STARTCHAR iogonek
ENCODING 303
SWIDTH 297 0
DWIDTH 11 0
BBX 13 36 -1 -9
BITMAP
000000005DFC30
00000003FFFFD0
00000006FFFFE0
00000003FFFF90
000000007FFA10
00000000022000
00000000000000
00000000000000
00000000000000
000003BEEB2000
00000BFFFF6000
000002EFFF5000
000000CFFF2000
000000EFFC0000
000004FFF60000
00000AFFE10000
00001FFF800000
00007FFF200000
0000DFFA000000
0005FFF4000000
000BFFC0000000
001FFF70000000
005FFF30000000
009FFF10000000
009FFFDCB00000
006FFFFFA00000
000AFFFB100000
0003EF90000000
004EF900000000
02EFB000000000
0CFF3000000000
6FFD0000000000
BFFE1550000000
DFFFFF80000000
AFFFFC10000000
2BDC7100000000
ENDCHAR
STARTCHAR Idotaccent
ENCODING 304
SWIDTH 327 0
DWIDTH 12 0
BBX 14 35 -1 0
BITMAP
00000000005740
000000001CFFF9
000000006FFFFE
000000006FFFFB
000000001DFFF3
0000000002A930
00000000000000
00000000000000
0000039CEED820
00002FFFFFFFE1
000008FC56FFF6
0000002007FFF7
000000000AFFF6
000000000CFFF3
000000001FFFF1
000000004FFFC0
000000007FFF90
00000000BFFF50
00000001FFFF10
00000005FFFB00
0000000AFFF700
0000000EFFF200
0000004FFFC000
000000AFFF7000
000001EFFF1000
000006FFFA0000
00000CFFF40000
00004FFFC00000
0000BFFF400000
0004FFFB000000
000CFFF2000000
007FFF70000000
05FFFA00000000
4FFFA000000000
2DD70000000000
ENDCHAR
STARTCHAR dotlessi
ENCODING 305
SWIDTH 286 0
DWIDTH 10 0
BBX 9 18 1 0
BITMAP
0007DFE900
001FFFFF10
0005FFFF00
0002FFFB00
0005FFF600
000AFFE100
001EFF9000
007FFF2000
00DFFB0000
05FFF40000
0BFFC00000
2FFF600000
7FFF100000
CFFC000000
FFFC000000
EFFFFF8000
AFFFFF3000
1AEEB40000
ENDCHAR
STARTCHAR IJ
ENCODING 306
SWIDTH 720 0
DWIDTH 26 0
BBX 28 37 -1 -10
BITMAP
0000039CEED8200000059DFFD940
00002FFFFFFFE10018EFFFFFFFF7
000008FC56FFF604EFFFFA42FFFF
0000002007FFF72FFFFE5002FFFF
000000000AFFF63FFFD20004FFFE
000000000CFFF305CB100007FFFB
000000001FFFF1000000000AFFF9
000000004FFFC0000000000EFFF5
000000007FFF90000000003FFFF2
00000000BFFF50000000008FFFD0
00000001FFFF1000000000CFFF90
00000005FFFB0000000001FFFF50
0000000AFFF70000000006FFFE10
0000000EFFF2000000000BFFFA00
0000004FFFC0000000001FFFF500
000000AFFF70000000006FFFE100
000001EFFF1000000000CFFFA000
000006FFFA0000000003FFFF4000
00000CFFF40000000009FFFD0000
00004FFFC0000000001EFFF70000
0000BFFF40000000007FFFE10000
0004FFFB0000000000EFFF800000
000CFFF20000000006FFFF200000
007FFF70000000000DFFF9000000
05FFFA00000000006FFFF2000000
4FFFA00000000000DFFF80000000
2DD7000000000007FFFE10000000
000000000000002EFFF500000000
00000000000000AFFFB000000000
00000000000005FFFE2000000000
0000000000002EFFF50000000000
000000000001CFFF800000000000
00000000000BFFFA000000000000
0000000001BFFFA0000000000000
000000004DFFF900000000000000
0000001BFFFE5000000000000000
0000003DEC710000000000000000
ENDCHAR
STARTCHAR ij
ENCODING 307
SWIDTH 567 0
DWIDTH 20 0
BBX 20 37 1 -10
BITMAP
0000008EEA100005DFC3
000008FFFF80003FFFFD
00000BFFFF80006FFFFD
000008FFFF30003FFFF8
000001CFF6000008FFA1
00000003100000002200
00000000000000000000
00000000000000000000
00000000000000000000
0007DFE9000007DFE800
001FFFFF10002FFFFF00
0005FFFF000007FFFE00
0002FFFB000003FFFD00
0005FFF6000004FFFB00
000AFFE1000006FFF900
001EFF90000008FFF600
007FFF2000000AFFF200
00DFFB0000000EFFE000
05FFF40000002FFFA000
0BFFC00000006FFF6000
2FFF60000000BFFF1000
7FFF10000001EFFB0000
CFFC00000005FFF60000
FFFC0000000AFFF10000
EFFFFF80001FFFA00000
AFFFFF30007FFF400000
1AEEB40000DFFC000000
0000000005FFF5000000
000000000CFFC0000000
000000005FFF50000000
00000000DFFA00000000
00000007FFE200000000
0000003FFF5000000000
000002DFF80000000000
00003DFF900000000000
0009FFF7000000000000
000AEA30000000000000
ENDCHAR
STARTCHAR Jcircumflex
ENCODING 308
SWIDTH 393 0
DWIDTH 14 0
BBX 26 45 -7 -10
BITMAP
00000000000000000000032000
000000000000000000006FF500
00000000000000000008FFFC00
000000000000000002CFFFFF30
00000000000000018FFF8EFFB0
000000000000007EFFD407FFF7
000000000000006ED710007EF9
00000000000000000000000000
000000000000048CEFDA500000
000000000006DFFFFFFFFB0000
0000000002DFFFFC51DFFF3000
000000000DFFFF7000EFFF3000
000000001EFFE40001FFFF2000
0000000003CD300004FFFE0000
000000000000000007FFFC0000
00000000000000000BFFF80000
00000000000000001FFFF50000
00000000000000004FFFF10000
00000000000000009FFFC00000
0000000000000000DFFF800000
0000000000000003FFFF300000
0000000000000008FFFD000000
000000000000000DFFF8000000
000000000000003FFFF3000000
000000000000009FFFD0000000
00000000000001EFFF70000000
00000000000006FFFF10000000
0000000000000CFFFA00000000
0000000000004FFFF300000000
000000000000BFFFB000000000
000000000003FFFF4000000000
00000000000AFFFC0000000000
00000000003FFFF40000000000
0000000000AFFFB00000000000
0000000004FFFF300000000000
000000000CFFF8000000000000
000000007FFFD1000000000000
00000002FFFF40000000000000
0000001CFFF800000000000000
000000AFFFB000000000000000
000008FFFC1000000000000000
00009FFFC10000000000000000
002BFFFB100000000000000000
09FFFF70000000000000000000
1CFD8200000000000000000000
ENDCHAR
STARTCHAR jcircumflex
ENCODING 309
SWIDTH 282 0
DWIDTH 10 0
BBX 21 38 -7 -10
BITMAP
0000000000000000100000
0000000000000002DD4000
000000000000003DFFC000
00000000000005EFFFF000
0000000000008FFEFFF300
00000000003CFFC2CFF800
000000003AFFF9008FFD00
00000000DFFD40001EFF60
0000000027400000027610
0000000000000000000000
000000000018DFD6000000
00000000005FFFFC000000
00000000000AFFFC000000
000000000006FFFA000000
000000000007FFF8000000
000000000009FFF5000000
00000000000BFFF2000000
00000000000EFFE0000000
00000000003FFFA0000000
00000000007FFF60000000
0000000000CFFF20000000
0000000001FFFC00000000
0000000006FFF700000000
000000000AFFF200000000
000000001EFFC000000000
000000006FFF6000000000
00000000CFFE1000000000
00000004FFF90000000000
0000000AFFF20000000000
0000002FFF900000000000
0000009FFE200000000000
000003FFF7000000000000
00000BFFC0000000000000
00007FFE30000000000000
0004FFF500000000000000
005EFF5000000000000000
0BFFE40000000000000000
1CE8100000000000000000
ENDCHAR
STARTCHAR Kcommaaccent
ENCODING 310
SWIDTH 616 0
DWIDTH 22 0
BBX 26 37 -2 -10
BITMAP
0000049CEEC6000000003DFB20
00005FFFFFFFB00000002FFFD0
00002DFB39FFF30000000CFFF4
000001300AFFF40000000DFFF5
000000000DFFF20000001FFFF3
000000001FFFF00000005FFFE0
000000003FFFD0000000CFFF70
000000007FFF90000008FFFC00
00000000AFFF6000005FFFD200
00000000EFFF200004FFFD2000
00000004FFFD00006FFFB10000
00000008FFF90008FFF8000000
0000000DFFF401BFFD40000000
0000002FFFE04EFF9100000000
0000007FFFA7FFE50000000000
000000DFFFEFFF400000000000
000003FFFE8FFFD20000000000
000009FFF808FFFD1000000000
00001EFFF200DFFFA000000000
00007FFFA0004FFFF600000000
0000DFFF30000BFFFE20000000
0007FFFB000003FFFFC0000000
001EFFF20000009FFFF9000000
00AFFF700000001EFFFF910000
08FFFB0000000004FFFFFEDB00
7FFFB100000000006FFFFFF800
5ED700000000000003AEEC5000
00000000000000000000000000
00000000341000000000000000
00000009FFD100000000000000
0000002FFFF500000000000000
00000009FFF500000000000000
00000004FFF100000000000000
00000007FF9000000000000000
0000002EFD1000000000000000
000001CFD20000000000000000
000005E8100000000000000000
ENDCHAR
STARTCHAR kcommaaccent
ENCODING 311
SWIDTH 497 0
DWIDTH 18 0
BBX 19 39 0 -10
BITMAP
00000000066000000000
000000007FFA00000000
00000000AFFF00000000
00000000DFFD00000000
00000001FFFB00000000
00000004FFF700000000
00000008FFF400000000
0000000BFFE000000000
0000000EFFA000000000
0000004FFF5000000000
0000009FFF1000000000
000000DFFA0007EFC300
000002FFF5000AFFFE00
000007FFE10001FFFF20
00000CFF900004FFFE00
00002FFF40001DFFF800
00007FFD0002DFFFC100
0000CFF7006EFFF91000
0003FFF25CFFFC400000
0009FFEDFFFB40000000
000EFFFFFE2000000000
005FFFEFFF4000000000
00CFFE4FFFA000000000
04FFF80CFFF400000000
0BFFF205FFFD20000000
4FFF9000CFFFD4147000
BFFF20003FFFFFFFB000
EFFA000005FFFFFE3000
4DD20000003BEEA20000
00000000000000000000
00001420000000000000
0004EFF5000000000000
000BFFFB000000000000
0004FFFB000000000000
0000DFF7000000000000
0001FFE1000000000000
000AFF40000000000000
006FF600000000000000
00DB3000000000000000
ENDCHAR
STARTCHAR kgreenlandic
ENCODING 312
SWIDTH 497 0
DWIDTH 18 0
BBX 19 18 0 0
BITMAP
00007DFC200005DFD500
0002FFFFB00007FFFF20
00007FFFC00000DFFF40
00003FFF900002FFFF20
00006FFF50001BFFFB00
0000AFFF1001CFFFE200
0000EFFA005EFFFC2000
0005FFF55CFFFE700000
000BFFFDFFFD71000000
002FFFFFFF5000000000
008FFFEFFF7000000000
00EFFF8BFFC000000000
05FFFE15FFF700000000
0CFFF700EFFF30000000
4FFFE1007FFFE5138000
CFFF70001CFFFFFFE000
EFFD100002EFFFFF4000
4CE40000001AEEA30000
ENDCHAR
STARTCHAR Lacute
ENCODING 313
SWIDTH 517 0
DWIDTH 19 0
BBX 23 35 -1 0
BITMAP
00000000000000000004EC20
0000000000000000000AFFC0
0000000000000000002FFFC0
000000000000000000CFFF50
00000000000000000AFFF600
0000000000000000AFFA3000
000000000000000066200000
000000000000000000000000
000000000000029DFD810000
0000000000008FFFFFFC1000
00000000000AFFF713EF9000
00000000008FFF60009FF100
0000000004FFFA00009FF300
000000000DFFF20000DFF300
000000007FFF900005FFF200
00000001EFFF20002EFFD000
00000007FFFB0001DFFF7000
0000000DFFF5002DFFFE1000
0000005FFFE005EFFFF50000
000000BFFF800FFFFF800000
000001FFFF2009FFF7000000
000007FFFB00005730000000
00000CFFF500000000000000
00002FFFE000000000000000
00008FFF8000000000000000
0000DFFF2000000000000000
0004FFFA0000000000000000
0009FFF20000000000000000
001FFF900000000000000000
008FFE100000000000000000
02FFF5000135675200000000
2CFF937BDFFFFFFF80000000
AFFFEFFFFFFFFFFFF5000000
8FFFFFFFEDCBCEFFFA000000
1CFDA74200000037D8000000
ENDCHAR
STARTCHAR lacute
ENCODING 314
SWIDTH 279 0
DWIDTH 10 0
BBX 16 35 1 0
BITMAP
000000000001DD50
000000000007FFE1
00000000000DFFF1
00000000009FFF90
0000000007FFF900
000000006FFC5000
0000000047400000
0000000000000000
0000001DD4000000
0000005FFE000000
0000008FFF000000
000000CFFD000000
000001FFF9000000
000004FFF5000000
000009FFF1000000
00000EFFB0000000
00004FFF60000000
00009FFF10000000
0000EFFB00000000
0004FFF600000000
0009FFF100000000
000EFFA000000000
005FFF5000000000
00AFFE1000000000
01EFFA0000000000
05FFF50000000000
0BFFE00000000000
1FFFA00000000000
5FFF500000000000
9FFF100000000000
CFFD000000000000
DFFD138000000000
CFFFFFD000000000
5FFFFF5000000000
06DFB40000000000
ENDCHAR
STARTCHAR Lcommaaccent
ENCODING 315
SWIDTH 517 0
DWIDTH 19 0
BBX 22 37 -1 -10
BITMAP
000000000000029DFD8100
0000000000008FFFFFFC10
00000000000AFFF713EF90
00000000008FFF60009FF1
0000000004FFFA00009FF3
000000000DFFF20000DFF3
000000007FFF900005FFF2
00000001EFFF20002EFFD0
00000007FFFB0001DFFF70
0000000DFFF5002DFFFE10
0000005FFFE005EFFFF500
000000BFFF800FFFFF8000
000001FFFF2009FFF70000
000007FFFB000057300000
00000CFFF5000000000000
00002FFFE0000000000000
00008FFF80000000000000
0000DFFF20000000000000
0004FFFA00000000000000
0009FFF200000000000000
001FFF9000000000000000
008FFE1000000000000000
02FFF50001356752000000
2CFF937BDFFFFFFF800000
AFFFEFFFFFFFFFFFF50000
8FFFFFFFEDCBCEFFFA0000
1CFDA74200000037D80000
0000000000000000000000
0000152000000000000000
0004EFF500000000000000
000BFFFB00000000000000
0003FFFB00000000000000
0000DFF700000000000000
0002FFE100000000000000
000AFF4000000000000000
006FF50000000000000000
00DB300000000000000000
ENDCHAR
STARTCHAR lcommaaccent
ENCODING 316
SWIDTH 279 0
DWIDTH 10 0
BBX 13 39 -1 -10
BITMAP
00000000047200
000000002FFE30
000000005FFF80
000000007FFF70
000000009FFF40
00000000DFFF10
00000001FFFB00
00000005FFF700
00000009FFF200
0000000EFFC000
0000003FFF7000
0000008FFF2000
000000DFFB0000
000003FFF60000
000008FFF10000
00000DFFA00000
00003FFF500000
00009FFE000000
0000EFF9000000
0004FFF4000000
0009FFE0000000
000EFF90000000
004FFF50000000
008FFF10000000
00BFFD00000000
00DFFE10000000
00BFFFFFF10000
004FFFFF900000
0006DFC6000000
00000000000000
00025100000000
007FFE20000000
00FFFF80000000
007FFF70000000
002FFF30000000
005FFB00000000
01DFE200000000
0AFE3000000000
2EA20000000000
ENDCHAR
STARTCHAR Lcaron
ENCODING 317
SWIDTH 517 0
DWIDTH 19 0
BBX 29 34 -1 0
BITMAP
0000000000000000000000004DF900
000000000000000000000000EFFF10
000000000000000000000000BFFF20
0000000000000000000000007FFF10
0000000000000000000000007FFA00
000000000000000000000000BFF300
000000000000000000000004FF8000
000000000000029DFD81001DFA0000
0000000000008FFFFFFC10AF800000
00000000000AFFF713EF9021000000
00000000008FFF60009FF100000000
0000000004FFFA00009FF300000000
000000000DFFF20000DFF300000000
000000007FFF900005FFF200000000
00000001EFFF20002EFFD000000000
00000007FFFB0001DFFF7000000000
0000000DFFF5002DFFFE1000000000
0000005FFFE005EFFFF50000000000
000000BFFF800FFFFF800000000000
000001FFFF2009FFF7000000000000
000007FFFB00005730000000000000
00000CFFF500000000000000000000
00002FFFE000000000000000000000
00008FFF8000000000000000000000
0000DFFF2000000000000000000000
0004FFFA0000000000000000000000
0009FFF20000000000000000000000
001FFF900000000000000000000000
008FFE100000000000000000000000
02FFF5000135675200000000000000
2CFF937BDFFFFFFF80000000000000
AFFFEFFFFFFFFFFFF5000000000000
8FFFFFFFEDCBCEFFFA000000000000
1CFDA74200000037D8000000000000
ENDCHAR
STARTCHAR lcaron
ENCODING 318
SWIDTH 467 0
DWIDTH 17 0
BBX 19 30 1 0
BITMAP
00000004720000027610
0000002FFE30002EFF90
0000004FFF80004FFFC0
0000006FFF70000EFFB0
0000009FFF40000CFF80
000000CFFF10000EFF20
000001FFFC00005FF800
000004FFF80001DFC000
000008FFF3000BFC1000
00000CFFD0001A700000
00001FFF900000000000
00006FFF400000000000
0000BFFE000000000000
0001FFF8000000000000
0005FFF3000000000000
000AFFD0000000000000
001FFF80000000000000
006FFF30000000000000
00BFFD00000000000000
01FFF700000000000000
06FFF300000000000000
0BFFD000000000000000
1FFF8000000000000000
5FFF4000000000000000
9FFF1000000000000000
CFFD0000000000000000
DFFE1260000000000000
BFFFFFE0000000000000
4FFFFF70000000000000
06DFC400000000000000
ENDCHAR
STARTCHAR Ldot
ENCODING 319
SWIDTH 668 0
DWIDTH 24 0
BBX 26 27 -1 0
BITMAP
000000000000029DFD81000000
0000000000008FFFFFFC100000
00000000000AFFF713EF900000
00000000008FFF60009FF10000
0000000004FFFA00009FF30000
000000000DFFF20000DFF30000
000000007FFF900005FFF20000
00000001EFFF20002EFFD00000
00000007FFFB0001DFFF700000
0000000DFFF5002DFFFE100000
0000005FFFE005EFFFF5000000
000000BFFF800FFFFF80000000
000001FFFF2009FFF700000000
000007FFFB000057300007DD80
00000CFFF500000000008FFFF7
00002FFFE00000000000BFFFF8
00008FFF8000000000008FFFF4
0000DFFF2000000000001DFF80
0004FFFA000000000000014200
0009FFF2000000000000000000
001FFF90000000000000000000
008FFE10000000000000000000
02FFF500013567520000000000
2CFF937BDFFFFFFF8000000000
AFFFEFFFFFFFFFFFF500000000
8FFFFFFFEDCBCEFFFA00000000
1CFDA74200000037D800000000
ENDCHAR
STARTCHAR ldot
ENCODING 320
SWIDTH 489 0
DWIDTH 18 0
BBX 17 30 1 0
BITMAP
000000047200000000
0000002FFE30000000
0000004FFF80000000
0000006FFF70000000
0000009FFF40000000
000000CFFF10000000
000001FFFC00000000
000004FFF800000000
000008FFF300000000
00000CFFD000000000
00001FFF9000000000
00006FFF4000000000
0000BFFE0000000000
0001FFF80000000000
0005FFF30000000000
000AFFD00006EEC500
001FFF80003FFFFF20
006FFF30006FFFFF30
00BFFD00004FFFFE10
01FFF700000AFFE400
06FFF3000000451000
0BFFD0000000000000
1FFF80000000000000
5FFF40000000000000
9FFF10000000000000
CFFD00000000000000
DFFE12600000000000
BFFFFFE00000000000
4FFFFF700000000000
06DFC4000000000000
ENDCHAR
STARTCHAR Lslash
ENCODING 321
SWIDTH 517 0
DWIDTH 19 0
BBX 22 27 -1 0
BITMAP
000000000000039DFE9100
0000000000008FFFFFFC10
00000000000AFFF713DF90
00000000008FFF60009FF1
0000000004FFFA0000AFF3
000000000DFFE20000DFF3
000000007FFF900006FFF1
00000001EFFF20003EFFC0
00000007FFFA0003EFFF60
0000000DFFF4004EFFFC00
0000005FFFC008FFFFF300
000000BFFF600EFFFF5000
000001FFFF1005FFD40000
000007FFFA000013000000
00000CFFFFFD5000000000
00038FFFFFFFF400000000
03BFFFFFFFFFF500000000
4FFFFFFE21011000000000
2B98FFF700000000000000
000AFFE100000000000000
001FFF7000000000000000
008FFD1000000000000000
02FFF40003568973000000
1CFF759CFFFFFFFF900000
AFFFEFFFFFFFFFFFF60000
8FFFFFFFEDCBCEFFFA0000
1CFDA74200000027D80000
ENDCHAR
STARTCHAR lslash
ENCODING 322
SWIDTH 279 0
DWIDTH 10 0
BBX 16 30 1 0
BITMAP
0000035000000000
00003FFC51000000
00007FFFFFFFFFF5
00003FFFFFFFFFA0
000003BFFFDB9300
0000007FFF400000
000000BFFE000000
000001FFFA000000
000005FFF6000000
00000AFFF1000000
00000EFFB0000000
00005FFF60000000
0000AFFF10000000
0000EFFB00000000
0005FFF600000000
000AFFF100000000
000EFFA000000000
005FFF5000000000
00AFFE1000000000
00EFFA0000000000
05FFF50000000000
0AFFE00000000000
0EFFA00000000000
4FFF500000000000
8FFF100000000000
CFFD000000000000
DFFD127000000000
BFFFFFE000000000
5FFFFF6000000000
06DFB40000000000
ENDCHAR
STARTCHAR Nacute
ENCODING 323
SWIDTH 708 0
DWIDTH 25 0
BBX 28 35 0 0
BITMAP
000000000000000000000003EC30
000000000000000000000009FFD0
00000000000000000000002FFFD0
0000000000000000000000BFFF60
000000000000000000000AFFF600
000000000000000000009FFB3000
0000000000000000000057300000
0000000000000000000000000000
000000000003BED30000004DEB30
00000000006FFFF5000000DFFFE2
0000000006FFFFF30000005FFFF9
000000003FFFFFF10000000BFFFC
00000001DFEDFFD000000008FFFD
00000008FF6DFFC000000007FFFB
0000003FFC0EFFC000000008FFF8
000000AFF40FFFC00000000AFFF3
000003FFB00FFFC00000000DFFD0
00000AFF500FFFD00000003FFF70
00003FFD000FFFF00000008FFE10
00009FF7000EFFF1000000DFF700
0001EFF1000DFFF3000005FFE100
0006FFB0000BFFF500000BFF7000
000CFF600009FFF800003FFD0000
002FFF100007FFFA0000AFF50000
007FFB000004FFFE0002FFC00000
00CFF7000001FFFF2009FF400000
02FFF3000000CFFF601EFA000000
06FFE00000007FFFA07FF2000000
0AFFA00000003FFFF1DFA0000000
0DFF700000000DFFFBFF20000000
1FFF3000000007FFFFFA00000000
3FFF1000000001EFFFF400000000
4FFD00000000007FFFE000000000
3FFB00000000000BFFD000000000
08E70000000000019E8000000000
ENDCHAR
STARTCHAR nacute
ENCODING 324
SWIDTH 561 0
DWIDTH 20 0
BBX 19 28 0 0
BITMAP
0000000000000005FC20
000000000000000BFFA0
000000000000002FFFC0
000000000000009FFF80
00000000000003FFFD10
0000000000001DFFD200
000000000001BFFC2000
00000000000BFE700000
00000000000661000000
00000000000000000000
00007DFC200006DFC500
0001FFFFC001BFFFFF40
00006FFFD00BFFFFFFA0
00002FFFA0AFD34FFFB0
00005FFF57FD104FFF90
00009FFE4FE200AFFF50
0000EFFAEF3002FFFD00
0004FFFDF5000AFFF700
000AFFFF80002FFFE100
001FFFFB00008FFF8000
007FFFD10000EFFF1000
00DFFF400004FFF90000
05FFFB000008FFF40000
0BFFF300000BFFF00000
4FFFB000000CFFE12720
BFFF4000000BFFFFFF20
DFFC00000005FFFFF900
3CE3000000005DFD6000
ENDCHAR
STARTCHAR Ncommaaccent
ENCODING 325
SWIDTH 708 0
DWIDTH 25 0
BBX 28 37 0 -10
BITMAP
000000000003BED30000004DEB30
00000000006FFFF5000000DFFFE2
0000000006FFFFF30000005FFFF9
000000003FFFFFF10000000BFFFC
00000001DFEDFFD000000008FFFD
00000008FF6DFFC000000007FFFB
0000003FFC0EFFC000000008FFF8
000000AFF40FFFC00000000AFFF3
000003FFB00FFFC00000000DFFD0
00000AFF500FFFD00000003FFF70
00003FFD000FFFF00000008FFE10
00009FF7000EFFF1000000DFF700
0001EFF1000DFFF3000005FFE100
0006FFB0000BFFF500000BFF7000
000CFF600009FFF800003FFD0000
002FFF100007FFFA0000AFF50000
007FFB000004FFFE0002FFC00000
00CFF7000001FFFF2009FF400000
02FFF3000000CFFF601EFA000000
06FFE00000007FFFA07FF2000000
0AFFA00000003FFFF1DFA0000000
0DFF700000000DFFFBFF20000000
1FFF3000000007FFFFFA00000000
3FFF1000000001EFFFF400000000
4FFD00000000007FFFE000000000
3FFB00000000000BFFD000000000
08E70000000000019E8000000000
0000000000000000000000000000
0000000000220000000000000000
000000001BFF8000000000000000
000000006FFFF100000000000000
000000001DFFF100000000000000
0000000009FFC000000000000000
000000000BFF5000000000000000
000000004FFA0000000000000000
00000002EFA00000000000000000
00000009D6000000000000000000
ENDCHAR
STARTCHAR ncommaaccent
ENCODING 326
SWIDTH 561 0
DWIDTH 20 0
BBX 19 28 0 -10
BITMAP
00007DFC200006DFC500
0001FFFFC001BFFFFF40
00006FFFD00BFFFFFFA0
00002FFFA0AFD34FFFB0
00005FFF57FD104FFF90
00009FFE4FE200AFFF50
0000EFFAEF3002FFFD00
0004FFFDF5000AFFF700
000AFFFF80002FFFE100
001FFFFB00008FFF8000
007FFFD10000EFFF1000
00DFFF400004FFF90000
05FFFB000008FFF40000
0BFFF300000BFFF00000
4FFFB000000CFFE12720
BFFF4000000BFFFFFF20
DFFC00000005FFFFF900
3CE3000000005DFD6000
00000000000000000000
00000341000000000000
0000BFFC000000000000
0004FFFF300000000000
0000BFFF300000000000
00006FFE000000000000
00009FF7000000000000
0002FFB0000000000000
001DFC10000000000000
006D7000000000000000
ENDCHAR
STARTCHAR Ncaron
ENCODING 327
SWIDTH 708 0
DWIDTH 25 0
BBX 29 35 0 0
BITMAP
000000000000000003630000001600
00000000000000009FFF800003DF50
00000000000000002DFFF6018FFF30
000000000000000003FFFD7EFFF700
000000000000000000AFFFFFD71000
0000000000000000003FFFA4000000
000000000000000000036100000000
000000000000000000000000000000
000000000003BED30000004DEB3000
00000000006FFFF5000000DFFFE200
0000000006FFFFF30000005FFFF900
000000003FFFFFF10000000BFFFC00
00000001DFEDFFD000000008FFFD00
00000008FF6DFFC000000007FFFB00
0000003FFC0EFFC000000008FFF800
000000AFF40FFFC00000000AFFF300
000003FFB00FFFC00000000DFFD000
00000AFF500FFFD00000003FFF7000
00003FFD000FFFF00000008FFE1000
00009FF7000EFFF1000000DFF70000
0001EFF1000DFFF3000005FFE10000
0006FFB0000BFFF500000BFF700000
000CFF600009FFF800003FFD000000
002FFF100007FFFA0000AFF5000000
007FFB000004FFFE0002FFC0000000
00CFF7000001FFFF2009FF40000000
02FFF3000000CFFF601EFA00000000
06FFE00000007FFFA07FF200000000
0AFFA00000003FFFF1DFA000000000
0DFF700000000DFFFBFF2000000000
1FFF3000000007FFFFFA0000000000
3FFF1000000001EFFFF40000000000
4FFD00000000007FFFE00000000000
3FFB00000000000BFFD00000000000
08E70000000000019E800000000000
ENDCHAR
STARTCHAR ncaron
ENCODING 328
SWIDTH 561 0
DWIDTH 20 0
BBX 22 27 0 0
BITMAP
00000000028A50000002D5
0000000004FFF400005EF9
0000000000BFFB0009FFF4
00000000006FFE04DFFE40
00000000001FFFBFFF8100
00000000000CFFFE920000
000000000007FD71000000
0000000000002000000000
0000000000000000000000
00007DFC200006DFC50000
0001FFFFC001BFFFFF4000
00006FFFD00BFFFFFFA000
00002FFFA0AFD34FFFB000
00005FFF57FD104FFF9000
00009FFE4FE200AFFF5000
0000EFFAEF3002FFFD0000
0004FFFDF5000AFFF70000
000AFFFF80002FFFE10000
001FFFFB00008FFF800000
007FFFD10000EFFF100000
00DFFF400004FFF9000000
05FFFB000008FFF4000000
0BFFF300000BFFF0000000
4FFFB000000CFFE1272000
BFFF4000000BFFFFFF2000
DFFC00000005FFFFF90000
3CE3000000005DFD600000
ENDCHAR
STARTCHAR Eng
ENCODING 330
SWIDTH 698 0
DWIDTH 25 0
BBX 28 37 0 -10
BITMAP
000000000006CFB00000007EE800
0000000001AFFFF0000003FFFFB0
000000000AFFFFD00000009FFFF4
000000008FFFFFA00000001FFFF7
00000004FFEFFF700000000DFFF8
0000000DFF6FFF600000000CFFF7
0000007FF95FFF500000000CFFF5
000001EFF26FFF600000000DFFF2
000008FF906FFF600000001FFFE0
00001EFF206FFF700000003FFFA0
00007FFA006FFF800000007FFF60
0000DFF4005FFFA0000000AFFF10
0005FFD0004FFFC0000000EFFB00
000BFF70002FFFE0000003FFF600
002FFF20000FFFF2000008FFE100
007FFC00000DFFF500000DFF9000
00CFF700000AFFF900003FFF3000
02FFF3000007FFFD00009FFC0000
07FFD0000003FFFF2000EFF50000
0BFF90000000EFFF6005FFD00000
0EFF600000009FFFC00CFF600000
3FFF200000003FFFF33FFD000000
6FFD000000000CFFFAAFF6000000
8FFB0000000004FFFFFFC0000000
9FF80000000000AFFFFF40000000
7FF600000000001FFFF900000000
1BE200000000006FFFE100000000
00000000000001EFFF4000000000
00000000000009FFF80000000000
0000000000005FFFB00000000000
000000000003FFFD100000000000
00000000002DFFE2000000000000
0000000002DFFE30000000000000
000000003EFFD300000000000000
00000007FFFC2000000000000000
000005DFFF800000000000000000
000005ED93000000000000000000
ENDCHAR
STARTCHAR eng
ENCODING 331
SWIDTH 561 0
DWIDTH 20 0
BBX 19 28 0 -10
BITMAP
00007DFC200006DFC500
0001FFFFC001BFFFFF50
00006FFFD00BFFFFFFB0
00002FFFA0AFD34FFFB0
00005FFF57FD102FFFA0
00009FFE4FE2004FFF70
0000EFFAEF30007FFF40
0004FFFDF50000BFFE00
000AFFFF800001FFFA00
001FFFFB000005FFF500
007FFFD100000BFFF100
00DFFF4000002FFFA000
05FFFB0000008FFF5000
0BFFF3000000EFFE0000
4FFFB0000006FFF70000
BFFF4000000CFFF10000
DFFC0000005FFFA00000
3CE3000000CFFF200000
0000000005FFF9000000
000000000DFFE2000000
000000007FFF70000000
00000002FFFD00000000
0000000BFFF300000000
0000007FFF7000000000
000005FFF90000000000
00005FFFA00000000000
0009FFF9000000000000
0009EC50000000000000
ENDCHAR
STARTCHAR Omacron
ENCODING 332
SWIDTH 655 0
DWIDTH 24 0
BBX 24 33 2 0
BITMAP
000000000001BFFFFFFFFFF6
00000000000BFFFFFFFFFFF4
00000000000DFFFFFFFFFE60
000000000000000000000000
000000000000000000000000
000000000000000000000000
0000000000038CEFEB600000
0000000003BFFFFFFFFC1000
000000007FFFF8213CFFC000
00000009FFFD300002FFF600
000000AFFFD2000000CFFB00
000008FFFE20000000AFFE00
00005FFFF3000000009FFF10
0001EFFF8000000000AFFF20
000AFFFD0000000000BFFF20
003FFFF40000000000EFFF00
00AFFFB00000000003FFFD00
02FFFF400000000007FFFA00
08FFFC00000000000CFFF700
0CFFF600000000002FFFF200
2FFFF100000000008FFFC000
5FFFB00000000001EFFF6000
8FFF700000000007FFFE0000
AFFF30000000001EFFF60000
CFFF10000000008FFFD00000
CFFE0000000003FFFF300000
BFFD000000001DFFF8000000
9FFE00000000AFFFA0000000
5FFF10000009FFFC10000000
1EFF700001AFFFB100000000
05FFF6126DFFF80000000000
006FFFFFFFFC400000000000
00029DEED940000000000000
ENDCHAR
STARTCHAR omacron
ENCODING 333
SWIDTH 514 0
DWIDTH 19 0
BBX 19 24 1 0
BITMAP
00000006EFFFFFFFFFD0
0000004FFFFFFFFFFFB0
0000006EFFFFFFFFFB10
00000000000000000000
00000000000000000000
00000000000000000000
000000039DEEC6000000
000001AFFFFFFFA00000
00003EFFF714FFF60000
0003EFFF4000BFFD0000
001DFFF60000AFFF2000
009FFFB00000AFFF4000
03FFFF300000CFFF3000
0AFFFA000001FFFF1000
1FFFF3000005FFFD0000
5FFFD000000AFFF90000
8FFF8000002FFFF40000
AFFF5000009FFFC00000
AFFF300003FFFF300000
9FFF20000CFFF8000000
6FFF4000AFFFB0000000
1EFFA13BFFFA10000000
04EFFFFFFE7000000000
0029DFEC710000000000
ENDCHAR
STARTCHAR Obreve
ENCODING 334
SWIDTH 655 0
DWIDTH 24 0
BBX 24 35 2 0
BITMAP
00000000000004DC000000A9
0000000000001EFF100007FB
0000000000003FFFA103BFF4
0000000000001FFFFFEFFF80
00000000000007FFFFFFF600
000000000000004BEEC82000
000000000000000000000000
000000000000000000000000
0000000000038CEFEB600000
0000000003BFFFFFFFFC1000
000000007FFFF8213CFFC000
00000009FFFD300002FFF600
000000AFFFD2000000CFFB00
000008FFFE20000000AFFE00
00005FFFF3000000009FFF10
0001EFFF8000000000AFFF20
000AFFFD0000000000BFFF20
003FFFF40000000000EFFF00
00AFFFB00000000003FFFD00
02FFFF400000000007FFFA00
08FFFC00000000000CFFF700
0CFFF600000000002FFFF200
2FFFF100000000008FFFC000
5FFFB00000000001EFFF6000
8FFF700000000007FFFE0000
AFFF30000000001EFFF60000
CFFF10000000008FFFD00000
CFFE0000000003FFFF300000
BFFD000000001DFFF8000000
9FFE00000000AFFFA0000000
5FFF10000009FFFC10000000
1EFF700001AFFFB100000000
05FFF6126DFFF80000000000
006FFFFFFFFC400000000000
00029DEED940000000000000
ENDCHAR
STARTCHAR obreve
ENCODING 335
SWIDTH 514 0
DWIDTH 19 0
BBX 20 27 1 0
BITMAP
0000000009E4000002D2
000000006FF700000AF4
00000000AFFB00008FE0
00000000AFFF603BFF60
000000006FFFFFFFF900
000000000BFFFFFF7000
00000000007CDC820000
00000000000000000000
00000000000000000000
000000039DEEC6000000
000001AFFFFFFFA00000
00003EFFF714FFF60000
0003EFFF4000BFFD0000
001DFFF60000AFFF2000
009FFFB00000AFFF4000
03FFFF300000CFFF3000
0AFFFA000001FFFF1000
1FFFF3000005FFFD0000
5FFFD000000AFFF90000
8FFF8000002FFFF40000
AFFF5000009FFFC00000
AFFF300003FFFF300000
9FFF20000CFFF8000000
6FFF4000AFFFB0000000
1EFFA13BFFFA10000000
04EFFFFFFE7000000000
0029DFEC710000000000
ENDCHAR
STARTCHAR Ohungarumlaut
ENCODING 336
SWIDTH 655 0
DWIDTH 24 0
BBX 25 35 2 0
BITMAP
0000000000000005A40002A700
000000000000000CFF1007FF50
000000000000001FFF000BFF50
000000000000008FFA003FFE10
00000000000004FFD101CFF500
0000000000004EFD201CFE5000
000000000000CE81007EA20000
00000000000000000000000000
0000000000038CEFEB60000000
0000000003BFFFFFFFFC100000
000000007FFFF8213CFFC00000
00000009FFFD300002FFF60000
000000AFFFD2000000CFFB0000
000008FFFE20000000AFFE0000
00005FFFF3000000009FFF1000
0001EFFF8000000000AFFF2000
000AFFFD0000000000BFFF2000
003FFFF40000000000EFFF0000
00AFFFB00000000003FFFD0000
02FFFF400000000007FFFA0000
08FFFC00000000000CFFF70000
0CFFF600000000002FFFF20000
2FFFF100000000008FFFC00000
5FFFB00000000001EFFF600000
8FFF700000000007FFFE000000
AFFF30000000001EFFF6000000
CFFF10000000008FFFD0000000
CFFE0000000003FFFF30000000
BFFD000000001DFFF800000000
9FFE00000000AFFFA000000000
5FFF10000009FFFC1000000000
1EFF700001AFFFB10000000000
05FFF6126DFFF8000000000000
006FFFFFFFFC40000000000000
00029DEED94000000000000000
ENDCHAR
STARTCHAR ohungarumlaut
ENCODING 337
SWIDTH 514 0
DWIDTH 19 0
BBX 20 28 1 0
BITMAP
00000000001EE2000AF6
00000000006FF7002FFC
0000000000DFF6008FFB
0000000006FFE102EFF5
000000001EFF500AFFA0
00000000BFF8006FFC10
0000000AFF8005FFB100
0000009FE5005FF80000
00000056100037200000
00000000000000000000
000000039DEEC6000000
000001AFFFFFFFA00000
00003EFFF714FFF60000
0003EFFF4000BFFD0000
001DFFF60000AFFF2000
009FFFB00000AFFF4000
03FFFF300000CFFF3000
0AFFFA000001FFFF1000
1FFFF3000005FFFD0000
5FFFD000000AFFF90000
8FFF8000002FFFF40000
AFFF5000009FFFC00000
AFFF300003FFFF300000
9FFF20000CFFF8000000
6FFF4000AFFFB0000000
1EFFA13BFFFA10000000
04EFFFFFFE7000000000
0029DFEC710000000000
ENDCHAR
STARTCHAR OE
ENCODING 338
SWIDTH 900 0
DWIDTH 32 0
BBX 34 27 3 0
BITMAP
00000000000049CEFDA500016ADEFEB600
00000000005DFFFFFFFFC39FFFFFFFFFD1
000000001AFFFD6215EFFFFFFFB5204FF9
00000002DFFFA100006FFFFFE400000DFD
0000002DFFFA0000002FFFFD2000002FFE
000001CFFFB00000009FFFE3000001CFFC
00000AFFFD10000002FFFF6000001CFFF7
00005FFFF300000008FFFC000004EFFFD1
0001DFFF800000000CFFF500006FFFFF30
0007FFFE100000000EFFF000008FFFF500
001EFFF7000000000EFFC000001AEB3000
006FFFE1000000000CFFC0000000000000
00CFFF800000000007FFF2000000000000
02FFFF200000000001DFFD8AC910000000
06FFFB0000000000002BFFFFFF70000000
0AFFF70000000000007EFFFFEB30000000
0DFFF200000000000AFFFFD60000000000
0FFFE00000000000AFFFFA100000000000
2FFFB00000000006FFFF80000000000000
2FFFA0000000001EFFF900000000000000
1FFF9000000000BFFFE100000003000000
0EFFA000000008FFFF900000007F500000
0AFFC00000008FFFFF60000006FF700000
04FFF4000019FFFFFF8000008FFF400000
00AFFD4026DFFFCEFFE6127DFFF7000000
000AFFFFFFFFD604EFFFFFFFFD40000000
00004ADFED95000017CEFED94000000000
ENDCHAR
STARTCHAR oe
ENCODING 339
SWIDTH 777 0
DWIDTH 28 0
BBX 27 18 2 0
BITMAP
00000005ADFDA3000028DEEB3000
000003CFFFFFFF6008FFFFFFE300
00005FFFE516FFF3CFFC31BFFC00
0005FFFE2000EFFFFFB0006FFF10
003EFFF30000DFFFFE10007FFF20
00CFFF800000DFFFF70000CFFF10
06FFFE100000FFFFE10005FFFB00
0DFFF7000004FFFF70003EFFF400
4FFFE1000008FFFF2005EFFF8000
8FFFA000000DFFFC04BFFFF60000
BFFF5000005FFFFEEFFFF9200000
DFFF200000CFFFFEDC9510000000
EFFF000006FFFFF2000000000000
CFFE00002EFFFFF2000000250000
9FFF1001CFFFFFF7000004EF0000
2FFF814DFFFEFFFE4015BFFC0000
06FFFFFFFFA17FFFFFFFFFB20000
003ADFEC8200039DEFEC83000000
ENDCHAR
STARTCHAR Racute
ENCODING 340
SWIDTH 623 0
DWIDTH 22 0
BBX 24 36 -1 -1
BITMAP
00000000000000000009E900
0000000000000000002FFF50
0000000000000000008FFF60
000000000000000004FFFD10
00000000000000003EFFC200
0000000000000002EFE71000
000000000000000275100000
000000000000000000000000
00000000259BDEFFDA610000
0000004BFFFFFFFFFFFF8000
000008FFFFFB631025CFFB10
00000EFFFA200000000CFF90
000006FE507930000005FFF2
0000001106FFE1000003FFF6
000000001EFFF1000004FFF8
000000007FFFA0000007FFF6
00000000DFFF4000000DFFF4
00000004FFFD0000007FFFD0
0000000AFFF8000004FFFF50
0000001EFFF300005FFFFA00
0000006FFFD00019FFFFA000
000000BFFF7027EFFFF80000
000001FFFFBCFFFFFC400000
000007FFFFFFFFFB50000000
00000CFFF69FFF4000000000
00003FFFE00CFFD100000000
00009FFF7004FFFA00000000
0001EFFE1000BFFF40000000
0008FFF800004FFFC0000000
001EFFE100000CFFF6000000
008FFF60000005FFFE100000
03FFFC00000000CFFFA00000
1DFFE2000000003FFFFA2220
DFFE300000000006FFFFFF60
AEA10000000000005EFFF900
000000000000000000342000
ENDCHAR
STARTCHAR racute
ENCODING 341
SWIDTH 407 0
DWIDTH 15 0
BBX 17 28 0 0
BITMAP
00000000000006FB10
0000000000000CFF90
0000000000003FFFB0
000000000000AFFF60
000000000004FFFB00
00000000002EFFC100
0000000001DFFB1000
000000000CFE600000
000000000750000000
000000000000000000
0001AEE800007DE800
0007FFFF5009FFFF20
0000BFFF708FFFFF30
00007FFF45FFFFFE10
00009FFF2EF718E500
0000CFFA9F60000000
0001FFF7F800000000
0005FFFCC000000000
000AFFFF2000000000
000EFFF80000000000
005FFFE10000000000
00BFFF600000000000
01FFFE000000000000
07FFF7000000000000
0DFFF1000000000000
4FFFA0000000000000
5FFF40000000000000
07EB00000000000000
ENDCHAR
STARTCHAR Rcommaaccent
ENCODING 342
SWIDTH 623 0
DWIDTH 22 0
BBX 24 37 -1 -10
BITMAP
00000000259BDEFFDA610000
0000004BFFFFFFFFFFFF8000
000008FFFFFB631025CFFB10
00000EFFFA200000000CFF90
000006FE507930000005FFF2
0000001106FFE1000003FFF6
000000001EFFF1000004FFF8
000000007FFFA0000007FFF6
00000000DFFF4000000DFFF4
00000004FFFD0000007FFFD0
0000000AFFF8000004FFFF50
0000001EFFF300005FFFFA00
0000006FFFD00019FFFFA000
000000BFFF7027EFFFF80000
000001FFFFBCFFFFFC400000
000007FFFFFFFFFB50000000
00000CFFF69FFF4000000000
00003FFFE00CFFD100000000
00009FFF7004FFFA00000000
0001EFFE1000BFFF40000000
0008FFF800004FFFC0000000
001EFFE100000CFFF6000000
008FFF60000005FFFE100000
03FFFC00000000CFFFA00000
1DFFE2000000003FFFFA2220
DFFE300000000006FFFFFF60
AEA10000000000005EFFF900
000000000000000000342000
000000143000000000000000
000003EFF600000000000000
00000AFFFC00000000000000
000002FFFC00000000000000
000000CFF800000000000000
000001EFF200000000000000
000008FF6000000000000000
00005FF70000000000000000
0000CC400000000000000000
ENDCHAR
ENDFONT
